%FSLAX45Y45*%
G04 Gerber Fmt 4.5, Leading zero omitted, Abs format (unit mm)*
G04 Created by KiCad (PCBNEW (5.99.0-11727-g1ec70d30af)) date 2021-08-20 03:51:31*
%MOMM*%
%LPD*%
G01*
G04 APERTURE LIST*
%TA.AperFunction,Profile*%
%ADD10C,0.100000*%
%TD*%
%ADD11C,0.200000*%
%ADD12C,0.040000*%
%ADD13C,0.060000*%
%ADD14C,0.080000*%
%ADD15C,0.095000*%
%ADD16C,0.100000*%
%ADD17C,0.110000*%
%ADD18C,0.120000*%
%ADD19C,0.430000*%
G04 APERTURE END LIST*
D10*
X2500000Y-2500000D02*
X13500000Y-2500000D01*
X13500000Y-2500000D02*
X13500000Y-18500000D01*
X13500000Y-18500000D02*
X2500000Y-18500000D01*
X2500000Y-18500000D02*
X2500000Y-2500000D01*
D11*
D12*
X3130000Y-17096250D02*
X3170000Y-17136250D01*
X3170000Y-17096250D02*
X3130000Y-17136250D01*
X3255000Y-15580000D02*
X3295000Y-15620000D01*
X3295000Y-15580000D02*
X3255000Y-15620000D01*
X3330000Y-17146250D02*
X3370000Y-17186250D01*
X3370000Y-17146250D02*
X3330000Y-17186250D01*
X3380000Y-16430000D02*
X3420000Y-16470000D01*
X3420000Y-16430000D02*
X3380000Y-16470000D01*
X3451000Y-13301000D02*
X3491000Y-13341000D01*
X3491000Y-13301000D02*
X3451000Y-13341000D01*
X3530000Y-16680000D02*
X3570000Y-16720000D01*
X3570000Y-16680000D02*
X3530000Y-16720000D01*
X3630000Y-14755000D02*
X3670000Y-14795000D01*
X3670000Y-14755000D02*
X3630000Y-14795000D01*
X3680000Y-3280000D02*
X3720000Y-3320000D01*
X3720000Y-3280000D02*
X3680000Y-3320000D01*
X3680000Y-4180000D02*
X3720000Y-4220000D01*
X3720000Y-4180000D02*
X3680000Y-4220000D01*
X3680000Y-4480000D02*
X3720000Y-4520000D01*
X3720000Y-4480000D02*
X3680000Y-4520000D01*
X3680000Y-4980000D02*
X3720000Y-5020000D01*
X3720000Y-4980000D02*
X3680000Y-5020000D01*
X3680000Y-7180000D02*
X3720000Y-7220000D01*
X3720000Y-7180000D02*
X3680000Y-7220000D01*
X3680000Y-8080000D02*
X3720000Y-8120000D01*
X3720000Y-8080000D02*
X3680000Y-8120000D01*
X3680000Y-8380000D02*
X3720000Y-8420000D01*
X3720000Y-8380000D02*
X3680000Y-8420000D01*
X3680000Y-8880000D02*
X3720000Y-8920000D01*
X3720000Y-8880000D02*
X3680000Y-8920000D01*
X3680000Y-10480000D02*
X3720000Y-10520000D01*
X3720000Y-10480000D02*
X3680000Y-10520000D01*
X3680000Y-11380000D02*
X3720000Y-11420000D01*
X3720000Y-11380000D02*
X3680000Y-11420000D01*
X3680000Y-11680000D02*
X3720000Y-11720000D01*
X3720000Y-11680000D02*
X3680000Y-11720000D01*
X3680000Y-12180000D02*
X3720000Y-12220000D01*
X3720000Y-12180000D02*
X3680000Y-12220000D01*
X3730000Y-6530000D02*
X3770000Y-6570000D01*
X3770000Y-6530000D02*
X3730000Y-6570000D01*
X3730000Y-14455000D02*
X3770000Y-14495000D01*
X3770000Y-14455000D02*
X3730000Y-14495000D01*
X3755000Y-16930000D02*
X3795000Y-16970000D01*
X3795000Y-16930000D02*
X3755000Y-16970000D01*
X3855000Y-17430000D02*
X3895000Y-17470000D01*
X3895000Y-17430000D02*
X3855000Y-17470000D01*
X3880000Y-4780000D02*
X3920000Y-4820000D01*
X3920000Y-4780000D02*
X3880000Y-4820000D01*
X3880000Y-8680000D02*
X3920000Y-8720000D01*
X3920000Y-8680000D02*
X3880000Y-8720000D01*
X3880000Y-11980000D02*
X3920000Y-12020000D01*
X3920000Y-11980000D02*
X3880000Y-12020000D01*
X3905000Y-14305000D02*
X3945000Y-14345000D01*
X3945000Y-14305000D02*
X3905000Y-14345000D01*
X3945050Y-7943750D02*
X3985050Y-7983750D01*
X3985050Y-7943750D02*
X3945050Y-7983750D01*
X3945050Y-11230000D02*
X3985050Y-11270000D01*
X3985050Y-11230000D02*
X3945050Y-11270000D01*
X3980000Y-16955000D02*
X4020000Y-16995000D01*
X4020000Y-16955000D02*
X3980000Y-16995000D01*
X3993750Y-4043750D02*
X4033750Y-4083750D01*
X4033750Y-4043750D02*
X3993750Y-4083750D01*
X4030000Y-6180000D02*
X4070000Y-6220000D01*
X4070000Y-6180000D02*
X4030000Y-6220000D01*
X4030000Y-6380000D02*
X4070000Y-6420000D01*
X4070000Y-6380000D02*
X4030000Y-6420000D01*
X4030000Y-14755000D02*
X4070000Y-14795000D01*
X4070000Y-14755000D02*
X4030000Y-14795000D01*
X4030000Y-16230000D02*
X4070000Y-16270000D01*
X4070000Y-16230000D02*
X4030000Y-16270000D01*
X4080000Y-14030000D02*
X4120000Y-14070000D01*
X4120000Y-14030000D02*
X4080000Y-14070000D01*
X4130000Y-13330000D02*
X4170000Y-13370000D01*
X4170000Y-13330000D02*
X4130000Y-13370000D01*
X4166250Y-4043750D02*
X4206250Y-4083750D01*
X4206250Y-4043750D02*
X4166250Y-4083750D01*
X4180000Y-16955000D02*
X4220000Y-16995000D01*
X4220000Y-16955000D02*
X4180000Y-16995000D01*
X4230000Y-7930000D02*
X4270000Y-7970000D01*
X4270000Y-7930000D02*
X4230000Y-7970000D01*
X4230000Y-11230000D02*
X4270000Y-11270000D01*
X4270000Y-11230000D02*
X4230000Y-11270000D01*
X4255000Y-16230000D02*
X4295000Y-16270000D01*
X4295000Y-16230000D02*
X4255000Y-16270000D01*
X4280000Y-4780000D02*
X4320000Y-4820000D01*
X4320000Y-4780000D02*
X4280000Y-4820000D01*
X4280000Y-8680000D02*
X4320000Y-8720000D01*
X4320000Y-8680000D02*
X4280000Y-8720000D01*
X4280000Y-11980000D02*
X4320000Y-12020000D01*
X4320000Y-11980000D02*
X4280000Y-12020000D01*
X4330000Y-12730000D02*
X4370000Y-12770000D01*
X4370000Y-12730000D02*
X4330000Y-12770000D01*
X4405000Y-16930000D02*
X4445000Y-16970000D01*
X4445000Y-16930000D02*
X4405000Y-16970000D01*
X4405000Y-17430000D02*
X4445000Y-17470000D01*
X4445000Y-17430000D02*
X4405000Y-17470000D01*
X4430000Y-13330000D02*
X4470000Y-13370000D01*
X4470000Y-13330000D02*
X4430000Y-13370000D01*
X4505000Y-16605000D02*
X4545000Y-16645000D01*
X4545000Y-16605000D02*
X4505000Y-16645000D01*
X4580000Y-4280000D02*
X4620000Y-4320000D01*
X4620000Y-4280000D02*
X4580000Y-4320000D01*
X4580000Y-4480000D02*
X4620000Y-4520000D01*
X4620000Y-4480000D02*
X4580000Y-4520000D01*
X4580000Y-8130000D02*
X4620000Y-8170000D01*
X4620000Y-8130000D02*
X4580000Y-8170000D01*
X4580000Y-8380000D02*
X4620000Y-8420000D01*
X4620000Y-8380000D02*
X4580000Y-8420000D01*
X4580000Y-11430000D02*
X4620000Y-11470000D01*
X4620000Y-11430000D02*
X4580000Y-11470000D01*
X4580000Y-11680000D02*
X4620000Y-11720000D01*
X4620000Y-11680000D02*
X4580000Y-11720000D01*
X4580000Y-15105000D02*
X4620000Y-15145000D01*
X4620000Y-15105000D02*
X4580000Y-15145000D01*
X4580000Y-15930000D02*
X4620000Y-15970000D01*
X4620000Y-15930000D02*
X4580000Y-15970000D01*
X4580000Y-16880000D02*
X4620000Y-16920000D01*
X4620000Y-16880000D02*
X4580000Y-16920000D01*
X4680000Y-13430000D02*
X4720000Y-13470000D01*
X4720000Y-13430000D02*
X4680000Y-13470000D01*
X4743750Y-14018750D02*
X4783750Y-14058750D01*
X4783750Y-14018750D02*
X4743750Y-14058750D01*
X4752450Y-14205000D02*
X4792450Y-14245000D01*
X4792450Y-14205000D02*
X4752450Y-14245000D01*
X4755000Y-15930000D02*
X4795000Y-15970000D01*
X4795000Y-15930000D02*
X4755000Y-15970000D01*
X4855000Y-15230000D02*
X4895000Y-15270000D01*
X4895000Y-15230000D02*
X4855000Y-15270000D01*
X4930000Y-13330000D02*
X4970000Y-13370000D01*
X4970000Y-13330000D02*
X4930000Y-13370000D01*
X4930000Y-15930000D02*
X4970000Y-15970000D01*
X4970000Y-15930000D02*
X4930000Y-15970000D01*
X5055000Y-13930000D02*
X5095000Y-13970000D01*
X5095000Y-13930000D02*
X5055000Y-13970000D01*
X5055000Y-14480000D02*
X5095000Y-14520000D01*
X5095000Y-14480000D02*
X5055000Y-14520000D01*
X5080000Y-14755000D02*
X5120000Y-14795000D01*
X5120000Y-14755000D02*
X5080000Y-14795000D01*
X5080000Y-14905000D02*
X5120000Y-14945000D01*
X5120000Y-14905000D02*
X5080000Y-14945000D01*
X5080000Y-15230000D02*
X5120000Y-15270000D01*
X5120000Y-15230000D02*
X5080000Y-15270000D01*
X5105000Y-14605000D02*
X5145000Y-14645000D01*
X5145000Y-14605000D02*
X5105000Y-14645000D01*
X5155000Y-17055000D02*
X5195000Y-17095000D01*
X5195000Y-17055000D02*
X5155000Y-17095000D01*
X5181230Y-13953770D02*
X5221230Y-13993770D01*
X5221230Y-13953770D02*
X5181230Y-13993770D01*
X5230000Y-13330000D02*
X5270000Y-13370000D01*
X5270000Y-13330000D02*
X5230000Y-13370000D01*
X5230000Y-14430000D02*
X5270000Y-14470000D01*
X5270000Y-14430000D02*
X5230000Y-14470000D01*
X5230000Y-14905000D02*
X5270000Y-14945000D01*
X5270000Y-14905000D02*
X5230000Y-14945000D01*
X5305000Y-15855000D02*
X5345000Y-15895000D01*
X5345000Y-15855000D02*
X5305000Y-15895000D01*
X5357550Y-13692500D02*
X5397550Y-13732500D01*
X5397550Y-13692500D02*
X5357550Y-13732500D01*
X5380000Y-13180000D02*
X5420000Y-13220000D01*
X5420000Y-13180000D02*
X5380000Y-13220000D01*
X5380000Y-14405000D02*
X5420000Y-14445000D01*
X5420000Y-14405000D02*
X5380000Y-14445000D01*
X5401485Y-14560025D02*
X5441485Y-14600025D01*
X5441485Y-14560025D02*
X5401485Y-14600025D01*
X5455000Y-15855000D02*
X5495000Y-15895000D01*
X5495000Y-15855000D02*
X5455000Y-15895000D01*
X5495369Y-14625018D02*
X5535369Y-14665018D01*
X5535369Y-14625018D02*
X5495369Y-14665018D01*
X5580000Y-14705000D02*
X5620000Y-14745000D01*
X5620000Y-14705000D02*
X5580000Y-14745000D01*
X5673800Y-14080000D02*
X5713800Y-14120000D01*
X5713800Y-14080000D02*
X5673800Y-14120000D01*
X5680000Y-13180000D02*
X5720000Y-13220000D01*
X5720000Y-13180000D02*
X5680000Y-13220000D01*
X5780000Y-13755000D02*
X5820000Y-13795000D01*
X5820000Y-13755000D02*
X5780000Y-13795000D01*
X5830000Y-13405000D02*
X5870000Y-13445000D01*
X5870000Y-13405000D02*
X5830000Y-13445000D01*
X5899952Y-13899952D02*
X5939952Y-13939952D01*
X5939952Y-13899952D02*
X5899952Y-13939952D01*
X5980000Y-17830000D02*
X6020000Y-17870000D01*
X6020000Y-17830000D02*
X5980000Y-17870000D01*
X6105000Y-15118750D02*
X6145000Y-15158750D01*
X6145000Y-15118750D02*
X6105000Y-15158750D01*
X6105000Y-15305000D02*
X6145000Y-15345000D01*
X6145000Y-15305000D02*
X6105000Y-15345000D01*
X6176465Y-15908534D02*
X6216465Y-15948534D01*
X6216465Y-15908534D02*
X6176465Y-15948534D01*
X6180000Y-13755000D02*
X6220000Y-13795000D01*
X6220000Y-13755000D02*
X6180000Y-13795000D01*
X6224952Y-14349952D02*
X6264952Y-14389952D01*
X6264952Y-14349952D02*
X6224952Y-14389952D01*
X6247142Y-15837860D02*
X6287142Y-15877860D01*
X6287142Y-15837860D02*
X6247142Y-15877860D01*
X6317809Y-15767176D02*
X6357809Y-15807176D01*
X6357809Y-15767176D02*
X6317809Y-15807176D01*
X6405000Y-15705000D02*
X6445000Y-15745000D01*
X6445000Y-15705000D02*
X6405000Y-15745000D01*
X6630000Y-13755000D02*
X6670000Y-13795000D01*
X6670000Y-13755000D02*
X6630000Y-13795000D01*
X6655000Y-15130000D02*
X6695000Y-15170000D01*
X6695000Y-15130000D02*
X6655000Y-15170000D01*
X6824952Y-14455000D02*
X6864952Y-14495000D01*
X6864952Y-14455000D02*
X6824952Y-14495000D01*
X6977500Y-17830000D02*
X7017500Y-17870000D01*
X7017500Y-17830000D02*
X6977500Y-17870000D01*
X6980000Y-17230000D02*
X7020000Y-17270000D01*
X7020000Y-17230000D02*
X6980000Y-17270000D01*
X7405000Y-13730000D02*
X7445000Y-13770000D01*
X7445000Y-13730000D02*
X7405000Y-13770000D01*
X7405000Y-13855000D02*
X7445000Y-13895000D01*
X7445000Y-13855000D02*
X7405000Y-13895000D01*
X7405000Y-13980000D02*
X7445000Y-14020000D01*
X7445000Y-13980000D02*
X7405000Y-14020000D01*
X8030000Y-15180000D02*
X8070000Y-15220000D01*
X8070000Y-15180000D02*
X8030000Y-15220000D01*
X8430000Y-13530000D02*
X8470000Y-13570000D01*
X8470000Y-13530000D02*
X8430000Y-13570000D01*
X8430000Y-13630000D02*
X8470000Y-13670000D01*
X8470000Y-13630000D02*
X8430000Y-13670000D01*
X8430000Y-13730000D02*
X8470000Y-13770000D01*
X8470000Y-13730000D02*
X8430000Y-13770000D01*
X8830000Y-16730000D02*
X8870000Y-16770000D01*
X8870000Y-16730000D02*
X8830000Y-16770000D01*
X9030000Y-15730000D02*
X9070000Y-15770000D01*
X9070000Y-15730000D02*
X9030000Y-15770000D01*
X9080000Y-14355000D02*
X9120000Y-14395000D01*
X9120000Y-14355000D02*
X9080000Y-14395000D01*
X9080000Y-15230000D02*
X9120000Y-15270000D01*
X9120000Y-15230000D02*
X9080000Y-15270000D01*
X9230000Y-15230000D02*
X9270000Y-15270000D01*
X9270000Y-15230000D02*
X9230000Y-15270000D01*
X9330000Y-15230000D02*
X9370000Y-15270000D01*
X9370000Y-15230000D02*
X9330000Y-15270000D01*
X9480000Y-15230000D02*
X9520000Y-15270000D01*
X9520000Y-15230000D02*
X9480000Y-15270000D01*
X9480000Y-16430000D02*
X9520000Y-16470000D01*
X9520000Y-16430000D02*
X9480000Y-16470000D01*
X9653000Y-17080000D02*
X9693000Y-17120000D01*
X9693000Y-17080000D02*
X9653000Y-17120000D01*
X9830000Y-15730000D02*
X9870000Y-15770000D01*
X9870000Y-15730000D02*
X9830000Y-15770000D01*
X9880000Y-13355000D02*
X9920000Y-13395000D01*
X9920000Y-13355000D02*
X9880000Y-13395000D01*
X9903000Y-17080000D02*
X9943000Y-17120000D01*
X9943000Y-17080000D02*
X9903000Y-17120000D01*
X9980000Y-13355000D02*
X10020000Y-13395000D01*
X10020000Y-13355000D02*
X9980000Y-13395000D01*
X9980000Y-14680000D02*
X10020000Y-14720000D01*
X10020000Y-14680000D02*
X9980000Y-14720000D01*
X10080000Y-13355000D02*
X10120000Y-13395000D01*
X10120000Y-13355000D02*
X10080000Y-13395000D01*
X10630000Y-16730000D02*
X10670000Y-16770000D01*
X10670000Y-16730000D02*
X10630000Y-16770000D01*
X11280000Y-16430000D02*
X11320000Y-16470000D01*
X11320000Y-16430000D02*
X11280000Y-16470000D01*
X11380000Y-4380000D02*
X11420000Y-4420000D01*
X11420000Y-4380000D02*
X11380000Y-4420000D01*
X11380000Y-4580000D02*
X11420000Y-4620000D01*
X11420000Y-4580000D02*
X11380000Y-4620000D01*
X11380000Y-8280000D02*
X11420000Y-8320000D01*
X11420000Y-8280000D02*
X11380000Y-8320000D01*
X11380000Y-8480000D02*
X11420000Y-8520000D01*
X11420000Y-8480000D02*
X11380000Y-8520000D01*
X11380000Y-11580000D02*
X11420000Y-11620000D01*
X11420000Y-11580000D02*
X11380000Y-11620000D01*
X11380000Y-11780000D02*
X11420000Y-11820000D01*
X11420000Y-11780000D02*
X11380000Y-11820000D01*
X11480000Y-17080000D02*
X11520000Y-17120000D01*
X11520000Y-17080000D02*
X11480000Y-17120000D01*
X11680000Y-4780000D02*
X11720000Y-4820000D01*
X11720000Y-4780000D02*
X11680000Y-4820000D01*
X11680000Y-8680000D02*
X11720000Y-8720000D01*
X11720000Y-8680000D02*
X11680000Y-8720000D01*
X11680000Y-11980000D02*
X11720000Y-12020000D01*
X11720000Y-11980000D02*
X11680000Y-12020000D01*
X11730000Y-7930000D02*
X11770000Y-7970000D01*
X11770000Y-7930000D02*
X11730000Y-7970000D01*
X11730000Y-11230000D02*
X11770000Y-11270000D01*
X11770000Y-11230000D02*
X11730000Y-11270000D01*
X11730000Y-17080000D02*
X11770000Y-17120000D01*
X11770000Y-17080000D02*
X11730000Y-17120000D01*
X11793750Y-4043750D02*
X11833750Y-4083750D01*
X11833750Y-4043750D02*
X11793750Y-4083750D01*
X11930000Y-6180000D02*
X11970000Y-6220000D01*
X11970000Y-6180000D02*
X11930000Y-6220000D01*
X11930000Y-6380000D02*
X11970000Y-6420000D01*
X11970000Y-6380000D02*
X11930000Y-6420000D01*
X11966250Y-4043750D02*
X12006250Y-4083750D01*
X12006250Y-4043750D02*
X11966250Y-4083750D01*
X11980000Y-14780000D02*
X12020000Y-14820000D01*
X12020000Y-14780000D02*
X11980000Y-14820000D01*
X12030000Y-7930000D02*
X12070000Y-7970000D01*
X12070000Y-7930000D02*
X12030000Y-7970000D01*
X12030000Y-11230000D02*
X12070000Y-11270000D01*
X12070000Y-11230000D02*
X12030000Y-11270000D01*
X12080000Y-4780000D02*
X12120000Y-4820000D01*
X12120000Y-4780000D02*
X12080000Y-4820000D01*
X12080000Y-8680000D02*
X12120000Y-8720000D01*
X12120000Y-8680000D02*
X12080000Y-8720000D01*
X12080000Y-11980000D02*
X12120000Y-12020000D01*
X12120000Y-11980000D02*
X12080000Y-12020000D01*
X12130000Y-13630000D02*
X12170000Y-13670000D01*
X12170000Y-13630000D02*
X12130000Y-13670000D01*
X12230000Y-6530000D02*
X12270000Y-6570000D01*
X12270000Y-6530000D02*
X12230000Y-6570000D01*
X12280000Y-3680000D02*
X12320000Y-3720000D01*
X12320000Y-3680000D02*
X12280000Y-3720000D01*
X12280000Y-4280000D02*
X12320000Y-4320000D01*
X12320000Y-4280000D02*
X12280000Y-4320000D01*
X12280000Y-4580000D02*
X12320000Y-4620000D01*
X12320000Y-4580000D02*
X12280000Y-4620000D01*
X12280000Y-5380000D02*
X12320000Y-5420000D01*
X12320000Y-5380000D02*
X12280000Y-5420000D01*
X12280000Y-7580000D02*
X12320000Y-7620000D01*
X12320000Y-7580000D02*
X12280000Y-7620000D01*
X12280000Y-8180000D02*
X12320000Y-8220000D01*
X12320000Y-8180000D02*
X12280000Y-8220000D01*
X12280000Y-8480000D02*
X12320000Y-8520000D01*
X12320000Y-8480000D02*
X12280000Y-8520000D01*
X12280000Y-9280000D02*
X12320000Y-9320000D01*
X12320000Y-9280000D02*
X12280000Y-9320000D01*
X12280000Y-10880000D02*
X12320000Y-10920000D01*
X12320000Y-10880000D02*
X12280000Y-10920000D01*
X12280000Y-11480000D02*
X12320000Y-11520000D01*
X12320000Y-11480000D02*
X12280000Y-11520000D01*
X12280000Y-11780000D02*
X12320000Y-11820000D01*
X12320000Y-11780000D02*
X12280000Y-11820000D01*
X12280000Y-12580000D02*
X12320000Y-12620000D01*
X12320000Y-12580000D02*
X12280000Y-12620000D01*
D13*
X3748000Y-17737000D02*
G75*
G03*
X3748000Y-17737000I-30000J0D01*
G01*
D11*
X3698000Y-17682000D02*
X3698000Y-17792000D01*
X3738000Y-17682000D02*
X3738000Y-17792000D01*
X3698000Y-17792000D02*
G75*
G03*
X3738000Y-17792000I20000J0D01*
G01*
X3738000Y-17682000D02*
G75*
G03*
X3698000Y-17682000I-20000J0D01*
G01*
D13*
X3748000Y-18155000D02*
G75*
G03*
X3748000Y-18155000I-30000J0D01*
G01*
D11*
X3698000Y-18125000D02*
X3698000Y-18185000D01*
X3738000Y-18125000D02*
X3738000Y-18185000D01*
X3698000Y-18185000D02*
G75*
G03*
X3738000Y-18185000I20000J0D01*
G01*
X3738000Y-18125000D02*
G75*
G03*
X3698000Y-18125000I-20000J0D01*
G01*
D13*
X4612000Y-17737000D02*
G75*
G03*
X4612000Y-17737000I-30000J0D01*
G01*
D11*
X4562000Y-17682000D02*
X4562000Y-17792000D01*
X4602000Y-17682000D02*
X4602000Y-17792000D01*
X4562000Y-17792000D02*
G75*
G03*
X4602000Y-17792000I20000J0D01*
G01*
X4602000Y-17682000D02*
G75*
G03*
X4562000Y-17682000I-20000J0D01*
G01*
D13*
X4612000Y-18155000D02*
G75*
G03*
X4612000Y-18155000I-30000J0D01*
G01*
D11*
X4562000Y-18125000D02*
X4562000Y-18185000D01*
X4602000Y-18125000D02*
X4602000Y-18185000D01*
X4562000Y-18185000D02*
G75*
G03*
X4602000Y-18185000I20000J0D01*
G01*
X4602000Y-18125000D02*
G75*
G03*
X4562000Y-18125000I-20000J0D01*
G01*
D14*
X3300000Y-6114000D02*
X3300000Y-6194000D01*
X3260000Y-6154000D02*
X3340000Y-6154000D01*
X3300000Y-6368000D02*
X3300000Y-6448000D01*
X3260000Y-6408000D02*
X3340000Y-6408000D01*
X11050000Y-15760000D02*
X11050000Y-15840000D01*
X11010000Y-15800000D02*
X11090000Y-15800000D01*
X11400000Y-15760000D02*
X11400000Y-15840000D01*
X11360000Y-15800000D02*
X11440000Y-15800000D01*
X12700000Y-6106000D02*
X12700000Y-6186000D01*
X12660000Y-6146000D02*
X12740000Y-6146000D01*
X12700000Y-6360000D02*
X12700000Y-6440000D01*
X12660000Y-6400000D02*
X12740000Y-6400000D01*
D15*
X5406088Y-17583588D02*
X5406088Y-17516412D01*
X5338912Y-17516412D01*
X5338912Y-17583588D01*
X5406088Y-17583588D01*
X5406088Y-17833588D02*
X5406088Y-17766412D01*
X5338912Y-17766412D01*
X5338912Y-17833588D01*
X5406088Y-17833588D01*
X5406088Y-18083588D02*
X5406088Y-18016412D01*
X5338912Y-18016412D01*
X5338912Y-18083588D01*
X5406088Y-18083588D01*
X6433588Y-17583588D02*
X6433588Y-17516412D01*
X6366412Y-17516412D01*
X6366412Y-17583588D01*
X6433588Y-17583588D01*
X6433588Y-17833588D02*
X6433588Y-17766412D01*
X6366412Y-17766412D01*
X6366412Y-17833588D01*
X6433588Y-17833588D01*
X6433588Y-18083588D02*
X6433588Y-18016412D01*
X6366412Y-18016412D01*
X6366412Y-18083588D01*
X6433588Y-18083588D01*
X7431088Y-17583588D02*
X7431088Y-17516412D01*
X7363912Y-17516412D01*
X7363912Y-17583588D01*
X7431088Y-17583588D01*
X7431088Y-17833588D02*
X7431088Y-17766412D01*
X7363912Y-17766412D01*
X7363912Y-17833588D01*
X7431088Y-17833588D01*
X7431088Y-18083588D02*
X7431088Y-18016412D01*
X7363912Y-18016412D01*
X7363912Y-18083588D01*
X7431088Y-18083588D01*
X8431088Y-17583588D02*
X8431088Y-17516412D01*
X8363912Y-17516412D01*
X8363912Y-17583588D01*
X8431088Y-17583588D01*
X8431088Y-17833588D02*
X8431088Y-17766412D01*
X8363912Y-17766412D01*
X8363912Y-17833588D01*
X8431088Y-17833588D01*
X8431088Y-18083588D02*
X8431088Y-18016412D01*
X8363912Y-18016412D01*
X8363912Y-18083588D01*
X8431088Y-18083588D01*
D16*
X3050000Y-13759500D02*
X3100000Y-13709500D01*
X3050000Y-13659500D01*
X3000000Y-13709500D01*
X3050000Y-13759500D01*
X3050000Y-14013500D02*
X3100000Y-13963500D01*
X3050000Y-13913500D01*
X3000000Y-13963500D01*
X3050000Y-14013500D01*
X3050000Y-14267500D02*
X3100000Y-14217500D01*
X3050000Y-14167500D01*
X3000000Y-14217500D01*
X3050000Y-14267500D01*
X3050000Y-14521500D02*
X3100000Y-14471500D01*
X3050000Y-14421500D01*
X3000000Y-14471500D01*
X3050000Y-14521500D01*
X3050000Y-14775500D02*
X3100000Y-14725500D01*
X3050000Y-14675500D01*
X3000000Y-14725500D01*
X3050000Y-14775500D01*
X3050000Y-15029500D02*
X3100000Y-14979500D01*
X3050000Y-14929500D01*
X3000000Y-14979500D01*
X3050000Y-15029500D01*
X3050000Y-15283500D02*
X3100000Y-15233500D01*
X3050000Y-15183500D01*
X3000000Y-15233500D01*
X3050000Y-15283500D01*
X3050000Y-15537500D02*
X3100000Y-15487500D01*
X3050000Y-15437500D01*
X3000000Y-15487500D01*
X3050000Y-15537500D01*
X3050000Y-16247500D02*
X3100000Y-16197500D01*
X3050000Y-16147500D01*
X3000000Y-16197500D01*
X3050000Y-16247500D01*
X3050000Y-16501500D02*
X3100000Y-16451500D01*
X3050000Y-16401500D01*
X3000000Y-16451500D01*
X3050000Y-16501500D01*
X3050000Y-16755500D02*
X3100000Y-16705500D01*
X3050000Y-16655500D01*
X3000000Y-16705500D01*
X3050000Y-16755500D01*
X6691500Y-16298000D02*
X6741500Y-16248000D01*
X6691500Y-16198000D01*
X6641500Y-16248000D01*
X6691500Y-16298000D01*
X6691500Y-16552000D02*
X6741500Y-16502000D01*
X6691500Y-16452000D01*
X6641500Y-16502000D01*
X6691500Y-16552000D01*
X6731078Y-12800000D02*
X6781078Y-12750000D01*
X6731078Y-12700000D01*
X6681078Y-12750000D01*
X6731078Y-12800000D01*
X6945500Y-16298000D02*
X6995500Y-16248000D01*
X6945500Y-16198000D01*
X6895500Y-16248000D01*
X6945500Y-16298000D01*
X6945500Y-16552000D02*
X6995500Y-16502000D01*
X6945500Y-16452000D01*
X6895500Y-16502000D01*
X6945500Y-16552000D01*
X7199500Y-16298000D02*
X7249500Y-16248000D01*
X7199500Y-16198000D01*
X7149500Y-16248000D01*
X7199500Y-16298000D01*
X7199500Y-16552000D02*
X7249500Y-16502000D01*
X7199500Y-16452000D01*
X7149500Y-16502000D01*
X7199500Y-16552000D01*
X7231078Y-12800000D02*
X7281078Y-12750000D01*
X7231078Y-12700000D01*
X7181078Y-12750000D01*
X7231078Y-12800000D01*
X7453500Y-16298000D02*
X7503500Y-16248000D01*
X7453500Y-16198000D01*
X7403500Y-16248000D01*
X7453500Y-16298000D01*
X7453500Y-16552000D02*
X7503500Y-16502000D01*
X7453500Y-16452000D01*
X7403500Y-16502000D01*
X7453500Y-16552000D01*
X7707500Y-16298000D02*
X7757500Y-16248000D01*
X7707500Y-16198000D01*
X7657500Y-16248000D01*
X7707500Y-16298000D01*
X7707500Y-16552000D02*
X7757500Y-16502000D01*
X7707500Y-16452000D01*
X7657500Y-16502000D01*
X7707500Y-16552000D01*
X9600000Y-17950000D02*
X9650000Y-17900000D01*
X9600000Y-17850000D01*
X9550000Y-17900000D01*
X9600000Y-17950000D01*
X9850000Y-17950000D02*
X9900000Y-17900000D01*
X9850000Y-17850000D01*
X9800000Y-17900000D01*
X9850000Y-17950000D01*
X10813232Y-13500000D02*
X10863232Y-13450000D01*
X10813232Y-13400000D01*
X10763232Y-13450000D01*
X10813232Y-13500000D01*
X11313232Y-13500000D02*
X11363232Y-13450000D01*
X11313232Y-13400000D01*
X11263232Y-13450000D01*
X11313232Y-13500000D01*
X11400000Y-17950000D02*
X11450000Y-17900000D01*
X11400000Y-17850000D01*
X11350000Y-17900000D01*
X11400000Y-17950000D01*
X11650000Y-17950000D02*
X11700000Y-17900000D01*
X11650000Y-17850000D01*
X11600000Y-17900000D01*
X11650000Y-17950000D01*
X12400000Y-15350000D02*
X12450000Y-15300000D01*
X12400000Y-15250000D01*
X12350000Y-15300000D01*
X12400000Y-15350000D01*
X12650000Y-15350000D02*
X12700000Y-15300000D01*
X12650000Y-15250000D01*
X12600000Y-15300000D01*
X12650000Y-15350000D01*
D17*
X3145000Y-2945000D02*
X3255000Y-3055000D01*
X3255000Y-2945000D02*
X3145000Y-3055000D01*
X3255000Y-3000000D02*
G75*
G03*
X3255000Y-3000000I-55000J0D01*
G01*
X3145000Y-3199000D02*
X3255000Y-3309000D01*
X3255000Y-3199000D02*
X3145000Y-3309000D01*
X3255000Y-3254000D02*
G75*
G03*
X3255000Y-3254000I-55000J0D01*
G01*
X3145000Y-3453000D02*
X3255000Y-3563000D01*
X3255000Y-3453000D02*
X3145000Y-3563000D01*
X3255000Y-3508000D02*
G75*
G03*
X3255000Y-3508000I-55000J0D01*
G01*
X3145000Y-4045000D02*
X3255000Y-4155000D01*
X3255000Y-4045000D02*
X3145000Y-4155000D01*
X3255000Y-4100000D02*
G75*
G03*
X3255000Y-4100000I-55000J0D01*
G01*
X3145000Y-4299000D02*
X3255000Y-4409000D01*
X3255000Y-4299000D02*
X3145000Y-4409000D01*
X3255000Y-4354000D02*
G75*
G03*
X3255000Y-4354000I-55000J0D01*
G01*
X3145000Y-4553000D02*
X3255000Y-4663000D01*
X3255000Y-4553000D02*
X3145000Y-4663000D01*
X3255000Y-4608000D02*
G75*
G03*
X3255000Y-4608000I-55000J0D01*
G01*
X3145000Y-5145000D02*
X3255000Y-5255000D01*
X3255000Y-5145000D02*
X3145000Y-5255000D01*
X3255000Y-5200000D02*
G75*
G03*
X3255000Y-5200000I-55000J0D01*
G01*
X3145000Y-5399000D02*
X3255000Y-5509000D01*
X3255000Y-5399000D02*
X3145000Y-5509000D01*
X3255000Y-5454000D02*
G75*
G03*
X3255000Y-5454000I-55000J0D01*
G01*
X3145000Y-5653000D02*
X3255000Y-5763000D01*
X3255000Y-5653000D02*
X3145000Y-5763000D01*
X3255000Y-5708000D02*
G75*
G03*
X3255000Y-5708000I-55000J0D01*
G01*
X3145000Y-6845000D02*
X3255000Y-6955000D01*
X3255000Y-6845000D02*
X3145000Y-6955000D01*
X3255000Y-6900000D02*
G75*
G03*
X3255000Y-6900000I-55000J0D01*
G01*
X3145000Y-7099000D02*
X3255000Y-7209000D01*
X3255000Y-7099000D02*
X3145000Y-7209000D01*
X3255000Y-7154000D02*
G75*
G03*
X3255000Y-7154000I-55000J0D01*
G01*
X3145000Y-7353000D02*
X3255000Y-7463000D01*
X3255000Y-7353000D02*
X3145000Y-7463000D01*
X3255000Y-7408000D02*
G75*
G03*
X3255000Y-7408000I-55000J0D01*
G01*
X3145000Y-7945000D02*
X3255000Y-8055000D01*
X3255000Y-7945000D02*
X3145000Y-8055000D01*
X3255000Y-8000000D02*
G75*
G03*
X3255000Y-8000000I-55000J0D01*
G01*
X3145000Y-8199000D02*
X3255000Y-8309000D01*
X3255000Y-8199000D02*
X3145000Y-8309000D01*
X3255000Y-8254000D02*
G75*
G03*
X3255000Y-8254000I-55000J0D01*
G01*
X3145000Y-8453000D02*
X3255000Y-8563000D01*
X3255000Y-8453000D02*
X3145000Y-8563000D01*
X3255000Y-8508000D02*
G75*
G03*
X3255000Y-8508000I-55000J0D01*
G01*
X3145000Y-9045000D02*
X3255000Y-9155000D01*
X3255000Y-9045000D02*
X3145000Y-9155000D01*
X3255000Y-9100000D02*
G75*
G03*
X3255000Y-9100000I-55000J0D01*
G01*
X3145000Y-9299000D02*
X3255000Y-9409000D01*
X3255000Y-9299000D02*
X3145000Y-9409000D01*
X3255000Y-9354000D02*
G75*
G03*
X3255000Y-9354000I-55000J0D01*
G01*
X3145000Y-9553000D02*
X3255000Y-9663000D01*
X3255000Y-9553000D02*
X3145000Y-9663000D01*
X3255000Y-9608000D02*
G75*
G03*
X3255000Y-9608000I-55000J0D01*
G01*
X3145000Y-10145000D02*
X3255000Y-10255000D01*
X3255000Y-10145000D02*
X3145000Y-10255000D01*
X3255000Y-10200000D02*
G75*
G03*
X3255000Y-10200000I-55000J0D01*
G01*
X3145000Y-10399000D02*
X3255000Y-10509000D01*
X3255000Y-10399000D02*
X3145000Y-10509000D01*
X3255000Y-10454000D02*
G75*
G03*
X3255000Y-10454000I-55000J0D01*
G01*
X3145000Y-10653000D02*
X3255000Y-10763000D01*
X3255000Y-10653000D02*
X3145000Y-10763000D01*
X3255000Y-10708000D02*
G75*
G03*
X3255000Y-10708000I-55000J0D01*
G01*
X3145000Y-11245000D02*
X3255000Y-11355000D01*
X3255000Y-11245000D02*
X3145000Y-11355000D01*
X3255000Y-11300000D02*
G75*
G03*
X3255000Y-11300000I-55000J0D01*
G01*
X3145000Y-11499000D02*
X3255000Y-11609000D01*
X3255000Y-11499000D02*
X3145000Y-11609000D01*
X3255000Y-11554000D02*
G75*
G03*
X3255000Y-11554000I-55000J0D01*
G01*
X3145000Y-11753000D02*
X3255000Y-11863000D01*
X3255000Y-11753000D02*
X3145000Y-11863000D01*
X3255000Y-11808000D02*
G75*
G03*
X3255000Y-11808000I-55000J0D01*
G01*
X3145000Y-12345000D02*
X3255000Y-12455000D01*
X3255000Y-12345000D02*
X3145000Y-12455000D01*
X3255000Y-12400000D02*
G75*
G03*
X3255000Y-12400000I-55000J0D01*
G01*
X3145000Y-12599000D02*
X3255000Y-12709000D01*
X3255000Y-12599000D02*
X3145000Y-12709000D01*
X3255000Y-12654000D02*
G75*
G03*
X3255000Y-12654000I-55000J0D01*
G01*
X3145000Y-12853000D02*
X3255000Y-12963000D01*
X3255000Y-12853000D02*
X3145000Y-12963000D01*
X3255000Y-12908000D02*
G75*
G03*
X3255000Y-12908000I-55000J0D01*
G01*
X12745000Y-2937000D02*
X12855000Y-3047000D01*
X12855000Y-2937000D02*
X12745000Y-3047000D01*
X12855000Y-2992000D02*
G75*
G03*
X12855000Y-2992000I-55000J0D01*
G01*
X12745000Y-3191000D02*
X12855000Y-3301000D01*
X12855000Y-3191000D02*
X12745000Y-3301000D01*
X12855000Y-3246000D02*
G75*
G03*
X12855000Y-3246000I-55000J0D01*
G01*
X12745000Y-3445000D02*
X12855000Y-3555000D01*
X12855000Y-3445000D02*
X12745000Y-3555000D01*
X12855000Y-3500000D02*
G75*
G03*
X12855000Y-3500000I-55000J0D01*
G01*
X12745000Y-4037000D02*
X12855000Y-4147000D01*
X12855000Y-4037000D02*
X12745000Y-4147000D01*
X12855000Y-4092000D02*
G75*
G03*
X12855000Y-4092000I-55000J0D01*
G01*
X12745000Y-4291000D02*
X12855000Y-4401000D01*
X12855000Y-4291000D02*
X12745000Y-4401000D01*
X12855000Y-4346000D02*
G75*
G03*
X12855000Y-4346000I-55000J0D01*
G01*
X12745000Y-4545000D02*
X12855000Y-4655000D01*
X12855000Y-4545000D02*
X12745000Y-4655000D01*
X12855000Y-4600000D02*
G75*
G03*
X12855000Y-4600000I-55000J0D01*
G01*
X12745000Y-5137000D02*
X12855000Y-5247000D01*
X12855000Y-5137000D02*
X12745000Y-5247000D01*
X12855000Y-5192000D02*
G75*
G03*
X12855000Y-5192000I-55000J0D01*
G01*
X12745000Y-5391000D02*
X12855000Y-5501000D01*
X12855000Y-5391000D02*
X12745000Y-5501000D01*
X12855000Y-5446000D02*
G75*
G03*
X12855000Y-5446000I-55000J0D01*
G01*
X12745000Y-5645000D02*
X12855000Y-5755000D01*
X12855000Y-5645000D02*
X12745000Y-5755000D01*
X12855000Y-5700000D02*
G75*
G03*
X12855000Y-5700000I-55000J0D01*
G01*
X12745000Y-6837000D02*
X12855000Y-6947000D01*
X12855000Y-6837000D02*
X12745000Y-6947000D01*
X12855000Y-6892000D02*
G75*
G03*
X12855000Y-6892000I-55000J0D01*
G01*
X12745000Y-7091000D02*
X12855000Y-7201000D01*
X12855000Y-7091000D02*
X12745000Y-7201000D01*
X12855000Y-7146000D02*
G75*
G03*
X12855000Y-7146000I-55000J0D01*
G01*
X12745000Y-7345000D02*
X12855000Y-7455000D01*
X12855000Y-7345000D02*
X12745000Y-7455000D01*
X12855000Y-7400000D02*
G75*
G03*
X12855000Y-7400000I-55000J0D01*
G01*
X12745000Y-7937000D02*
X12855000Y-8047000D01*
X12855000Y-7937000D02*
X12745000Y-8047000D01*
X12855000Y-7992000D02*
G75*
G03*
X12855000Y-7992000I-55000J0D01*
G01*
X12745000Y-8191000D02*
X12855000Y-8301000D01*
X12855000Y-8191000D02*
X12745000Y-8301000D01*
X12855000Y-8246000D02*
G75*
G03*
X12855000Y-8246000I-55000J0D01*
G01*
X12745000Y-8445000D02*
X12855000Y-8555000D01*
X12855000Y-8445000D02*
X12745000Y-8555000D01*
X12855000Y-8500000D02*
G75*
G03*
X12855000Y-8500000I-55000J0D01*
G01*
X12745000Y-9037000D02*
X12855000Y-9147000D01*
X12855000Y-9037000D02*
X12745000Y-9147000D01*
X12855000Y-9092000D02*
G75*
G03*
X12855000Y-9092000I-55000J0D01*
G01*
X12745000Y-9291000D02*
X12855000Y-9401000D01*
X12855000Y-9291000D02*
X12745000Y-9401000D01*
X12855000Y-9346000D02*
G75*
G03*
X12855000Y-9346000I-55000J0D01*
G01*
X12745000Y-9545000D02*
X12855000Y-9655000D01*
X12855000Y-9545000D02*
X12745000Y-9655000D01*
X12855000Y-9600000D02*
G75*
G03*
X12855000Y-9600000I-55000J0D01*
G01*
X12745000Y-10137000D02*
X12855000Y-10247000D01*
X12855000Y-10137000D02*
X12745000Y-10247000D01*
X12855000Y-10192000D02*
G75*
G03*
X12855000Y-10192000I-55000J0D01*
G01*
X12745000Y-10391000D02*
X12855000Y-10501000D01*
X12855000Y-10391000D02*
X12745000Y-10501000D01*
X12855000Y-10446000D02*
G75*
G03*
X12855000Y-10446000I-55000J0D01*
G01*
X12745000Y-10645000D02*
X12855000Y-10755000D01*
X12855000Y-10645000D02*
X12745000Y-10755000D01*
X12855000Y-10700000D02*
G75*
G03*
X12855000Y-10700000I-55000J0D01*
G01*
X12745000Y-11237000D02*
X12855000Y-11347000D01*
X12855000Y-11237000D02*
X12745000Y-11347000D01*
X12855000Y-11292000D02*
G75*
G03*
X12855000Y-11292000I-55000J0D01*
G01*
X12745000Y-11491000D02*
X12855000Y-11601000D01*
X12855000Y-11491000D02*
X12745000Y-11601000D01*
X12855000Y-11546000D02*
G75*
G03*
X12855000Y-11546000I-55000J0D01*
G01*
X12745000Y-11745000D02*
X12855000Y-11855000D01*
X12855000Y-11745000D02*
X12745000Y-11855000D01*
X12855000Y-11800000D02*
G75*
G03*
X12855000Y-11800000I-55000J0D01*
G01*
X12745000Y-12337000D02*
X12855000Y-12447000D01*
X12855000Y-12337000D02*
X12745000Y-12447000D01*
X12855000Y-12392000D02*
G75*
G03*
X12855000Y-12392000I-55000J0D01*
G01*
X12745000Y-12591000D02*
X12855000Y-12701000D01*
X12855000Y-12591000D02*
X12745000Y-12701000D01*
X12855000Y-12646000D02*
G75*
G03*
X12855000Y-12646000I-55000J0D01*
G01*
X12745000Y-12845000D02*
X12855000Y-12955000D01*
X12855000Y-12845000D02*
X12745000Y-12955000D01*
X12855000Y-12900000D02*
G75*
G03*
X12855000Y-12900000I-55000J0D01*
G01*
X12745000Y-13805000D02*
X12855000Y-13915000D01*
X12855000Y-13805000D02*
X12745000Y-13915000D01*
X12855000Y-13860000D02*
G75*
G03*
X12855000Y-13860000I-55000J0D01*
G01*
X12745000Y-13975000D02*
X12855000Y-14085000D01*
X12855000Y-13975000D02*
X12745000Y-14085000D01*
X12855000Y-14030000D02*
G75*
G03*
X12855000Y-14030000I-55000J0D01*
G01*
X12745000Y-14145000D02*
X12855000Y-14255000D01*
X12855000Y-14145000D02*
X12745000Y-14255000D01*
X12855000Y-14200000D02*
G75*
G03*
X12855000Y-14200000I-55000J0D01*
G01*
X12745000Y-14315000D02*
X12855000Y-14425000D01*
X12855000Y-14315000D02*
X12745000Y-14425000D01*
X12855000Y-14370000D02*
G75*
G03*
X12855000Y-14370000I-55000J0D01*
G01*
X12745000Y-14485000D02*
X12855000Y-14595000D01*
X12855000Y-14485000D02*
X12745000Y-14595000D01*
X12855000Y-14540000D02*
G75*
G03*
X12855000Y-14540000I-55000J0D01*
G01*
D18*
X6790000Y-3540000D02*
X6910000Y-3660000D01*
X6910000Y-3540000D02*
X6790000Y-3660000D01*
X6850000Y-3540000D02*
X6850000Y-3660000D01*
X6790000Y-3600000D02*
X6910000Y-3600000D01*
X6790000Y-5940000D02*
X6910000Y-6060000D01*
X6910000Y-5940000D02*
X6790000Y-6060000D01*
X6850000Y-5940000D02*
X6850000Y-6060000D01*
X6790000Y-6000000D02*
X6910000Y-6000000D01*
X6790000Y-8340000D02*
X6910000Y-8460000D01*
X6910000Y-8340000D02*
X6790000Y-8460000D01*
X6850000Y-8340000D02*
X6850000Y-8460000D01*
X6790000Y-8400000D02*
X6910000Y-8400000D01*
X6790000Y-10740000D02*
X6910000Y-10860000D01*
X6910000Y-10740000D02*
X6790000Y-10860000D01*
X6850000Y-10740000D02*
X6850000Y-10860000D01*
X6790000Y-10800000D02*
X6910000Y-10800000D01*
X6981987Y-3290000D02*
X7101987Y-3410000D01*
X7101987Y-3290000D02*
X6981987Y-3410000D01*
X7041987Y-3290000D02*
X7041987Y-3410000D01*
X6981987Y-3350000D02*
X7101987Y-3350000D01*
X6981987Y-5690000D02*
X7101987Y-5810000D01*
X7101987Y-5690000D02*
X6981987Y-5810000D01*
X7041987Y-5690000D02*
X7041987Y-5810000D01*
X6981987Y-5750000D02*
X7101987Y-5750000D01*
X6981987Y-8090000D02*
X7101987Y-8210000D01*
X7101987Y-8090000D02*
X6981987Y-8210000D01*
X7041987Y-8090000D02*
X7041987Y-8210000D01*
X6981987Y-8150000D02*
X7101987Y-8150000D01*
X6981987Y-10490000D02*
X7101987Y-10610000D01*
X7101987Y-10490000D02*
X6981987Y-10610000D01*
X7041987Y-10490000D02*
X7041987Y-10610000D01*
X6981987Y-10550000D02*
X7101987Y-10550000D01*
X7348013Y-3790000D02*
X7468013Y-3910000D01*
X7468013Y-3790000D02*
X7348013Y-3910000D01*
X7408013Y-3790000D02*
X7408013Y-3910000D01*
X7348013Y-3850000D02*
X7468013Y-3850000D01*
X7348013Y-6190000D02*
X7468013Y-6310000D01*
X7468013Y-6190000D02*
X7348013Y-6310000D01*
X7408013Y-6190000D02*
X7408013Y-6310000D01*
X7348013Y-6250000D02*
X7468013Y-6250000D01*
X7348013Y-8590000D02*
X7468013Y-8710000D01*
X7468013Y-8590000D02*
X7348013Y-8710000D01*
X7408013Y-8590000D02*
X7408013Y-8710000D01*
X7348013Y-8650000D02*
X7468013Y-8650000D01*
X7348013Y-10990000D02*
X7468013Y-11110000D01*
X7468013Y-10990000D02*
X7348013Y-11110000D01*
X7408013Y-10990000D02*
X7408013Y-11110000D01*
X7348013Y-11050000D02*
X7468013Y-11050000D01*
X7540000Y-3540000D02*
X7660000Y-3660000D01*
X7660000Y-3540000D02*
X7540000Y-3660000D01*
X7600000Y-3540000D02*
X7600000Y-3660000D01*
X7540000Y-3600000D02*
X7660000Y-3600000D01*
X7540000Y-5940000D02*
X7660000Y-6060000D01*
X7660000Y-5940000D02*
X7540000Y-6060000D01*
X7600000Y-5940000D02*
X7600000Y-6060000D01*
X7540000Y-6000000D02*
X7660000Y-6000000D01*
X7540000Y-8340000D02*
X7660000Y-8460000D01*
X7660000Y-8340000D02*
X7540000Y-8460000D01*
X7600000Y-8340000D02*
X7600000Y-8460000D01*
X7540000Y-8400000D02*
X7660000Y-8400000D01*
X7540000Y-10740000D02*
X7660000Y-10860000D01*
X7660000Y-10740000D02*
X7540000Y-10860000D01*
X7600000Y-10740000D02*
X7600000Y-10860000D01*
X7540000Y-10800000D02*
X7660000Y-10800000D01*
X8340000Y-4790000D02*
X8460000Y-4910000D01*
X8460000Y-4790000D02*
X8340000Y-4910000D01*
X8400000Y-4790000D02*
X8400000Y-4910000D01*
X8340000Y-4850000D02*
X8460000Y-4850000D01*
X8340000Y-7190000D02*
X8460000Y-7310000D01*
X8460000Y-7190000D02*
X8340000Y-7310000D01*
X8400000Y-7190000D02*
X8400000Y-7310000D01*
X8340000Y-7250000D02*
X8460000Y-7250000D01*
X8340000Y-9590000D02*
X8460000Y-9710000D01*
X8460000Y-9590000D02*
X8340000Y-9710000D01*
X8400000Y-9590000D02*
X8400000Y-9710000D01*
X8340000Y-9650000D02*
X8460000Y-9650000D01*
X8340000Y-11990000D02*
X8460000Y-12110000D01*
X8460000Y-11990000D02*
X8340000Y-12110000D01*
X8400000Y-11990000D02*
X8400000Y-12110000D01*
X8340000Y-12050000D02*
X8460000Y-12050000D01*
X8531987Y-4540000D02*
X8651987Y-4660000D01*
X8651987Y-4540000D02*
X8531987Y-4660000D01*
X8591987Y-4540000D02*
X8591987Y-4660000D01*
X8531987Y-4600000D02*
X8651987Y-4600000D01*
X8531987Y-6940000D02*
X8651987Y-7060000D01*
X8651987Y-6940000D02*
X8531987Y-7060000D01*
X8591987Y-6940000D02*
X8591987Y-7060000D01*
X8531987Y-7000000D02*
X8651987Y-7000000D01*
X8531987Y-9340000D02*
X8651987Y-9460000D01*
X8651987Y-9340000D02*
X8531987Y-9460000D01*
X8591987Y-9340000D02*
X8591987Y-9460000D01*
X8531987Y-9400000D02*
X8651987Y-9400000D01*
X8531987Y-11740000D02*
X8651987Y-11860000D01*
X8651987Y-11740000D02*
X8531987Y-11860000D01*
X8591987Y-11740000D02*
X8591987Y-11860000D01*
X8531987Y-11800000D02*
X8651987Y-11800000D01*
X8898013Y-5040000D02*
X9018013Y-5160000D01*
X9018013Y-5040000D02*
X8898013Y-5160000D01*
X8958013Y-5040000D02*
X8958013Y-5160000D01*
X8898013Y-5100000D02*
X9018013Y-5100000D01*
X8898013Y-7440000D02*
X9018013Y-7560000D01*
X9018013Y-7440000D02*
X8898013Y-7560000D01*
X8958013Y-7440000D02*
X8958013Y-7560000D01*
X8898013Y-7500000D02*
X9018013Y-7500000D01*
X8898013Y-9840000D02*
X9018013Y-9960000D01*
X9018013Y-9840000D02*
X8898013Y-9960000D01*
X8958013Y-9840000D02*
X8958013Y-9960000D01*
X8898013Y-9900000D02*
X9018013Y-9900000D01*
X8898013Y-12240000D02*
X9018013Y-12360000D01*
X9018013Y-12240000D02*
X8898013Y-12360000D01*
X8958013Y-12240000D02*
X8958013Y-12360000D01*
X8898013Y-12300000D02*
X9018013Y-12300000D01*
X9090000Y-4790000D02*
X9210000Y-4910000D01*
X9210000Y-4790000D02*
X9090000Y-4910000D01*
X9150000Y-4790000D02*
X9150000Y-4910000D01*
X9090000Y-4850000D02*
X9210000Y-4850000D01*
X9090000Y-7190000D02*
X9210000Y-7310000D01*
X9210000Y-7190000D02*
X9090000Y-7310000D01*
X9150000Y-7190000D02*
X9150000Y-7310000D01*
X9090000Y-7250000D02*
X9210000Y-7250000D01*
X9090000Y-9590000D02*
X9210000Y-9710000D01*
X9210000Y-9590000D02*
X9090000Y-9710000D01*
X9150000Y-9590000D02*
X9150000Y-9710000D01*
X9090000Y-9650000D02*
X9210000Y-9650000D01*
X9090000Y-11990000D02*
X9210000Y-12110000D01*
X9210000Y-11990000D02*
X9090000Y-12110000D01*
X9150000Y-11990000D02*
X9150000Y-12110000D01*
X9090000Y-12050000D02*
X9210000Y-12050000D01*
D19*
X5235000Y-3285000D02*
X5665000Y-3715000D01*
X5665000Y-3285000D02*
X5235000Y-3715000D01*
X5602029Y-3652029D02*
X5602029Y-3347971D01*
X5297971Y-3347971D01*
X5297971Y-3652029D01*
X5602029Y-3652029D01*
X5235000Y-6085000D02*
X5665000Y-6515000D01*
X5665000Y-6085000D02*
X5235000Y-6515000D01*
X5602029Y-6452029D02*
X5602029Y-6147971D01*
X5297971Y-6147971D01*
X5297971Y-6452029D01*
X5602029Y-6452029D01*
X5235000Y-8885000D02*
X5665000Y-9315000D01*
X5665000Y-8885000D02*
X5235000Y-9315000D01*
X5602029Y-9252029D02*
X5602029Y-8947971D01*
X5297971Y-8947971D01*
X5297971Y-9252029D01*
X5602029Y-9252029D01*
X5235000Y-11685000D02*
X5665000Y-12115000D01*
X5665000Y-11685000D02*
X5235000Y-12115000D01*
X5602029Y-12052029D02*
X5602029Y-11747971D01*
X5297971Y-11747971D01*
X5297971Y-12052029D01*
X5602029Y-12052029D01*
X10335000Y-3285000D02*
X10765000Y-3715000D01*
X10765000Y-3285000D02*
X10335000Y-3715000D01*
X10702029Y-3652029D02*
X10702029Y-3347971D01*
X10397971Y-3347971D01*
X10397971Y-3652029D01*
X10702029Y-3652029D01*
X10335000Y-6085000D02*
X10765000Y-6515000D01*
X10765000Y-6085000D02*
X10335000Y-6515000D01*
X10702029Y-6452029D02*
X10702029Y-6147971D01*
X10397971Y-6147971D01*
X10397971Y-6452029D01*
X10702029Y-6452029D01*
X10335000Y-8885000D02*
X10765000Y-9315000D01*
X10765000Y-8885000D02*
X10335000Y-9315000D01*
X10702029Y-9252029D02*
X10702029Y-8947971D01*
X10397971Y-8947971D01*
X10397971Y-9252029D01*
X10702029Y-9252029D01*
X10335000Y-11685000D02*
X10765000Y-12115000D01*
X10765000Y-11685000D02*
X10335000Y-12115000D01*
X10702029Y-12052029D02*
X10702029Y-11747971D01*
X10397971Y-11747971D01*
X10397971Y-12052029D01*
X10702029Y-12052029D01*
D11*
X2752619Y-18815476D02*
X2752619Y-18615476D01*
X2800238Y-18615476D01*
X2828809Y-18625000D01*
X2847857Y-18644048D01*
X2857381Y-18663095D01*
X2866905Y-18701190D01*
X2866905Y-18729762D01*
X2857381Y-18767857D01*
X2847857Y-18786905D01*
X2828809Y-18805952D01*
X2800238Y-18815476D01*
X2752619Y-18815476D01*
X2952619Y-18815476D02*
X2952619Y-18682143D01*
X2952619Y-18720238D02*
X2962143Y-18701190D01*
X2971667Y-18691667D01*
X2990714Y-18682143D01*
X3009762Y-18682143D01*
X3076428Y-18815476D02*
X3076428Y-18682143D01*
X3076428Y-18615476D02*
X3066905Y-18625000D01*
X3076428Y-18634524D01*
X3085952Y-18625000D01*
X3076428Y-18615476D01*
X3076428Y-18634524D01*
X3200238Y-18815476D02*
X3181190Y-18805952D01*
X3171667Y-18786905D01*
X3171667Y-18615476D01*
X3305000Y-18815476D02*
X3285952Y-18805952D01*
X3276428Y-18786905D01*
X3276428Y-18615476D01*
X3533571Y-18815476D02*
X3533571Y-18615476D01*
X3600238Y-18758333D01*
X3666905Y-18615476D01*
X3666905Y-18815476D01*
X3847857Y-18815476D02*
X3847857Y-18710714D01*
X3838333Y-18691667D01*
X3819286Y-18682143D01*
X3781190Y-18682143D01*
X3762143Y-18691667D01*
X3847857Y-18805952D02*
X3828809Y-18815476D01*
X3781190Y-18815476D01*
X3762143Y-18805952D01*
X3752619Y-18786905D01*
X3752619Y-18767857D01*
X3762143Y-18748810D01*
X3781190Y-18739286D01*
X3828809Y-18739286D01*
X3847857Y-18729762D01*
X3943095Y-18682143D02*
X3943095Y-18882143D01*
X3943095Y-18691667D02*
X3962143Y-18682143D01*
X4000238Y-18682143D01*
X4019286Y-18691667D01*
X4028809Y-18701190D01*
X4038333Y-18720238D01*
X4038333Y-18777381D01*
X4028809Y-18796429D01*
X4019286Y-18805952D01*
X4000238Y-18815476D01*
X3962143Y-18815476D01*
X3943095Y-18805952D01*
X4124048Y-18796429D02*
X4133571Y-18805952D01*
X4124048Y-18815476D01*
X4114524Y-18805952D01*
X4124048Y-18796429D01*
X4124048Y-18815476D01*
X4124048Y-18691667D02*
X4133571Y-18701190D01*
X4124048Y-18710714D01*
X4114524Y-18701190D01*
X4124048Y-18691667D01*
X4124048Y-18710714D01*
D12*
X2455000Y-19125000D02*
X2495000Y-19165000D01*
X2495000Y-19125000D02*
X2455000Y-19165000D01*
D11*
X2790714Y-19035476D02*
X2809762Y-19035476D01*
X2828809Y-19045000D01*
X2838333Y-19054524D01*
X2847857Y-19073571D01*
X2857381Y-19111667D01*
X2857381Y-19159286D01*
X2847857Y-19197381D01*
X2838333Y-19216429D01*
X2828809Y-19225952D01*
X2809762Y-19235476D01*
X2790714Y-19235476D01*
X2771667Y-19225952D01*
X2762143Y-19216429D01*
X2752619Y-19197381D01*
X2743095Y-19159286D01*
X2743095Y-19111667D01*
X2752619Y-19073571D01*
X2762143Y-19054524D01*
X2771667Y-19045000D01*
X2790714Y-19035476D01*
X2943095Y-19216429D02*
X2952619Y-19225952D01*
X2943095Y-19235476D01*
X2933571Y-19225952D01*
X2943095Y-19216429D01*
X2943095Y-19235476D01*
X3124048Y-19102143D02*
X3124048Y-19235476D01*
X3076428Y-19025952D02*
X3028809Y-19168810D01*
X3152619Y-19168810D01*
X3266905Y-19035476D02*
X3285952Y-19035476D01*
X3305000Y-19045000D01*
X3314524Y-19054524D01*
X3324048Y-19073571D01*
X3333571Y-19111667D01*
X3333571Y-19159286D01*
X3324048Y-19197381D01*
X3314524Y-19216429D01*
X3305000Y-19225952D01*
X3285952Y-19235476D01*
X3266905Y-19235476D01*
X3247857Y-19225952D01*
X3238333Y-19216429D01*
X3228809Y-19197381D01*
X3219286Y-19159286D01*
X3219286Y-19111667D01*
X3228809Y-19073571D01*
X3238333Y-19054524D01*
X3247857Y-19045000D01*
X3266905Y-19035476D01*
X3457381Y-19035476D02*
X3476428Y-19035476D01*
X3495476Y-19045000D01*
X3505000Y-19054524D01*
X3514524Y-19073571D01*
X3524048Y-19111667D01*
X3524048Y-19159286D01*
X3514524Y-19197381D01*
X3505000Y-19216429D01*
X3495476Y-19225952D01*
X3476428Y-19235476D01*
X3457381Y-19235476D01*
X3438333Y-19225952D01*
X3428809Y-19216429D01*
X3419286Y-19197381D01*
X3409762Y-19159286D01*
X3409762Y-19111667D01*
X3419286Y-19073571D01*
X3428809Y-19054524D01*
X3438333Y-19045000D01*
X3457381Y-19035476D01*
X3609762Y-19235476D02*
X3609762Y-19102143D01*
X3609762Y-19121190D02*
X3619286Y-19111667D01*
X3638333Y-19102143D01*
X3666905Y-19102143D01*
X3685952Y-19111667D01*
X3695476Y-19130714D01*
X3695476Y-19235476D01*
X3695476Y-19130714D02*
X3705000Y-19111667D01*
X3724048Y-19102143D01*
X3752619Y-19102143D01*
X3771667Y-19111667D01*
X3781190Y-19130714D01*
X3781190Y-19235476D01*
X3876428Y-19235476D02*
X3876428Y-19102143D01*
X3876428Y-19121190D02*
X3885952Y-19111667D01*
X3905000Y-19102143D01*
X3933571Y-19102143D01*
X3952619Y-19111667D01*
X3962143Y-19130714D01*
X3962143Y-19235476D01*
X3962143Y-19130714D02*
X3971667Y-19111667D01*
X3990714Y-19102143D01*
X4019286Y-19102143D01*
X4038333Y-19111667D01*
X4047857Y-19130714D01*
X4047857Y-19235476D01*
X4438333Y-19025952D02*
X4266905Y-19283095D01*
X4695476Y-19035476D02*
X4714524Y-19035476D01*
X4733571Y-19045000D01*
X4743095Y-19054524D01*
X4752619Y-19073571D01*
X4762143Y-19111667D01*
X4762143Y-19159286D01*
X4752619Y-19197381D01*
X4743095Y-19216429D01*
X4733571Y-19225952D01*
X4714524Y-19235476D01*
X4695476Y-19235476D01*
X4676429Y-19225952D01*
X4666905Y-19216429D01*
X4657381Y-19197381D01*
X4647857Y-19159286D01*
X4647857Y-19111667D01*
X4657381Y-19073571D01*
X4666905Y-19054524D01*
X4676429Y-19045000D01*
X4695476Y-19035476D01*
X4847857Y-19216429D02*
X4857381Y-19225952D01*
X4847857Y-19235476D01*
X4838333Y-19225952D01*
X4847857Y-19216429D01*
X4847857Y-19235476D01*
X4981190Y-19035476D02*
X5000238Y-19035476D01*
X5019286Y-19045000D01*
X5028810Y-19054524D01*
X5038333Y-19073571D01*
X5047857Y-19111667D01*
X5047857Y-19159286D01*
X5038333Y-19197381D01*
X5028810Y-19216429D01*
X5019286Y-19225952D01*
X5000238Y-19235476D01*
X4981190Y-19235476D01*
X4962143Y-19225952D01*
X4952619Y-19216429D01*
X4943095Y-19197381D01*
X4933571Y-19159286D01*
X4933571Y-19111667D01*
X4943095Y-19073571D01*
X4952619Y-19054524D01*
X4962143Y-19045000D01*
X4981190Y-19035476D01*
X5238333Y-19235476D02*
X5124048Y-19235476D01*
X5181190Y-19235476D02*
X5181190Y-19035476D01*
X5162143Y-19064048D01*
X5143095Y-19083095D01*
X5124048Y-19092619D01*
X5419286Y-19035476D02*
X5324048Y-19035476D01*
X5314524Y-19130714D01*
X5324048Y-19121190D01*
X5343095Y-19111667D01*
X5390714Y-19111667D01*
X5409762Y-19121190D01*
X5419286Y-19130714D01*
X5428810Y-19149762D01*
X5428810Y-19197381D01*
X5419286Y-19216429D01*
X5409762Y-19225952D01*
X5390714Y-19235476D01*
X5343095Y-19235476D01*
X5324048Y-19225952D01*
X5314524Y-19216429D01*
X5495476Y-19035476D02*
X5628809Y-19035476D01*
X5543095Y-19235476D01*
X5695476Y-19035476D02*
X5695476Y-19073571D01*
X5771667Y-19035476D02*
X5771667Y-19073571D01*
X6066905Y-19311667D02*
X6057381Y-19302143D01*
X6038333Y-19273571D01*
X6028809Y-19254524D01*
X6019286Y-19225952D01*
X6009762Y-19178333D01*
X6009762Y-19140238D01*
X6019286Y-19092619D01*
X6028809Y-19064048D01*
X6038333Y-19045000D01*
X6057381Y-19016429D01*
X6066905Y-19006905D01*
X6247857Y-19235476D02*
X6133571Y-19235476D01*
X6190714Y-19235476D02*
X6190714Y-19035476D01*
X6171667Y-19064048D01*
X6152619Y-19083095D01*
X6133571Y-19092619D01*
X6419286Y-19035476D02*
X6381190Y-19035476D01*
X6362143Y-19045000D01*
X6352619Y-19054524D01*
X6333571Y-19083095D01*
X6324048Y-19121190D01*
X6324048Y-19197381D01*
X6333571Y-19216429D01*
X6343095Y-19225952D01*
X6362143Y-19235476D01*
X6400238Y-19235476D01*
X6419286Y-19225952D01*
X6428809Y-19216429D01*
X6438333Y-19197381D01*
X6438333Y-19149762D01*
X6428809Y-19130714D01*
X6419286Y-19121190D01*
X6400238Y-19111667D01*
X6362143Y-19111667D01*
X6343095Y-19121190D01*
X6333571Y-19130714D01*
X6324048Y-19149762D01*
X6619286Y-19035476D02*
X6524048Y-19035476D01*
X6514524Y-19130714D01*
X6524048Y-19121190D01*
X6543095Y-19111667D01*
X6590714Y-19111667D01*
X6609762Y-19121190D01*
X6619286Y-19130714D01*
X6628809Y-19149762D01*
X6628809Y-19197381D01*
X6619286Y-19216429D01*
X6609762Y-19225952D01*
X6590714Y-19235476D01*
X6543095Y-19235476D01*
X6524048Y-19225952D01*
X6514524Y-19216429D01*
X6866905Y-19235476D02*
X6866905Y-19035476D01*
X6952619Y-19235476D02*
X6952619Y-19130714D01*
X6943095Y-19111667D01*
X6924048Y-19102143D01*
X6895476Y-19102143D01*
X6876428Y-19111667D01*
X6866905Y-19121190D01*
X7076428Y-19235476D02*
X7057381Y-19225952D01*
X7047857Y-19216429D01*
X7038333Y-19197381D01*
X7038333Y-19140238D01*
X7047857Y-19121190D01*
X7057381Y-19111667D01*
X7076428Y-19102143D01*
X7105000Y-19102143D01*
X7124048Y-19111667D01*
X7133571Y-19121190D01*
X7143095Y-19140238D01*
X7143095Y-19197381D01*
X7133571Y-19216429D01*
X7124048Y-19225952D01*
X7105000Y-19235476D01*
X7076428Y-19235476D01*
X7257381Y-19235476D02*
X7238333Y-19225952D01*
X7228809Y-19206905D01*
X7228809Y-19035476D01*
X7409762Y-19225952D02*
X7390714Y-19235476D01*
X7352619Y-19235476D01*
X7333571Y-19225952D01*
X7324048Y-19206905D01*
X7324048Y-19130714D01*
X7333571Y-19111667D01*
X7352619Y-19102143D01*
X7390714Y-19102143D01*
X7409762Y-19111667D01*
X7419286Y-19130714D01*
X7419286Y-19149762D01*
X7324048Y-19168810D01*
X7495476Y-19225952D02*
X7514524Y-19235476D01*
X7552619Y-19235476D01*
X7571667Y-19225952D01*
X7581190Y-19206905D01*
X7581190Y-19197381D01*
X7571667Y-19178333D01*
X7552619Y-19168810D01*
X7524048Y-19168810D01*
X7505000Y-19159286D01*
X7495476Y-19140238D01*
X7495476Y-19130714D01*
X7505000Y-19111667D01*
X7524048Y-19102143D01*
X7552619Y-19102143D01*
X7571667Y-19111667D01*
X7647857Y-19311667D02*
X7657381Y-19302143D01*
X7676428Y-19273571D01*
X7685952Y-19254524D01*
X7695476Y-19225952D01*
X7705000Y-19178333D01*
X7705000Y-19140238D01*
X7695476Y-19092619D01*
X7685952Y-19064048D01*
X7676428Y-19045000D01*
X7657381Y-19016429D01*
X7647857Y-19006905D01*
D13*
X2495000Y-19409000D02*
G75*
G03*
X2495000Y-19409000I-30000J0D01*
G01*
D11*
X2790714Y-19299476D02*
X2809762Y-19299476D01*
X2828809Y-19309000D01*
X2838333Y-19318524D01*
X2847857Y-19337571D01*
X2857381Y-19375667D01*
X2857381Y-19423286D01*
X2847857Y-19461381D01*
X2838333Y-19480429D01*
X2828809Y-19489952D01*
X2809762Y-19499476D01*
X2790714Y-19499476D01*
X2771667Y-19489952D01*
X2762143Y-19480429D01*
X2752619Y-19461381D01*
X2743095Y-19423286D01*
X2743095Y-19375667D01*
X2752619Y-19337571D01*
X2762143Y-19318524D01*
X2771667Y-19309000D01*
X2790714Y-19299476D01*
X2943095Y-19480429D02*
X2952619Y-19489952D01*
X2943095Y-19499476D01*
X2933571Y-19489952D01*
X2943095Y-19480429D01*
X2943095Y-19499476D01*
X3124048Y-19299476D02*
X3085952Y-19299476D01*
X3066905Y-19309000D01*
X3057381Y-19318524D01*
X3038333Y-19347095D01*
X3028809Y-19385190D01*
X3028809Y-19461381D01*
X3038333Y-19480429D01*
X3047857Y-19489952D01*
X3066905Y-19499476D01*
X3105000Y-19499476D01*
X3124048Y-19489952D01*
X3133571Y-19480429D01*
X3143095Y-19461381D01*
X3143095Y-19413762D01*
X3133571Y-19394714D01*
X3124048Y-19385190D01*
X3105000Y-19375667D01*
X3066905Y-19375667D01*
X3047857Y-19385190D01*
X3038333Y-19394714D01*
X3028809Y-19413762D01*
X3266905Y-19299476D02*
X3285952Y-19299476D01*
X3305000Y-19309000D01*
X3314524Y-19318524D01*
X3324048Y-19337571D01*
X3333571Y-19375667D01*
X3333571Y-19423286D01*
X3324048Y-19461381D01*
X3314524Y-19480429D01*
X3305000Y-19489952D01*
X3285952Y-19499476D01*
X3266905Y-19499476D01*
X3247857Y-19489952D01*
X3238333Y-19480429D01*
X3228809Y-19461381D01*
X3219286Y-19423286D01*
X3219286Y-19375667D01*
X3228809Y-19337571D01*
X3238333Y-19318524D01*
X3247857Y-19309000D01*
X3266905Y-19299476D01*
X3457381Y-19299476D02*
X3476428Y-19299476D01*
X3495476Y-19309000D01*
X3505000Y-19318524D01*
X3514524Y-19337571D01*
X3524048Y-19375667D01*
X3524048Y-19423286D01*
X3514524Y-19461381D01*
X3505000Y-19480429D01*
X3495476Y-19489952D01*
X3476428Y-19499476D01*
X3457381Y-19499476D01*
X3438333Y-19489952D01*
X3428809Y-19480429D01*
X3419286Y-19461381D01*
X3409762Y-19423286D01*
X3409762Y-19375667D01*
X3419286Y-19337571D01*
X3428809Y-19318524D01*
X3438333Y-19309000D01*
X3457381Y-19299476D01*
X3609762Y-19499476D02*
X3609762Y-19366143D01*
X3609762Y-19385190D02*
X3619286Y-19375667D01*
X3638333Y-19366143D01*
X3666905Y-19366143D01*
X3685952Y-19375667D01*
X3695476Y-19394714D01*
X3695476Y-19499476D01*
X3695476Y-19394714D02*
X3705000Y-19375667D01*
X3724048Y-19366143D01*
X3752619Y-19366143D01*
X3771667Y-19375667D01*
X3781190Y-19394714D01*
X3781190Y-19499476D01*
X3876428Y-19499476D02*
X3876428Y-19366143D01*
X3876428Y-19385190D02*
X3885952Y-19375667D01*
X3905000Y-19366143D01*
X3933571Y-19366143D01*
X3952619Y-19375667D01*
X3962143Y-19394714D01*
X3962143Y-19499476D01*
X3962143Y-19394714D02*
X3971667Y-19375667D01*
X3990714Y-19366143D01*
X4019286Y-19366143D01*
X4038333Y-19375667D01*
X4047857Y-19394714D01*
X4047857Y-19499476D01*
X4438333Y-19289952D02*
X4266905Y-19547095D01*
X4695476Y-19299476D02*
X4714524Y-19299476D01*
X4733571Y-19309000D01*
X4743095Y-19318524D01*
X4752619Y-19337571D01*
X4762143Y-19375667D01*
X4762143Y-19423286D01*
X4752619Y-19461381D01*
X4743095Y-19480429D01*
X4733571Y-19489952D01*
X4714524Y-19499476D01*
X4695476Y-19499476D01*
X4676429Y-19489952D01*
X4666905Y-19480429D01*
X4657381Y-19461381D01*
X4647857Y-19423286D01*
X4647857Y-19375667D01*
X4657381Y-19337571D01*
X4666905Y-19318524D01*
X4676429Y-19309000D01*
X4695476Y-19299476D01*
X4847857Y-19480429D02*
X4857381Y-19489952D01*
X4847857Y-19499476D01*
X4838333Y-19489952D01*
X4847857Y-19480429D01*
X4847857Y-19499476D01*
X4981190Y-19299476D02*
X5000238Y-19299476D01*
X5019286Y-19309000D01*
X5028810Y-19318524D01*
X5038333Y-19337571D01*
X5047857Y-19375667D01*
X5047857Y-19423286D01*
X5038333Y-19461381D01*
X5028810Y-19480429D01*
X5019286Y-19489952D01*
X5000238Y-19499476D01*
X4981190Y-19499476D01*
X4962143Y-19489952D01*
X4952619Y-19480429D01*
X4943095Y-19461381D01*
X4933571Y-19423286D01*
X4933571Y-19375667D01*
X4943095Y-19337571D01*
X4952619Y-19318524D01*
X4962143Y-19309000D01*
X4981190Y-19299476D01*
X5124048Y-19318524D02*
X5133571Y-19309000D01*
X5152619Y-19299476D01*
X5200238Y-19299476D01*
X5219286Y-19309000D01*
X5228810Y-19318524D01*
X5238333Y-19337571D01*
X5238333Y-19356619D01*
X5228810Y-19385190D01*
X5114524Y-19499476D01*
X5238333Y-19499476D01*
X5305000Y-19299476D02*
X5428810Y-19299476D01*
X5362143Y-19375667D01*
X5390714Y-19375667D01*
X5409762Y-19385190D01*
X5419286Y-19394714D01*
X5428810Y-19413762D01*
X5428810Y-19461381D01*
X5419286Y-19480429D01*
X5409762Y-19489952D01*
X5390714Y-19499476D01*
X5333571Y-19499476D01*
X5314524Y-19489952D01*
X5305000Y-19480429D01*
X5600238Y-19299476D02*
X5562143Y-19299476D01*
X5543095Y-19309000D01*
X5533571Y-19318524D01*
X5514524Y-19347095D01*
X5505000Y-19385190D01*
X5505000Y-19461381D01*
X5514524Y-19480429D01*
X5524048Y-19489952D01*
X5543095Y-19499476D01*
X5581190Y-19499476D01*
X5600238Y-19489952D01*
X5609762Y-19480429D01*
X5619286Y-19461381D01*
X5619286Y-19413762D01*
X5609762Y-19394714D01*
X5600238Y-19385190D01*
X5581190Y-19375667D01*
X5543095Y-19375667D01*
X5524048Y-19385190D01*
X5514524Y-19394714D01*
X5505000Y-19413762D01*
X5695476Y-19299476D02*
X5695476Y-19337571D01*
X5771667Y-19299476D02*
X5771667Y-19337571D01*
X6066905Y-19575667D02*
X6057381Y-19566143D01*
X6038333Y-19537571D01*
X6028809Y-19518524D01*
X6019286Y-19489952D01*
X6009762Y-19442333D01*
X6009762Y-19404238D01*
X6019286Y-19356619D01*
X6028809Y-19328048D01*
X6038333Y-19309000D01*
X6057381Y-19280429D01*
X6066905Y-19270905D01*
X6181190Y-19299476D02*
X6200238Y-19299476D01*
X6219286Y-19309000D01*
X6228809Y-19318524D01*
X6238333Y-19337571D01*
X6247857Y-19375667D01*
X6247857Y-19423286D01*
X6238333Y-19461381D01*
X6228809Y-19480429D01*
X6219286Y-19489952D01*
X6200238Y-19499476D01*
X6181190Y-19499476D01*
X6162143Y-19489952D01*
X6152619Y-19480429D01*
X6143095Y-19461381D01*
X6133571Y-19423286D01*
X6133571Y-19375667D01*
X6143095Y-19337571D01*
X6152619Y-19318524D01*
X6162143Y-19309000D01*
X6181190Y-19299476D01*
X6485952Y-19499476D02*
X6485952Y-19299476D01*
X6571667Y-19499476D02*
X6571667Y-19394714D01*
X6562143Y-19375667D01*
X6543095Y-19366143D01*
X6514524Y-19366143D01*
X6495476Y-19375667D01*
X6485952Y-19385190D01*
X6695476Y-19499476D02*
X6676428Y-19489952D01*
X6666905Y-19480429D01*
X6657381Y-19461381D01*
X6657381Y-19404238D01*
X6666905Y-19385190D01*
X6676428Y-19375667D01*
X6695476Y-19366143D01*
X6724048Y-19366143D01*
X6743095Y-19375667D01*
X6752619Y-19385190D01*
X6762143Y-19404238D01*
X6762143Y-19461381D01*
X6752619Y-19480429D01*
X6743095Y-19489952D01*
X6724048Y-19499476D01*
X6695476Y-19499476D01*
X6876428Y-19499476D02*
X6857381Y-19489952D01*
X6847857Y-19470905D01*
X6847857Y-19299476D01*
X7028809Y-19489952D02*
X7009762Y-19499476D01*
X6971667Y-19499476D01*
X6952619Y-19489952D01*
X6943095Y-19470905D01*
X6943095Y-19394714D01*
X6952619Y-19375667D01*
X6971667Y-19366143D01*
X7009762Y-19366143D01*
X7028809Y-19375667D01*
X7038333Y-19394714D01*
X7038333Y-19413762D01*
X6943095Y-19432810D01*
X7114524Y-19489952D02*
X7133571Y-19499476D01*
X7171667Y-19499476D01*
X7190714Y-19489952D01*
X7200238Y-19470905D01*
X7200238Y-19461381D01*
X7190714Y-19442333D01*
X7171667Y-19432810D01*
X7143095Y-19432810D01*
X7124048Y-19423286D01*
X7114524Y-19404238D01*
X7114524Y-19394714D01*
X7124048Y-19375667D01*
X7143095Y-19366143D01*
X7171667Y-19366143D01*
X7190714Y-19375667D01*
X7438333Y-19423286D02*
X7590714Y-19423286D01*
X7514524Y-19499476D02*
X7514524Y-19347095D01*
X7924048Y-19366143D02*
X7924048Y-19499476D01*
X7876428Y-19289952D02*
X7828809Y-19432810D01*
X7952619Y-19432810D01*
X8171667Y-19489952D02*
X8190714Y-19499476D01*
X8228809Y-19499476D01*
X8247857Y-19489952D01*
X8257381Y-19470905D01*
X8257381Y-19461381D01*
X8247857Y-19442333D01*
X8228809Y-19432810D01*
X8200238Y-19432810D01*
X8181190Y-19423286D01*
X8171667Y-19404238D01*
X8171667Y-19394714D01*
X8181190Y-19375667D01*
X8200238Y-19366143D01*
X8228809Y-19366143D01*
X8247857Y-19375667D01*
X8371667Y-19499476D02*
X8352619Y-19489952D01*
X8343095Y-19470905D01*
X8343095Y-19299476D01*
X8476429Y-19499476D02*
X8457381Y-19489952D01*
X8447857Y-19480429D01*
X8438333Y-19461381D01*
X8438333Y-19404238D01*
X8447857Y-19385190D01*
X8457381Y-19375667D01*
X8476429Y-19366143D01*
X8505000Y-19366143D01*
X8524048Y-19375667D01*
X8533571Y-19385190D01*
X8543095Y-19404238D01*
X8543095Y-19461381D01*
X8533571Y-19480429D01*
X8524048Y-19489952D01*
X8505000Y-19499476D01*
X8476429Y-19499476D01*
X8600238Y-19366143D02*
X8676429Y-19366143D01*
X8628810Y-19299476D02*
X8628810Y-19470905D01*
X8638333Y-19489952D01*
X8657381Y-19499476D01*
X8676429Y-19499476D01*
X8733571Y-19489952D02*
X8752619Y-19499476D01*
X8790714Y-19499476D01*
X8809762Y-19489952D01*
X8819286Y-19470905D01*
X8819286Y-19461381D01*
X8809762Y-19442333D01*
X8790714Y-19432810D01*
X8762143Y-19432810D01*
X8743095Y-19423286D01*
X8733571Y-19404238D01*
X8733571Y-19394714D01*
X8743095Y-19375667D01*
X8762143Y-19366143D01*
X8790714Y-19366143D01*
X8809762Y-19375667D01*
X8885952Y-19575667D02*
X8895476Y-19566143D01*
X8914524Y-19537571D01*
X8924048Y-19518524D01*
X8933571Y-19489952D01*
X8943095Y-19442333D01*
X8943095Y-19404238D01*
X8933571Y-19356619D01*
X8924048Y-19328048D01*
X8914524Y-19309000D01*
X8895476Y-19280429D01*
X8885952Y-19270905D01*
D14*
X2455000Y-19633000D02*
X2455000Y-19713000D01*
X2415000Y-19673000D02*
X2495000Y-19673000D01*
D11*
X2790714Y-19563476D02*
X2809762Y-19563476D01*
X2828809Y-19573000D01*
X2838333Y-19582524D01*
X2847857Y-19601571D01*
X2857381Y-19639667D01*
X2857381Y-19687286D01*
X2847857Y-19725381D01*
X2838333Y-19744429D01*
X2828809Y-19753952D01*
X2809762Y-19763476D01*
X2790714Y-19763476D01*
X2771667Y-19753952D01*
X2762143Y-19744429D01*
X2752619Y-19725381D01*
X2743095Y-19687286D01*
X2743095Y-19639667D01*
X2752619Y-19601571D01*
X2762143Y-19582524D01*
X2771667Y-19573000D01*
X2790714Y-19563476D01*
X2943095Y-19744429D02*
X2952619Y-19753952D01*
X2943095Y-19763476D01*
X2933571Y-19753952D01*
X2943095Y-19744429D01*
X2943095Y-19763476D01*
X3066905Y-19649190D02*
X3047857Y-19639667D01*
X3038333Y-19630143D01*
X3028809Y-19611095D01*
X3028809Y-19601571D01*
X3038333Y-19582524D01*
X3047857Y-19573000D01*
X3066905Y-19563476D01*
X3105000Y-19563476D01*
X3124048Y-19573000D01*
X3133571Y-19582524D01*
X3143095Y-19601571D01*
X3143095Y-19611095D01*
X3133571Y-19630143D01*
X3124048Y-19639667D01*
X3105000Y-19649190D01*
X3066905Y-19649190D01*
X3047857Y-19658714D01*
X3038333Y-19668238D01*
X3028809Y-19687286D01*
X3028809Y-19725381D01*
X3038333Y-19744429D01*
X3047857Y-19753952D01*
X3066905Y-19763476D01*
X3105000Y-19763476D01*
X3124048Y-19753952D01*
X3133571Y-19744429D01*
X3143095Y-19725381D01*
X3143095Y-19687286D01*
X3133571Y-19668238D01*
X3124048Y-19658714D01*
X3105000Y-19649190D01*
X3266905Y-19563476D02*
X3285952Y-19563476D01*
X3305000Y-19573000D01*
X3314524Y-19582524D01*
X3324048Y-19601571D01*
X3333571Y-19639667D01*
X3333571Y-19687286D01*
X3324048Y-19725381D01*
X3314524Y-19744429D01*
X3305000Y-19753952D01*
X3285952Y-19763476D01*
X3266905Y-19763476D01*
X3247857Y-19753952D01*
X3238333Y-19744429D01*
X3228809Y-19725381D01*
X3219286Y-19687286D01*
X3219286Y-19639667D01*
X3228809Y-19601571D01*
X3238333Y-19582524D01*
X3247857Y-19573000D01*
X3266905Y-19563476D01*
X3457381Y-19563476D02*
X3476428Y-19563476D01*
X3495476Y-19573000D01*
X3505000Y-19582524D01*
X3514524Y-19601571D01*
X3524048Y-19639667D01*
X3524048Y-19687286D01*
X3514524Y-19725381D01*
X3505000Y-19744429D01*
X3495476Y-19753952D01*
X3476428Y-19763476D01*
X3457381Y-19763476D01*
X3438333Y-19753952D01*
X3428809Y-19744429D01*
X3419286Y-19725381D01*
X3409762Y-19687286D01*
X3409762Y-19639667D01*
X3419286Y-19601571D01*
X3428809Y-19582524D01*
X3438333Y-19573000D01*
X3457381Y-19563476D01*
X3609762Y-19763476D02*
X3609762Y-19630143D01*
X3609762Y-19649190D02*
X3619286Y-19639667D01*
X3638333Y-19630143D01*
X3666905Y-19630143D01*
X3685952Y-19639667D01*
X3695476Y-19658714D01*
X3695476Y-19763476D01*
X3695476Y-19658714D02*
X3705000Y-19639667D01*
X3724048Y-19630143D01*
X3752619Y-19630143D01*
X3771667Y-19639667D01*
X3781190Y-19658714D01*
X3781190Y-19763476D01*
X3876428Y-19763476D02*
X3876428Y-19630143D01*
X3876428Y-19649190D02*
X3885952Y-19639667D01*
X3905000Y-19630143D01*
X3933571Y-19630143D01*
X3952619Y-19639667D01*
X3962143Y-19658714D01*
X3962143Y-19763476D01*
X3962143Y-19658714D02*
X3971667Y-19639667D01*
X3990714Y-19630143D01*
X4019286Y-19630143D01*
X4038333Y-19639667D01*
X4047857Y-19658714D01*
X4047857Y-19763476D01*
X4438333Y-19553952D02*
X4266905Y-19811095D01*
X4695476Y-19563476D02*
X4714524Y-19563476D01*
X4733571Y-19573000D01*
X4743095Y-19582524D01*
X4752619Y-19601571D01*
X4762143Y-19639667D01*
X4762143Y-19687286D01*
X4752619Y-19725381D01*
X4743095Y-19744429D01*
X4733571Y-19753952D01*
X4714524Y-19763476D01*
X4695476Y-19763476D01*
X4676429Y-19753952D01*
X4666905Y-19744429D01*
X4657381Y-19725381D01*
X4647857Y-19687286D01*
X4647857Y-19639667D01*
X4657381Y-19601571D01*
X4666905Y-19582524D01*
X4676429Y-19573000D01*
X4695476Y-19563476D01*
X4847857Y-19744429D02*
X4857381Y-19753952D01*
X4847857Y-19763476D01*
X4838333Y-19753952D01*
X4847857Y-19744429D01*
X4847857Y-19763476D01*
X4981190Y-19563476D02*
X5000238Y-19563476D01*
X5019286Y-19573000D01*
X5028810Y-19582524D01*
X5038333Y-19601571D01*
X5047857Y-19639667D01*
X5047857Y-19687286D01*
X5038333Y-19725381D01*
X5028810Y-19744429D01*
X5019286Y-19753952D01*
X5000238Y-19763476D01*
X4981190Y-19763476D01*
X4962143Y-19753952D01*
X4952619Y-19744429D01*
X4943095Y-19725381D01*
X4933571Y-19687286D01*
X4933571Y-19639667D01*
X4943095Y-19601571D01*
X4952619Y-19582524D01*
X4962143Y-19573000D01*
X4981190Y-19563476D01*
X5114524Y-19563476D02*
X5238333Y-19563476D01*
X5171667Y-19639667D01*
X5200238Y-19639667D01*
X5219286Y-19649190D01*
X5228810Y-19658714D01*
X5238333Y-19677762D01*
X5238333Y-19725381D01*
X5228810Y-19744429D01*
X5219286Y-19753952D01*
X5200238Y-19763476D01*
X5143095Y-19763476D01*
X5124048Y-19753952D01*
X5114524Y-19744429D01*
X5428810Y-19763476D02*
X5314524Y-19763476D01*
X5371667Y-19763476D02*
X5371667Y-19563476D01*
X5352619Y-19592048D01*
X5333571Y-19611095D01*
X5314524Y-19620619D01*
X5609762Y-19563476D02*
X5514524Y-19563476D01*
X5505000Y-19658714D01*
X5514524Y-19649190D01*
X5533571Y-19639667D01*
X5581190Y-19639667D01*
X5600238Y-19649190D01*
X5609762Y-19658714D01*
X5619286Y-19677762D01*
X5619286Y-19725381D01*
X5609762Y-19744429D01*
X5600238Y-19753952D01*
X5581190Y-19763476D01*
X5533571Y-19763476D01*
X5514524Y-19753952D01*
X5505000Y-19744429D01*
X5695476Y-19563476D02*
X5695476Y-19601571D01*
X5771667Y-19563476D02*
X5771667Y-19601571D01*
X6066905Y-19839667D02*
X6057381Y-19830143D01*
X6038333Y-19801571D01*
X6028809Y-19782524D01*
X6019286Y-19753952D01*
X6009762Y-19706333D01*
X6009762Y-19668238D01*
X6019286Y-19620619D01*
X6028809Y-19592048D01*
X6038333Y-19573000D01*
X6057381Y-19544429D01*
X6066905Y-19534905D01*
X6228809Y-19563476D02*
X6190714Y-19563476D01*
X6171667Y-19573000D01*
X6162143Y-19582524D01*
X6143095Y-19611095D01*
X6133571Y-19649190D01*
X6133571Y-19725381D01*
X6143095Y-19744429D01*
X6152619Y-19753952D01*
X6171667Y-19763476D01*
X6209762Y-19763476D01*
X6228809Y-19753952D01*
X6238333Y-19744429D01*
X6247857Y-19725381D01*
X6247857Y-19677762D01*
X6238333Y-19658714D01*
X6228809Y-19649190D01*
X6209762Y-19639667D01*
X6171667Y-19639667D01*
X6152619Y-19649190D01*
X6143095Y-19658714D01*
X6133571Y-19677762D01*
X6485952Y-19763476D02*
X6485952Y-19563476D01*
X6571667Y-19763476D02*
X6571667Y-19658714D01*
X6562143Y-19639667D01*
X6543095Y-19630143D01*
X6514524Y-19630143D01*
X6495476Y-19639667D01*
X6485952Y-19649190D01*
X6695476Y-19763476D02*
X6676428Y-19753952D01*
X6666905Y-19744429D01*
X6657381Y-19725381D01*
X6657381Y-19668238D01*
X6666905Y-19649190D01*
X6676428Y-19639667D01*
X6695476Y-19630143D01*
X6724048Y-19630143D01*
X6743095Y-19639667D01*
X6752619Y-19649190D01*
X6762143Y-19668238D01*
X6762143Y-19725381D01*
X6752619Y-19744429D01*
X6743095Y-19753952D01*
X6724048Y-19763476D01*
X6695476Y-19763476D01*
X6876428Y-19763476D02*
X6857381Y-19753952D01*
X6847857Y-19734905D01*
X6847857Y-19563476D01*
X7028809Y-19753952D02*
X7009762Y-19763476D01*
X6971667Y-19763476D01*
X6952619Y-19753952D01*
X6943095Y-19734905D01*
X6943095Y-19658714D01*
X6952619Y-19639667D01*
X6971667Y-19630143D01*
X7009762Y-19630143D01*
X7028809Y-19639667D01*
X7038333Y-19658714D01*
X7038333Y-19677762D01*
X6943095Y-19696810D01*
X7114524Y-19753952D02*
X7133571Y-19763476D01*
X7171667Y-19763476D01*
X7190714Y-19753952D01*
X7200238Y-19734905D01*
X7200238Y-19725381D01*
X7190714Y-19706333D01*
X7171667Y-19696810D01*
X7143095Y-19696810D01*
X7124048Y-19687286D01*
X7114524Y-19668238D01*
X7114524Y-19658714D01*
X7124048Y-19639667D01*
X7143095Y-19630143D01*
X7171667Y-19630143D01*
X7190714Y-19639667D01*
X7266905Y-19839667D02*
X7276428Y-19830143D01*
X7295476Y-19801571D01*
X7305000Y-19782524D01*
X7314524Y-19753952D01*
X7324048Y-19706333D01*
X7324048Y-19668238D01*
X7314524Y-19620619D01*
X7305000Y-19592048D01*
X7295476Y-19573000D01*
X7276428Y-19544429D01*
X7266905Y-19534905D01*
D15*
X2481088Y-19970588D02*
X2481088Y-19903412D01*
X2413912Y-19903412D01*
X2413912Y-19970588D01*
X2481088Y-19970588D01*
D11*
X2790714Y-19827476D02*
X2809762Y-19827476D01*
X2828809Y-19837000D01*
X2838333Y-19846524D01*
X2847857Y-19865571D01*
X2857381Y-19903667D01*
X2857381Y-19951286D01*
X2847857Y-19989381D01*
X2838333Y-20008429D01*
X2828809Y-20017952D01*
X2809762Y-20027476D01*
X2790714Y-20027476D01*
X2771667Y-20017952D01*
X2762143Y-20008429D01*
X2752619Y-19989381D01*
X2743095Y-19951286D01*
X2743095Y-19903667D01*
X2752619Y-19865571D01*
X2762143Y-19846524D01*
X2771667Y-19837000D01*
X2790714Y-19827476D01*
X2943095Y-20008429D02*
X2952619Y-20017952D01*
X2943095Y-20027476D01*
X2933571Y-20017952D01*
X2943095Y-20008429D01*
X2943095Y-20027476D01*
X3047857Y-20027476D02*
X3085952Y-20027476D01*
X3105000Y-20017952D01*
X3114524Y-20008429D01*
X3133571Y-19979857D01*
X3143095Y-19941762D01*
X3143095Y-19865571D01*
X3133571Y-19846524D01*
X3124048Y-19837000D01*
X3105000Y-19827476D01*
X3066905Y-19827476D01*
X3047857Y-19837000D01*
X3038333Y-19846524D01*
X3028809Y-19865571D01*
X3028809Y-19913190D01*
X3038333Y-19932238D01*
X3047857Y-19941762D01*
X3066905Y-19951286D01*
X3105000Y-19951286D01*
X3124048Y-19941762D01*
X3133571Y-19932238D01*
X3143095Y-19913190D01*
X3324048Y-19827476D02*
X3228809Y-19827476D01*
X3219286Y-19922714D01*
X3228809Y-19913190D01*
X3247857Y-19903667D01*
X3295476Y-19903667D01*
X3314524Y-19913190D01*
X3324048Y-19922714D01*
X3333571Y-19941762D01*
X3333571Y-19989381D01*
X3324048Y-20008429D01*
X3314524Y-20017952D01*
X3295476Y-20027476D01*
X3247857Y-20027476D01*
X3228809Y-20017952D01*
X3219286Y-20008429D01*
X3457381Y-19827476D02*
X3476428Y-19827476D01*
X3495476Y-19837000D01*
X3505000Y-19846524D01*
X3514524Y-19865571D01*
X3524048Y-19903667D01*
X3524048Y-19951286D01*
X3514524Y-19989381D01*
X3505000Y-20008429D01*
X3495476Y-20017952D01*
X3476428Y-20027476D01*
X3457381Y-20027476D01*
X3438333Y-20017952D01*
X3428809Y-20008429D01*
X3419286Y-19989381D01*
X3409762Y-19951286D01*
X3409762Y-19903667D01*
X3419286Y-19865571D01*
X3428809Y-19846524D01*
X3438333Y-19837000D01*
X3457381Y-19827476D01*
X3609762Y-20027476D02*
X3609762Y-19894143D01*
X3609762Y-19913190D02*
X3619286Y-19903667D01*
X3638333Y-19894143D01*
X3666905Y-19894143D01*
X3685952Y-19903667D01*
X3695476Y-19922714D01*
X3695476Y-20027476D01*
X3695476Y-19922714D02*
X3705000Y-19903667D01*
X3724048Y-19894143D01*
X3752619Y-19894143D01*
X3771667Y-19903667D01*
X3781190Y-19922714D01*
X3781190Y-20027476D01*
X3876428Y-20027476D02*
X3876428Y-19894143D01*
X3876428Y-19913190D02*
X3885952Y-19903667D01*
X3905000Y-19894143D01*
X3933571Y-19894143D01*
X3952619Y-19903667D01*
X3962143Y-19922714D01*
X3962143Y-20027476D01*
X3962143Y-19922714D02*
X3971667Y-19903667D01*
X3990714Y-19894143D01*
X4019286Y-19894143D01*
X4038333Y-19903667D01*
X4047857Y-19922714D01*
X4047857Y-20027476D01*
X4438333Y-19817952D02*
X4266905Y-20075095D01*
X4695476Y-19827476D02*
X4714524Y-19827476D01*
X4733571Y-19837000D01*
X4743095Y-19846524D01*
X4752619Y-19865571D01*
X4762143Y-19903667D01*
X4762143Y-19951286D01*
X4752619Y-19989381D01*
X4743095Y-20008429D01*
X4733571Y-20017952D01*
X4714524Y-20027476D01*
X4695476Y-20027476D01*
X4676429Y-20017952D01*
X4666905Y-20008429D01*
X4657381Y-19989381D01*
X4647857Y-19951286D01*
X4647857Y-19903667D01*
X4657381Y-19865571D01*
X4666905Y-19846524D01*
X4676429Y-19837000D01*
X4695476Y-19827476D01*
X4847857Y-20008429D02*
X4857381Y-20017952D01*
X4847857Y-20027476D01*
X4838333Y-20017952D01*
X4847857Y-20008429D01*
X4847857Y-20027476D01*
X4981190Y-19827476D02*
X5000238Y-19827476D01*
X5019286Y-19837000D01*
X5028810Y-19846524D01*
X5038333Y-19865571D01*
X5047857Y-19903667D01*
X5047857Y-19951286D01*
X5038333Y-19989381D01*
X5028810Y-20008429D01*
X5019286Y-20017952D01*
X5000238Y-20027476D01*
X4981190Y-20027476D01*
X4962143Y-20017952D01*
X4952619Y-20008429D01*
X4943095Y-19989381D01*
X4933571Y-19951286D01*
X4933571Y-19903667D01*
X4943095Y-19865571D01*
X4952619Y-19846524D01*
X4962143Y-19837000D01*
X4981190Y-19827476D01*
X5114524Y-19827476D02*
X5238333Y-19827476D01*
X5171667Y-19903667D01*
X5200238Y-19903667D01*
X5219286Y-19913190D01*
X5228810Y-19922714D01*
X5238333Y-19941762D01*
X5238333Y-19989381D01*
X5228810Y-20008429D01*
X5219286Y-20017952D01*
X5200238Y-20027476D01*
X5143095Y-20027476D01*
X5124048Y-20017952D01*
X5114524Y-20008429D01*
X5305000Y-19827476D02*
X5438333Y-19827476D01*
X5352619Y-20027476D01*
X5600238Y-19894143D02*
X5600238Y-20027476D01*
X5552619Y-19817952D02*
X5505000Y-19960810D01*
X5628809Y-19960810D01*
X5695476Y-19827476D02*
X5695476Y-19865571D01*
X5771667Y-19827476D02*
X5771667Y-19865571D01*
X6066905Y-20103667D02*
X6057381Y-20094143D01*
X6038333Y-20065571D01*
X6028809Y-20046524D01*
X6019286Y-20017952D01*
X6009762Y-19970333D01*
X6009762Y-19932238D01*
X6019286Y-19884619D01*
X6028809Y-19856048D01*
X6038333Y-19837000D01*
X6057381Y-19808429D01*
X6066905Y-19798905D01*
X6247857Y-20027476D02*
X6133571Y-20027476D01*
X6190714Y-20027476D02*
X6190714Y-19827476D01*
X6171667Y-19856048D01*
X6152619Y-19875095D01*
X6133571Y-19884619D01*
X6324048Y-19846524D02*
X6333571Y-19837000D01*
X6352619Y-19827476D01*
X6400238Y-19827476D01*
X6419286Y-19837000D01*
X6428809Y-19846524D01*
X6438333Y-19865571D01*
X6438333Y-19884619D01*
X6428809Y-19913190D01*
X6314524Y-20027476D01*
X6438333Y-20027476D01*
X6676428Y-20027476D02*
X6676428Y-19827476D01*
X6762143Y-20027476D02*
X6762143Y-19922714D01*
X6752619Y-19903667D01*
X6733571Y-19894143D01*
X6705000Y-19894143D01*
X6685952Y-19903667D01*
X6676428Y-19913190D01*
X6885952Y-20027476D02*
X6866905Y-20017952D01*
X6857381Y-20008429D01*
X6847857Y-19989381D01*
X6847857Y-19932238D01*
X6857381Y-19913190D01*
X6866905Y-19903667D01*
X6885952Y-19894143D01*
X6914524Y-19894143D01*
X6933571Y-19903667D01*
X6943095Y-19913190D01*
X6952619Y-19932238D01*
X6952619Y-19989381D01*
X6943095Y-20008429D01*
X6933571Y-20017952D01*
X6914524Y-20027476D01*
X6885952Y-20027476D01*
X7066905Y-20027476D02*
X7047857Y-20017952D01*
X7038333Y-19998905D01*
X7038333Y-19827476D01*
X7219286Y-20017952D02*
X7200238Y-20027476D01*
X7162143Y-20027476D01*
X7143095Y-20017952D01*
X7133571Y-19998905D01*
X7133571Y-19922714D01*
X7143095Y-19903667D01*
X7162143Y-19894143D01*
X7200238Y-19894143D01*
X7219286Y-19903667D01*
X7228809Y-19922714D01*
X7228809Y-19941762D01*
X7133571Y-19960810D01*
X7305000Y-20017952D02*
X7324048Y-20027476D01*
X7362143Y-20027476D01*
X7381190Y-20017952D01*
X7390714Y-19998905D01*
X7390714Y-19989381D01*
X7381190Y-19970333D01*
X7362143Y-19960810D01*
X7333571Y-19960810D01*
X7314524Y-19951286D01*
X7305000Y-19932238D01*
X7305000Y-19922714D01*
X7314524Y-19903667D01*
X7333571Y-19894143D01*
X7362143Y-19894143D01*
X7381190Y-19903667D01*
X7457381Y-20103667D02*
X7466905Y-20094143D01*
X7485952Y-20065571D01*
X7495476Y-20046524D01*
X7505000Y-20017952D01*
X7514524Y-19970333D01*
X7514524Y-19932238D01*
X7505000Y-19884619D01*
X7495476Y-19856048D01*
X7485952Y-19837000D01*
X7466905Y-19808429D01*
X7457381Y-19798905D01*
D16*
X2445000Y-20251000D02*
X2495000Y-20201000D01*
X2445000Y-20151000D01*
X2395000Y-20201000D01*
X2445000Y-20251000D01*
D11*
X2857381Y-20291476D02*
X2743095Y-20291476D01*
X2800238Y-20291476D02*
X2800238Y-20091476D01*
X2781190Y-20120048D01*
X2762143Y-20139095D01*
X2743095Y-20148619D01*
X2943095Y-20272429D02*
X2952619Y-20281952D01*
X2943095Y-20291476D01*
X2933571Y-20281952D01*
X2943095Y-20272429D01*
X2943095Y-20291476D01*
X3076428Y-20091476D02*
X3095476Y-20091476D01*
X3114524Y-20101000D01*
X3124048Y-20110524D01*
X3133571Y-20129571D01*
X3143095Y-20167667D01*
X3143095Y-20215286D01*
X3133571Y-20253381D01*
X3124048Y-20272429D01*
X3114524Y-20281952D01*
X3095476Y-20291476D01*
X3076428Y-20291476D01*
X3057381Y-20281952D01*
X3047857Y-20272429D01*
X3038333Y-20253381D01*
X3028809Y-20215286D01*
X3028809Y-20167667D01*
X3038333Y-20129571D01*
X3047857Y-20110524D01*
X3057381Y-20101000D01*
X3076428Y-20091476D01*
X3266905Y-20091476D02*
X3285952Y-20091476D01*
X3305000Y-20101000D01*
X3314524Y-20110524D01*
X3324048Y-20129571D01*
X3333571Y-20167667D01*
X3333571Y-20215286D01*
X3324048Y-20253381D01*
X3314524Y-20272429D01*
X3305000Y-20281952D01*
X3285952Y-20291476D01*
X3266905Y-20291476D01*
X3247857Y-20281952D01*
X3238333Y-20272429D01*
X3228809Y-20253381D01*
X3219286Y-20215286D01*
X3219286Y-20167667D01*
X3228809Y-20129571D01*
X3238333Y-20110524D01*
X3247857Y-20101000D01*
X3266905Y-20091476D01*
X3457381Y-20091476D02*
X3476428Y-20091476D01*
X3495476Y-20101000D01*
X3505000Y-20110524D01*
X3514524Y-20129571D01*
X3524048Y-20167667D01*
X3524048Y-20215286D01*
X3514524Y-20253381D01*
X3505000Y-20272429D01*
X3495476Y-20281952D01*
X3476428Y-20291476D01*
X3457381Y-20291476D01*
X3438333Y-20281952D01*
X3428809Y-20272429D01*
X3419286Y-20253381D01*
X3409762Y-20215286D01*
X3409762Y-20167667D01*
X3419286Y-20129571D01*
X3428809Y-20110524D01*
X3438333Y-20101000D01*
X3457381Y-20091476D01*
X3609762Y-20291476D02*
X3609762Y-20158143D01*
X3609762Y-20177190D02*
X3619286Y-20167667D01*
X3638333Y-20158143D01*
X3666905Y-20158143D01*
X3685952Y-20167667D01*
X3695476Y-20186714D01*
X3695476Y-20291476D01*
X3695476Y-20186714D02*
X3705000Y-20167667D01*
X3724048Y-20158143D01*
X3752619Y-20158143D01*
X3771667Y-20167667D01*
X3781190Y-20186714D01*
X3781190Y-20291476D01*
X3876428Y-20291476D02*
X3876428Y-20158143D01*
X3876428Y-20177190D02*
X3885952Y-20167667D01*
X3905000Y-20158143D01*
X3933571Y-20158143D01*
X3952619Y-20167667D01*
X3962143Y-20186714D01*
X3962143Y-20291476D01*
X3962143Y-20186714D02*
X3971667Y-20167667D01*
X3990714Y-20158143D01*
X4019286Y-20158143D01*
X4038333Y-20167667D01*
X4047857Y-20186714D01*
X4047857Y-20291476D01*
X4438333Y-20081952D02*
X4266905Y-20339095D01*
X4695476Y-20091476D02*
X4714524Y-20091476D01*
X4733571Y-20101000D01*
X4743095Y-20110524D01*
X4752619Y-20129571D01*
X4762143Y-20167667D01*
X4762143Y-20215286D01*
X4752619Y-20253381D01*
X4743095Y-20272429D01*
X4733571Y-20281952D01*
X4714524Y-20291476D01*
X4695476Y-20291476D01*
X4676429Y-20281952D01*
X4666905Y-20272429D01*
X4657381Y-20253381D01*
X4647857Y-20215286D01*
X4647857Y-20167667D01*
X4657381Y-20129571D01*
X4666905Y-20110524D01*
X4676429Y-20101000D01*
X4695476Y-20091476D01*
X4847857Y-20272429D02*
X4857381Y-20281952D01*
X4847857Y-20291476D01*
X4838333Y-20281952D01*
X4847857Y-20272429D01*
X4847857Y-20291476D01*
X4981190Y-20091476D02*
X5000238Y-20091476D01*
X5019286Y-20101000D01*
X5028810Y-20110524D01*
X5038333Y-20129571D01*
X5047857Y-20167667D01*
X5047857Y-20215286D01*
X5038333Y-20253381D01*
X5028810Y-20272429D01*
X5019286Y-20281952D01*
X5000238Y-20291476D01*
X4981190Y-20291476D01*
X4962143Y-20281952D01*
X4952619Y-20272429D01*
X4943095Y-20253381D01*
X4933571Y-20215286D01*
X4933571Y-20167667D01*
X4943095Y-20129571D01*
X4952619Y-20110524D01*
X4962143Y-20101000D01*
X4981190Y-20091476D01*
X5114524Y-20091476D02*
X5238333Y-20091476D01*
X5171667Y-20167667D01*
X5200238Y-20167667D01*
X5219286Y-20177190D01*
X5228810Y-20186714D01*
X5238333Y-20205762D01*
X5238333Y-20253381D01*
X5228810Y-20272429D01*
X5219286Y-20281952D01*
X5200238Y-20291476D01*
X5143095Y-20291476D01*
X5124048Y-20281952D01*
X5114524Y-20272429D01*
X5333571Y-20291476D02*
X5371667Y-20291476D01*
X5390714Y-20281952D01*
X5400238Y-20272429D01*
X5419286Y-20243857D01*
X5428810Y-20205762D01*
X5428810Y-20129571D01*
X5419286Y-20110524D01*
X5409762Y-20101000D01*
X5390714Y-20091476D01*
X5352619Y-20091476D01*
X5333571Y-20101000D01*
X5324048Y-20110524D01*
X5314524Y-20129571D01*
X5314524Y-20177190D01*
X5324048Y-20196238D01*
X5333571Y-20205762D01*
X5352619Y-20215286D01*
X5390714Y-20215286D01*
X5409762Y-20205762D01*
X5419286Y-20196238D01*
X5428810Y-20177190D01*
X5600238Y-20158143D02*
X5600238Y-20291476D01*
X5552619Y-20081952D02*
X5505000Y-20224810D01*
X5628809Y-20224810D01*
X5695476Y-20091476D02*
X5695476Y-20129571D01*
X5771667Y-20091476D02*
X5771667Y-20129571D01*
X6066905Y-20367667D02*
X6057381Y-20358143D01*
X6038333Y-20329571D01*
X6028809Y-20310524D01*
X6019286Y-20281952D01*
X6009762Y-20234333D01*
X6009762Y-20196238D01*
X6019286Y-20148619D01*
X6028809Y-20120048D01*
X6038333Y-20101000D01*
X6057381Y-20072429D01*
X6066905Y-20062905D01*
X6124048Y-20091476D02*
X6247857Y-20091476D01*
X6181190Y-20167667D01*
X6209762Y-20167667D01*
X6228809Y-20177190D01*
X6238333Y-20186714D01*
X6247857Y-20205762D01*
X6247857Y-20253381D01*
X6238333Y-20272429D01*
X6228809Y-20281952D01*
X6209762Y-20291476D01*
X6152619Y-20291476D01*
X6133571Y-20281952D01*
X6124048Y-20272429D01*
X6438333Y-20291476D02*
X6324048Y-20291476D01*
X6381190Y-20291476D02*
X6381190Y-20091476D01*
X6362143Y-20120048D01*
X6343095Y-20139095D01*
X6324048Y-20148619D01*
X6676428Y-20291476D02*
X6676428Y-20091476D01*
X6762143Y-20291476D02*
X6762143Y-20186714D01*
X6752619Y-20167667D01*
X6733571Y-20158143D01*
X6705000Y-20158143D01*
X6685952Y-20167667D01*
X6676428Y-20177190D01*
X6885952Y-20291476D02*
X6866905Y-20281952D01*
X6857381Y-20272429D01*
X6847857Y-20253381D01*
X6847857Y-20196238D01*
X6857381Y-20177190D01*
X6866905Y-20167667D01*
X6885952Y-20158143D01*
X6914524Y-20158143D01*
X6933571Y-20167667D01*
X6943095Y-20177190D01*
X6952619Y-20196238D01*
X6952619Y-20253381D01*
X6943095Y-20272429D01*
X6933571Y-20281952D01*
X6914524Y-20291476D01*
X6885952Y-20291476D01*
X7066905Y-20291476D02*
X7047857Y-20281952D01*
X7038333Y-20262905D01*
X7038333Y-20091476D01*
X7219286Y-20281952D02*
X7200238Y-20291476D01*
X7162143Y-20291476D01*
X7143095Y-20281952D01*
X7133571Y-20262905D01*
X7133571Y-20186714D01*
X7143095Y-20167667D01*
X7162143Y-20158143D01*
X7200238Y-20158143D01*
X7219286Y-20167667D01*
X7228809Y-20186714D01*
X7228809Y-20205762D01*
X7133571Y-20224810D01*
X7305000Y-20281952D02*
X7324048Y-20291476D01*
X7362143Y-20291476D01*
X7381190Y-20281952D01*
X7390714Y-20262905D01*
X7390714Y-20253381D01*
X7381190Y-20234333D01*
X7362143Y-20224810D01*
X7333571Y-20224810D01*
X7314524Y-20215286D01*
X7305000Y-20196238D01*
X7305000Y-20186714D01*
X7314524Y-20167667D01*
X7333571Y-20158143D01*
X7362143Y-20158143D01*
X7381190Y-20167667D01*
X7457381Y-20367667D02*
X7466905Y-20358143D01*
X7485952Y-20329571D01*
X7495476Y-20310524D01*
X7505000Y-20281952D01*
X7514524Y-20234333D01*
X7514524Y-20196238D01*
X7505000Y-20148619D01*
X7495476Y-20120048D01*
X7485952Y-20101000D01*
X7466905Y-20072429D01*
X7457381Y-20062905D01*
D17*
X2385000Y-20410000D02*
X2495000Y-20520000D01*
X2495000Y-20410000D02*
X2385000Y-20520000D01*
X2495000Y-20465000D02*
G75*
G03*
X2495000Y-20465000I-55000J0D01*
G01*
D11*
X2857381Y-20555476D02*
X2743095Y-20555476D01*
X2800238Y-20555476D02*
X2800238Y-20355476D01*
X2781190Y-20384048D01*
X2762143Y-20403095D01*
X2743095Y-20412619D01*
X2943095Y-20536429D02*
X2952619Y-20545952D01*
X2943095Y-20555476D01*
X2933571Y-20545952D01*
X2943095Y-20536429D01*
X2943095Y-20555476D01*
X3143095Y-20555476D02*
X3028809Y-20555476D01*
X3085952Y-20555476D02*
X3085952Y-20355476D01*
X3066905Y-20384048D01*
X3047857Y-20403095D01*
X3028809Y-20412619D01*
X3266905Y-20355476D02*
X3285952Y-20355476D01*
X3305000Y-20365000D01*
X3314524Y-20374524D01*
X3324048Y-20393571D01*
X3333571Y-20431667D01*
X3333571Y-20479286D01*
X3324048Y-20517381D01*
X3314524Y-20536429D01*
X3305000Y-20545952D01*
X3285952Y-20555476D01*
X3266905Y-20555476D01*
X3247857Y-20545952D01*
X3238333Y-20536429D01*
X3228809Y-20517381D01*
X3219286Y-20479286D01*
X3219286Y-20431667D01*
X3228809Y-20393571D01*
X3238333Y-20374524D01*
X3247857Y-20365000D01*
X3266905Y-20355476D01*
X3457381Y-20355476D02*
X3476428Y-20355476D01*
X3495476Y-20365000D01*
X3505000Y-20374524D01*
X3514524Y-20393571D01*
X3524048Y-20431667D01*
X3524048Y-20479286D01*
X3514524Y-20517381D01*
X3505000Y-20536429D01*
X3495476Y-20545952D01*
X3476428Y-20555476D01*
X3457381Y-20555476D01*
X3438333Y-20545952D01*
X3428809Y-20536429D01*
X3419286Y-20517381D01*
X3409762Y-20479286D01*
X3409762Y-20431667D01*
X3419286Y-20393571D01*
X3428809Y-20374524D01*
X3438333Y-20365000D01*
X3457381Y-20355476D01*
X3609762Y-20555476D02*
X3609762Y-20422143D01*
X3609762Y-20441190D02*
X3619286Y-20431667D01*
X3638333Y-20422143D01*
X3666905Y-20422143D01*
X3685952Y-20431667D01*
X3695476Y-20450714D01*
X3695476Y-20555476D01*
X3695476Y-20450714D02*
X3705000Y-20431667D01*
X3724048Y-20422143D01*
X3752619Y-20422143D01*
X3771667Y-20431667D01*
X3781190Y-20450714D01*
X3781190Y-20555476D01*
X3876428Y-20555476D02*
X3876428Y-20422143D01*
X3876428Y-20441190D02*
X3885952Y-20431667D01*
X3905000Y-20422143D01*
X3933571Y-20422143D01*
X3952619Y-20431667D01*
X3962143Y-20450714D01*
X3962143Y-20555476D01*
X3962143Y-20450714D02*
X3971667Y-20431667D01*
X3990714Y-20422143D01*
X4019286Y-20422143D01*
X4038333Y-20431667D01*
X4047857Y-20450714D01*
X4047857Y-20555476D01*
X4438333Y-20345952D02*
X4266905Y-20603095D01*
X4695476Y-20355476D02*
X4714524Y-20355476D01*
X4733571Y-20365000D01*
X4743095Y-20374524D01*
X4752619Y-20393571D01*
X4762143Y-20431667D01*
X4762143Y-20479286D01*
X4752619Y-20517381D01*
X4743095Y-20536429D01*
X4733571Y-20545952D01*
X4714524Y-20555476D01*
X4695476Y-20555476D01*
X4676429Y-20545952D01*
X4666905Y-20536429D01*
X4657381Y-20517381D01*
X4647857Y-20479286D01*
X4647857Y-20431667D01*
X4657381Y-20393571D01*
X4666905Y-20374524D01*
X4676429Y-20365000D01*
X4695476Y-20355476D01*
X4847857Y-20536429D02*
X4857381Y-20545952D01*
X4847857Y-20555476D01*
X4838333Y-20545952D01*
X4847857Y-20536429D01*
X4847857Y-20555476D01*
X4981190Y-20355476D02*
X5000238Y-20355476D01*
X5019286Y-20365000D01*
X5028810Y-20374524D01*
X5038333Y-20393571D01*
X5047857Y-20431667D01*
X5047857Y-20479286D01*
X5038333Y-20517381D01*
X5028810Y-20536429D01*
X5019286Y-20545952D01*
X5000238Y-20555476D01*
X4981190Y-20555476D01*
X4962143Y-20545952D01*
X4952619Y-20536429D01*
X4943095Y-20517381D01*
X4933571Y-20479286D01*
X4933571Y-20431667D01*
X4943095Y-20393571D01*
X4952619Y-20374524D01*
X4962143Y-20365000D01*
X4981190Y-20355476D01*
X5219286Y-20422143D02*
X5219286Y-20555476D01*
X5171667Y-20345952D02*
X5124048Y-20488810D01*
X5247857Y-20488810D01*
X5305000Y-20355476D02*
X5428810Y-20355476D01*
X5362143Y-20431667D01*
X5390714Y-20431667D01*
X5409762Y-20441190D01*
X5419286Y-20450714D01*
X5428810Y-20469762D01*
X5428810Y-20517381D01*
X5419286Y-20536429D01*
X5409762Y-20545952D01*
X5390714Y-20555476D01*
X5333571Y-20555476D01*
X5314524Y-20545952D01*
X5305000Y-20536429D01*
X5495476Y-20355476D02*
X5619286Y-20355476D01*
X5552619Y-20431667D01*
X5581190Y-20431667D01*
X5600238Y-20441190D01*
X5609762Y-20450714D01*
X5619286Y-20469762D01*
X5619286Y-20517381D01*
X5609762Y-20536429D01*
X5600238Y-20545952D01*
X5581190Y-20555476D01*
X5524048Y-20555476D01*
X5505000Y-20545952D01*
X5495476Y-20536429D01*
X5695476Y-20355476D02*
X5695476Y-20393571D01*
X5771667Y-20355476D02*
X5771667Y-20393571D01*
X6066905Y-20631667D02*
X6057381Y-20622143D01*
X6038333Y-20593571D01*
X6028809Y-20574524D01*
X6019286Y-20545952D01*
X6009762Y-20498333D01*
X6009762Y-20460238D01*
X6019286Y-20412619D01*
X6028809Y-20384048D01*
X6038333Y-20365000D01*
X6057381Y-20336429D01*
X6066905Y-20326905D01*
X6238333Y-20355476D02*
X6143095Y-20355476D01*
X6133571Y-20450714D01*
X6143095Y-20441190D01*
X6162143Y-20431667D01*
X6209762Y-20431667D01*
X6228809Y-20441190D01*
X6238333Y-20450714D01*
X6247857Y-20469762D01*
X6247857Y-20517381D01*
X6238333Y-20536429D01*
X6228809Y-20545952D01*
X6209762Y-20555476D01*
X6162143Y-20555476D01*
X6143095Y-20545952D01*
X6133571Y-20536429D01*
X6343095Y-20555476D02*
X6381190Y-20555476D01*
X6400238Y-20545952D01*
X6409762Y-20536429D01*
X6428809Y-20507857D01*
X6438333Y-20469762D01*
X6438333Y-20393571D01*
X6428809Y-20374524D01*
X6419286Y-20365000D01*
X6400238Y-20355476D01*
X6362143Y-20355476D01*
X6343095Y-20365000D01*
X6333571Y-20374524D01*
X6324048Y-20393571D01*
X6324048Y-20441190D01*
X6333571Y-20460238D01*
X6343095Y-20469762D01*
X6362143Y-20479286D01*
X6400238Y-20479286D01*
X6419286Y-20469762D01*
X6428809Y-20460238D01*
X6438333Y-20441190D01*
X6676428Y-20555476D02*
X6676428Y-20355476D01*
X6762143Y-20555476D02*
X6762143Y-20450714D01*
X6752619Y-20431667D01*
X6733571Y-20422143D01*
X6705000Y-20422143D01*
X6685952Y-20431667D01*
X6676428Y-20441190D01*
X6885952Y-20555476D02*
X6866905Y-20545952D01*
X6857381Y-20536429D01*
X6847857Y-20517381D01*
X6847857Y-20460238D01*
X6857381Y-20441190D01*
X6866905Y-20431667D01*
X6885952Y-20422143D01*
X6914524Y-20422143D01*
X6933571Y-20431667D01*
X6943095Y-20441190D01*
X6952619Y-20460238D01*
X6952619Y-20517381D01*
X6943095Y-20536429D01*
X6933571Y-20545952D01*
X6914524Y-20555476D01*
X6885952Y-20555476D01*
X7066905Y-20555476D02*
X7047857Y-20545952D01*
X7038333Y-20526905D01*
X7038333Y-20355476D01*
X7219286Y-20545952D02*
X7200238Y-20555476D01*
X7162143Y-20555476D01*
X7143095Y-20545952D01*
X7133571Y-20526905D01*
X7133571Y-20450714D01*
X7143095Y-20431667D01*
X7162143Y-20422143D01*
X7200238Y-20422143D01*
X7219286Y-20431667D01*
X7228809Y-20450714D01*
X7228809Y-20469762D01*
X7133571Y-20488810D01*
X7305000Y-20545952D02*
X7324048Y-20555476D01*
X7362143Y-20555476D01*
X7381190Y-20545952D01*
X7390714Y-20526905D01*
X7390714Y-20517381D01*
X7381190Y-20498333D01*
X7362143Y-20488810D01*
X7333571Y-20488810D01*
X7314524Y-20479286D01*
X7305000Y-20460238D01*
X7305000Y-20450714D01*
X7314524Y-20431667D01*
X7333571Y-20422143D01*
X7362143Y-20422143D01*
X7381190Y-20431667D01*
X7457381Y-20631667D02*
X7466905Y-20622143D01*
X7485952Y-20593571D01*
X7495476Y-20574524D01*
X7505000Y-20545952D01*
X7514524Y-20498333D01*
X7514524Y-20460238D01*
X7505000Y-20412619D01*
X7495476Y-20384048D01*
X7485952Y-20365000D01*
X7466905Y-20336429D01*
X7457381Y-20326905D01*
D18*
X2375000Y-20669000D02*
X2495000Y-20789000D01*
X2495000Y-20669000D02*
X2375000Y-20789000D01*
X2435000Y-20669000D02*
X2435000Y-20789000D01*
X2375000Y-20729000D02*
X2495000Y-20729000D01*
D11*
X2857381Y-20819476D02*
X2743095Y-20819476D01*
X2800238Y-20819476D02*
X2800238Y-20619476D01*
X2781190Y-20648048D01*
X2762143Y-20667095D01*
X2743095Y-20676619D01*
X2943095Y-20800429D02*
X2952619Y-20809952D01*
X2943095Y-20819476D01*
X2933571Y-20809952D01*
X2943095Y-20800429D01*
X2943095Y-20819476D01*
X3028809Y-20638524D02*
X3038333Y-20629000D01*
X3057381Y-20619476D01*
X3105000Y-20619476D01*
X3124048Y-20629000D01*
X3133571Y-20638524D01*
X3143095Y-20657571D01*
X3143095Y-20676619D01*
X3133571Y-20705190D01*
X3019286Y-20819476D01*
X3143095Y-20819476D01*
X3266905Y-20619476D02*
X3285952Y-20619476D01*
X3305000Y-20629000D01*
X3314524Y-20638524D01*
X3324048Y-20657571D01*
X3333571Y-20695667D01*
X3333571Y-20743286D01*
X3324048Y-20781381D01*
X3314524Y-20800429D01*
X3305000Y-20809952D01*
X3285952Y-20819476D01*
X3266905Y-20819476D01*
X3247857Y-20809952D01*
X3238333Y-20800429D01*
X3228809Y-20781381D01*
X3219286Y-20743286D01*
X3219286Y-20695667D01*
X3228809Y-20657571D01*
X3238333Y-20638524D01*
X3247857Y-20629000D01*
X3266905Y-20619476D01*
X3457381Y-20619476D02*
X3476428Y-20619476D01*
X3495476Y-20629000D01*
X3505000Y-20638524D01*
X3514524Y-20657571D01*
X3524048Y-20695667D01*
X3524048Y-20743286D01*
X3514524Y-20781381D01*
X3505000Y-20800429D01*
X3495476Y-20809952D01*
X3476428Y-20819476D01*
X3457381Y-20819476D01*
X3438333Y-20809952D01*
X3428809Y-20800429D01*
X3419286Y-20781381D01*
X3409762Y-20743286D01*
X3409762Y-20695667D01*
X3419286Y-20657571D01*
X3428809Y-20638524D01*
X3438333Y-20629000D01*
X3457381Y-20619476D01*
X3609762Y-20819476D02*
X3609762Y-20686143D01*
X3609762Y-20705190D02*
X3619286Y-20695667D01*
X3638333Y-20686143D01*
X3666905Y-20686143D01*
X3685952Y-20695667D01*
X3695476Y-20714714D01*
X3695476Y-20819476D01*
X3695476Y-20714714D02*
X3705000Y-20695667D01*
X3724048Y-20686143D01*
X3752619Y-20686143D01*
X3771667Y-20695667D01*
X3781190Y-20714714D01*
X3781190Y-20819476D01*
X3876428Y-20819476D02*
X3876428Y-20686143D01*
X3876428Y-20705190D02*
X3885952Y-20695667D01*
X3905000Y-20686143D01*
X3933571Y-20686143D01*
X3952619Y-20695667D01*
X3962143Y-20714714D01*
X3962143Y-20819476D01*
X3962143Y-20714714D02*
X3971667Y-20695667D01*
X3990714Y-20686143D01*
X4019286Y-20686143D01*
X4038333Y-20695667D01*
X4047857Y-20714714D01*
X4047857Y-20819476D01*
X4438333Y-20609952D02*
X4266905Y-20867095D01*
X4695476Y-20619476D02*
X4714524Y-20619476D01*
X4733571Y-20629000D01*
X4743095Y-20638524D01*
X4752619Y-20657571D01*
X4762143Y-20695667D01*
X4762143Y-20743286D01*
X4752619Y-20781381D01*
X4743095Y-20800429D01*
X4733571Y-20809952D01*
X4714524Y-20819476D01*
X4695476Y-20819476D01*
X4676429Y-20809952D01*
X4666905Y-20800429D01*
X4657381Y-20781381D01*
X4647857Y-20743286D01*
X4647857Y-20695667D01*
X4657381Y-20657571D01*
X4666905Y-20638524D01*
X4676429Y-20629000D01*
X4695476Y-20619476D01*
X4847857Y-20800429D02*
X4857381Y-20809952D01*
X4847857Y-20819476D01*
X4838333Y-20809952D01*
X4847857Y-20800429D01*
X4847857Y-20819476D01*
X4981190Y-20619476D02*
X5000238Y-20619476D01*
X5019286Y-20629000D01*
X5028810Y-20638524D01*
X5038333Y-20657571D01*
X5047857Y-20695667D01*
X5047857Y-20743286D01*
X5038333Y-20781381D01*
X5028810Y-20800429D01*
X5019286Y-20809952D01*
X5000238Y-20819476D01*
X4981190Y-20819476D01*
X4962143Y-20809952D01*
X4952619Y-20800429D01*
X4943095Y-20781381D01*
X4933571Y-20743286D01*
X4933571Y-20695667D01*
X4943095Y-20657571D01*
X4952619Y-20638524D01*
X4962143Y-20629000D01*
X4981190Y-20619476D01*
X5219286Y-20686143D02*
X5219286Y-20819476D01*
X5171667Y-20609952D02*
X5124048Y-20752810D01*
X5247857Y-20752810D01*
X5305000Y-20619476D02*
X5438333Y-20619476D01*
X5352619Y-20819476D01*
X5505000Y-20638524D02*
X5514524Y-20629000D01*
X5533571Y-20619476D01*
X5581190Y-20619476D01*
X5600238Y-20629000D01*
X5609762Y-20638524D01*
X5619286Y-20657571D01*
X5619286Y-20676619D01*
X5609762Y-20705190D01*
X5495476Y-20819476D01*
X5619286Y-20819476D01*
X5695476Y-20619476D02*
X5695476Y-20657571D01*
X5771667Y-20619476D02*
X5771667Y-20657571D01*
X6066905Y-20895667D02*
X6057381Y-20886143D01*
X6038333Y-20857571D01*
X6028809Y-20838524D01*
X6019286Y-20809952D01*
X6009762Y-20762333D01*
X6009762Y-20724238D01*
X6019286Y-20676619D01*
X6028809Y-20648048D01*
X6038333Y-20629000D01*
X6057381Y-20600429D01*
X6066905Y-20590905D01*
X6124048Y-20619476D02*
X6247857Y-20619476D01*
X6181190Y-20695667D01*
X6209762Y-20695667D01*
X6228809Y-20705190D01*
X6238333Y-20714714D01*
X6247857Y-20733762D01*
X6247857Y-20781381D01*
X6238333Y-20800429D01*
X6228809Y-20809952D01*
X6209762Y-20819476D01*
X6152619Y-20819476D01*
X6133571Y-20809952D01*
X6124048Y-20800429D01*
X6324048Y-20638524D02*
X6333571Y-20629000D01*
X6352619Y-20619476D01*
X6400238Y-20619476D01*
X6419286Y-20629000D01*
X6428809Y-20638524D01*
X6438333Y-20657571D01*
X6438333Y-20676619D01*
X6428809Y-20705190D01*
X6314524Y-20819476D01*
X6438333Y-20819476D01*
X6676428Y-20819476D02*
X6676428Y-20619476D01*
X6762143Y-20819476D02*
X6762143Y-20714714D01*
X6752619Y-20695667D01*
X6733571Y-20686143D01*
X6705000Y-20686143D01*
X6685952Y-20695667D01*
X6676428Y-20705190D01*
X6885952Y-20819476D02*
X6866905Y-20809952D01*
X6857381Y-20800429D01*
X6847857Y-20781381D01*
X6847857Y-20724238D01*
X6857381Y-20705190D01*
X6866905Y-20695667D01*
X6885952Y-20686143D01*
X6914524Y-20686143D01*
X6933571Y-20695667D01*
X6943095Y-20705190D01*
X6952619Y-20724238D01*
X6952619Y-20781381D01*
X6943095Y-20800429D01*
X6933571Y-20809952D01*
X6914524Y-20819476D01*
X6885952Y-20819476D01*
X7066905Y-20819476D02*
X7047857Y-20809952D01*
X7038333Y-20790905D01*
X7038333Y-20619476D01*
X7219286Y-20809952D02*
X7200238Y-20819476D01*
X7162143Y-20819476D01*
X7143095Y-20809952D01*
X7133571Y-20790905D01*
X7133571Y-20714714D01*
X7143095Y-20695667D01*
X7162143Y-20686143D01*
X7200238Y-20686143D01*
X7219286Y-20695667D01*
X7228809Y-20714714D01*
X7228809Y-20733762D01*
X7133571Y-20752810D01*
X7305000Y-20809952D02*
X7324048Y-20819476D01*
X7362143Y-20819476D01*
X7381190Y-20809952D01*
X7390714Y-20790905D01*
X7390714Y-20781381D01*
X7381190Y-20762333D01*
X7362143Y-20752810D01*
X7333571Y-20752810D01*
X7314524Y-20743286D01*
X7305000Y-20724238D01*
X7305000Y-20714714D01*
X7314524Y-20695667D01*
X7333571Y-20686143D01*
X7362143Y-20686143D01*
X7381190Y-20695667D01*
X7457381Y-20895667D02*
X7466905Y-20886143D01*
X7485952Y-20857571D01*
X7495476Y-20838524D01*
X7505000Y-20809952D01*
X7514524Y-20762333D01*
X7514524Y-20724238D01*
X7505000Y-20676619D01*
X7495476Y-20648048D01*
X7485952Y-20629000D01*
X7466905Y-20600429D01*
X7457381Y-20590905D01*
X2295000Y-20893000D02*
X2495000Y-21093000D01*
X2495000Y-20893000D02*
X2295000Y-21093000D01*
X2465711Y-21063711D02*
X2465711Y-20922289D01*
X2324289Y-20922289D01*
X2324289Y-21063711D01*
X2465711Y-21063711D01*
X2838333Y-20950143D02*
X2838333Y-21083476D01*
X2790714Y-20873952D02*
X2743095Y-21016810D01*
X2866905Y-21016810D01*
X2943095Y-21064429D02*
X2952619Y-21073952D01*
X2943095Y-21083476D01*
X2933571Y-21073952D01*
X2943095Y-21064429D01*
X2943095Y-21083476D01*
X3019286Y-20883476D02*
X3143095Y-20883476D01*
X3076428Y-20959667D01*
X3105000Y-20959667D01*
X3124048Y-20969190D01*
X3133571Y-20978714D01*
X3143095Y-20997762D01*
X3143095Y-21045381D01*
X3133571Y-21064429D01*
X3124048Y-21073952D01*
X3105000Y-21083476D01*
X3047857Y-21083476D01*
X3028809Y-21073952D01*
X3019286Y-21064429D01*
X3266905Y-20883476D02*
X3285952Y-20883476D01*
X3305000Y-20893000D01*
X3314524Y-20902524D01*
X3324048Y-20921571D01*
X3333571Y-20959667D01*
X3333571Y-21007286D01*
X3324048Y-21045381D01*
X3314524Y-21064429D01*
X3305000Y-21073952D01*
X3285952Y-21083476D01*
X3266905Y-21083476D01*
X3247857Y-21073952D01*
X3238333Y-21064429D01*
X3228809Y-21045381D01*
X3219286Y-21007286D01*
X3219286Y-20959667D01*
X3228809Y-20921571D01*
X3238333Y-20902524D01*
X3247857Y-20893000D01*
X3266905Y-20883476D01*
X3457381Y-20883476D02*
X3476428Y-20883476D01*
X3495476Y-20893000D01*
X3505000Y-20902524D01*
X3514524Y-20921571D01*
X3524048Y-20959667D01*
X3524048Y-21007286D01*
X3514524Y-21045381D01*
X3505000Y-21064429D01*
X3495476Y-21073952D01*
X3476428Y-21083476D01*
X3457381Y-21083476D01*
X3438333Y-21073952D01*
X3428809Y-21064429D01*
X3419286Y-21045381D01*
X3409762Y-21007286D01*
X3409762Y-20959667D01*
X3419286Y-20921571D01*
X3428809Y-20902524D01*
X3438333Y-20893000D01*
X3457381Y-20883476D01*
X3609762Y-21083476D02*
X3609762Y-20950143D01*
X3609762Y-20969190D02*
X3619286Y-20959667D01*
X3638333Y-20950143D01*
X3666905Y-20950143D01*
X3685952Y-20959667D01*
X3695476Y-20978714D01*
X3695476Y-21083476D01*
X3695476Y-20978714D02*
X3705000Y-20959667D01*
X3724048Y-20950143D01*
X3752619Y-20950143D01*
X3771667Y-20959667D01*
X3781190Y-20978714D01*
X3781190Y-21083476D01*
X3876428Y-21083476D02*
X3876428Y-20950143D01*
X3876428Y-20969190D02*
X3885952Y-20959667D01*
X3905000Y-20950143D01*
X3933571Y-20950143D01*
X3952619Y-20959667D01*
X3962143Y-20978714D01*
X3962143Y-21083476D01*
X3962143Y-20978714D02*
X3971667Y-20959667D01*
X3990714Y-20950143D01*
X4019286Y-20950143D01*
X4038333Y-20959667D01*
X4047857Y-20978714D01*
X4047857Y-21083476D01*
X4438333Y-20873952D02*
X4266905Y-21131095D01*
X4695476Y-20883476D02*
X4714524Y-20883476D01*
X4733571Y-20893000D01*
X4743095Y-20902524D01*
X4752619Y-20921571D01*
X4762143Y-20959667D01*
X4762143Y-21007286D01*
X4752619Y-21045381D01*
X4743095Y-21064429D01*
X4733571Y-21073952D01*
X4714524Y-21083476D01*
X4695476Y-21083476D01*
X4676429Y-21073952D01*
X4666905Y-21064429D01*
X4657381Y-21045381D01*
X4647857Y-21007286D01*
X4647857Y-20959667D01*
X4657381Y-20921571D01*
X4666905Y-20902524D01*
X4676429Y-20893000D01*
X4695476Y-20883476D01*
X4847857Y-21064429D02*
X4857381Y-21073952D01*
X4847857Y-21083476D01*
X4838333Y-21073952D01*
X4847857Y-21064429D01*
X4847857Y-21083476D01*
X5047857Y-21083476D02*
X4933571Y-21083476D01*
X4990714Y-21083476D02*
X4990714Y-20883476D01*
X4971667Y-20912048D01*
X4952619Y-20931095D01*
X4933571Y-20940619D01*
X5219286Y-20883476D02*
X5181190Y-20883476D01*
X5162143Y-20893000D01*
X5152619Y-20902524D01*
X5133571Y-20931095D01*
X5124048Y-20969190D01*
X5124048Y-21045381D01*
X5133571Y-21064429D01*
X5143095Y-21073952D01*
X5162143Y-21083476D01*
X5200238Y-21083476D01*
X5219286Y-21073952D01*
X5228810Y-21064429D01*
X5238333Y-21045381D01*
X5238333Y-20997762D01*
X5228810Y-20978714D01*
X5219286Y-20969190D01*
X5200238Y-20959667D01*
X5162143Y-20959667D01*
X5143095Y-20969190D01*
X5133571Y-20978714D01*
X5124048Y-20997762D01*
X5333571Y-21083476D02*
X5371667Y-21083476D01*
X5390714Y-21073952D01*
X5400238Y-21064429D01*
X5419286Y-21035857D01*
X5428810Y-20997762D01*
X5428810Y-20921571D01*
X5419286Y-20902524D01*
X5409762Y-20893000D01*
X5390714Y-20883476D01*
X5352619Y-20883476D01*
X5333571Y-20893000D01*
X5324048Y-20902524D01*
X5314524Y-20921571D01*
X5314524Y-20969190D01*
X5324048Y-20988238D01*
X5333571Y-20997762D01*
X5352619Y-21007286D01*
X5390714Y-21007286D01*
X5409762Y-20997762D01*
X5419286Y-20988238D01*
X5428810Y-20969190D01*
X5495476Y-20883476D02*
X5619286Y-20883476D01*
X5552619Y-20959667D01*
X5581190Y-20959667D01*
X5600238Y-20969190D01*
X5609762Y-20978714D01*
X5619286Y-20997762D01*
X5619286Y-21045381D01*
X5609762Y-21064429D01*
X5600238Y-21073952D01*
X5581190Y-21083476D01*
X5524048Y-21083476D01*
X5505000Y-21073952D01*
X5495476Y-21064429D01*
X5695476Y-20883476D02*
X5695476Y-20921571D01*
X5771667Y-20883476D02*
X5771667Y-20921571D01*
X6066905Y-21159667D02*
X6057381Y-21150143D01*
X6038333Y-21121571D01*
X6028809Y-21102524D01*
X6019286Y-21073952D01*
X6009762Y-21026333D01*
X6009762Y-20988238D01*
X6019286Y-20940619D01*
X6028809Y-20912048D01*
X6038333Y-20893000D01*
X6057381Y-20864429D01*
X6066905Y-20854905D01*
X6171667Y-20969190D02*
X6152619Y-20959667D01*
X6143095Y-20950143D01*
X6133571Y-20931095D01*
X6133571Y-20921571D01*
X6143095Y-20902524D01*
X6152619Y-20893000D01*
X6171667Y-20883476D01*
X6209762Y-20883476D01*
X6228809Y-20893000D01*
X6238333Y-20902524D01*
X6247857Y-20921571D01*
X6247857Y-20931095D01*
X6238333Y-20950143D01*
X6228809Y-20959667D01*
X6209762Y-20969190D01*
X6171667Y-20969190D01*
X6152619Y-20978714D01*
X6143095Y-20988238D01*
X6133571Y-21007286D01*
X6133571Y-21045381D01*
X6143095Y-21064429D01*
X6152619Y-21073952D01*
X6171667Y-21083476D01*
X6209762Y-21083476D01*
X6228809Y-21073952D01*
X6238333Y-21064429D01*
X6247857Y-21045381D01*
X6247857Y-21007286D01*
X6238333Y-20988238D01*
X6228809Y-20978714D01*
X6209762Y-20969190D01*
X6485952Y-21083476D02*
X6485952Y-20883476D01*
X6571667Y-21083476D02*
X6571667Y-20978714D01*
X6562143Y-20959667D01*
X6543095Y-20950143D01*
X6514524Y-20950143D01*
X6495476Y-20959667D01*
X6485952Y-20969190D01*
X6695476Y-21083476D02*
X6676428Y-21073952D01*
X6666905Y-21064429D01*
X6657381Y-21045381D01*
X6657381Y-20988238D01*
X6666905Y-20969190D01*
X6676428Y-20959667D01*
X6695476Y-20950143D01*
X6724048Y-20950143D01*
X6743095Y-20959667D01*
X6752619Y-20969190D01*
X6762143Y-20988238D01*
X6762143Y-21045381D01*
X6752619Y-21064429D01*
X6743095Y-21073952D01*
X6724048Y-21083476D01*
X6695476Y-21083476D01*
X6876428Y-21083476D02*
X6857381Y-21073952D01*
X6847857Y-21054905D01*
X6847857Y-20883476D01*
X7028809Y-21073952D02*
X7009762Y-21083476D01*
X6971667Y-21083476D01*
X6952619Y-21073952D01*
X6943095Y-21054905D01*
X6943095Y-20978714D01*
X6952619Y-20959667D01*
X6971667Y-20950143D01*
X7009762Y-20950143D01*
X7028809Y-20959667D01*
X7038333Y-20978714D01*
X7038333Y-20997762D01*
X6943095Y-21016810D01*
X7114524Y-21073952D02*
X7133571Y-21083476D01*
X7171667Y-21083476D01*
X7190714Y-21073952D01*
X7200238Y-21054905D01*
X7200238Y-21045381D01*
X7190714Y-21026333D01*
X7171667Y-21016810D01*
X7143095Y-21016810D01*
X7124048Y-21007286D01*
X7114524Y-20988238D01*
X7114524Y-20978714D01*
X7124048Y-20959667D01*
X7143095Y-20950143D01*
X7171667Y-20950143D01*
X7190714Y-20959667D01*
X7266905Y-21159667D02*
X7276428Y-21150143D01*
X7295476Y-21121571D01*
X7305000Y-21102524D01*
X7314524Y-21073952D01*
X7324048Y-21026333D01*
X7324048Y-20988238D01*
X7314524Y-20940619D01*
X7305000Y-20912048D01*
X7295476Y-20893000D01*
X7276428Y-20864429D01*
X7266905Y-20854905D01*
M02*
