G04 #@! TF.GenerationSoftware,KiCad,Pcbnew,(5.99.0-11727-g1ec70d30af)*
G04 #@! TF.CreationDate,2021-08-20T03:51:17+02:00*
G04 #@! TF.ProjectId,motorcontroller,6d6f746f-7263-46f6-9e74-726f6c6c6572,rev?*
G04 #@! TF.SameCoordinates,Original*
G04 #@! TF.FileFunction,Legend,Bot*
G04 #@! TF.FilePolarity,Positive*
%FSLAX46Y46*%
G04 Gerber Fmt 4.6, Leading zero omitted, Abs format (unit mm)*
G04 Created by KiCad (PCBNEW (5.99.0-11727-g1ec70d30af)) date 2021-08-20 03:51:17*
%MOMM*%
%LPD*%
G01*
G04 APERTURE LIST*
%ADD10C,0.300000*%
%ADD11R,2.400000X2.400000*%
%ADD12C,2.400000*%
%ADD13R,2.000000X1.905000*%
%ADD14O,2.000000X1.905000*%
%ADD15C,1.600000*%
%ADD16O,1.600000X1.600000*%
%ADD17R,1.700000X1.700000*%
%ADD18O,1.700000X1.700000*%
%ADD19O,1.950000X1.700000*%
%ADD20C,8.600000*%
%ADD21R,2.000000X2.000000*%
%ADD22C,2.000000*%
%ADD23C,3.200000*%
%ADD24R,1.800000X1.275000*%
%ADD25O,1.800000X1.275000*%
%ADD26O,1.700000X2.000000*%
%ADD27R,1.600000X1.600000*%
%ADD28O,1.000000X2.100000*%
%ADD29O,1.000000X1.600000*%
%ADD30C,0.650000*%
G04 APERTURE END LIST*
D10*
X94428571Y-31154761D02*
X94428571Y-29154761D01*
X93761904Y-30583333D01*
X93095238Y-29154761D01*
X93095238Y-31154761D01*
X91857142Y-31154761D02*
X92047619Y-31059523D01*
X92142857Y-30964285D01*
X92238095Y-30773809D01*
X92238095Y-30202380D01*
X92142857Y-30011904D01*
X92047619Y-29916666D01*
X91857142Y-29821428D01*
X91571428Y-29821428D01*
X91380952Y-29916666D01*
X91285714Y-30011904D01*
X91190476Y-30202380D01*
X91190476Y-30773809D01*
X91285714Y-30964285D01*
X91380952Y-31059523D01*
X91571428Y-31154761D01*
X91857142Y-31154761D01*
X90619047Y-29821428D02*
X89857142Y-29821428D01*
X90333333Y-29154761D02*
X90333333Y-30869047D01*
X90238095Y-31059523D01*
X90047619Y-31154761D01*
X89857142Y-31154761D01*
X88904761Y-31154761D02*
X89095238Y-31059523D01*
X89190476Y-30964285D01*
X89285714Y-30773809D01*
X89285714Y-30202380D01*
X89190476Y-30011904D01*
X89095238Y-29916666D01*
X88904761Y-29821428D01*
X88619047Y-29821428D01*
X88428571Y-29916666D01*
X88333333Y-30011904D01*
X88238095Y-30202380D01*
X88238095Y-30773809D01*
X88333333Y-30964285D01*
X88428571Y-31059523D01*
X88619047Y-31154761D01*
X88904761Y-31154761D01*
X87380952Y-31154761D02*
X87380952Y-29821428D01*
X87380952Y-30202380D02*
X87285714Y-30011904D01*
X87190476Y-29916666D01*
X87000000Y-29821428D01*
X86809523Y-29821428D01*
X83476190Y-30964285D02*
X83571428Y-31059523D01*
X83857142Y-31154761D01*
X84047619Y-31154761D01*
X84333333Y-31059523D01*
X84523809Y-30869047D01*
X84619047Y-30678571D01*
X84714285Y-30297619D01*
X84714285Y-30011904D01*
X84619047Y-29630952D01*
X84523809Y-29440476D01*
X84333333Y-29250000D01*
X84047619Y-29154761D01*
X83857142Y-29154761D01*
X83571428Y-29250000D01*
X83476190Y-29345238D01*
X82333333Y-31154761D02*
X82523809Y-31059523D01*
X82619047Y-30964285D01*
X82714285Y-30773809D01*
X82714285Y-30202380D01*
X82619047Y-30011904D01*
X82523809Y-29916666D01*
X82333333Y-29821428D01*
X82047619Y-29821428D01*
X81857142Y-29916666D01*
X81761904Y-30011904D01*
X81666666Y-30202380D01*
X81666666Y-30773809D01*
X81761904Y-30964285D01*
X81857142Y-31059523D01*
X82047619Y-31154761D01*
X82333333Y-31154761D01*
X80809523Y-29821428D02*
X80809523Y-31154761D01*
X80809523Y-30011904D02*
X80714285Y-29916666D01*
X80523809Y-29821428D01*
X80238095Y-29821428D01*
X80047619Y-29916666D01*
X79952380Y-30107142D01*
X79952380Y-31154761D01*
X79285714Y-29821428D02*
X78523809Y-29821428D01*
X79000000Y-29154761D02*
X79000000Y-30869047D01*
X78904761Y-31059523D01*
X78714285Y-31154761D01*
X78523809Y-31154761D01*
X77857142Y-31154761D02*
X77857142Y-29821428D01*
X77857142Y-30202380D02*
X77761904Y-30011904D01*
X77666666Y-29916666D01*
X77476190Y-29821428D01*
X77285714Y-29821428D01*
X76333333Y-31154761D02*
X76523809Y-31059523D01*
X76619047Y-30964285D01*
X76714285Y-30773809D01*
X76714285Y-30202380D01*
X76619047Y-30011904D01*
X76523809Y-29916666D01*
X76333333Y-29821428D01*
X76047619Y-29821428D01*
X75857142Y-29916666D01*
X75761904Y-30011904D01*
X75666666Y-30202380D01*
X75666666Y-30773809D01*
X75761904Y-30964285D01*
X75857142Y-31059523D01*
X76047619Y-31154761D01*
X76333333Y-31154761D01*
X74523809Y-31154761D02*
X74714285Y-31059523D01*
X74809523Y-30869047D01*
X74809523Y-29154761D01*
X73476190Y-31154761D02*
X73666666Y-31059523D01*
X73761904Y-30869047D01*
X73761904Y-29154761D01*
X71952380Y-31059523D02*
X72142857Y-31154761D01*
X72523809Y-31154761D01*
X72714285Y-31059523D01*
X72809523Y-30869047D01*
X72809523Y-30107142D01*
X72714285Y-29916666D01*
X72523809Y-29821428D01*
X72142857Y-29821428D01*
X71952380Y-29916666D01*
X71857142Y-30107142D01*
X71857142Y-30297619D01*
X72809523Y-30488095D01*
X71000000Y-31154761D02*
X71000000Y-29821428D01*
X71000000Y-30202380D02*
X70904761Y-30011904D01*
X70809523Y-29916666D01*
X70619047Y-29821428D01*
X70428571Y-29821428D01*
X68523809Y-29154761D02*
X67857142Y-31154761D01*
X67190476Y-29154761D01*
X65476190Y-31154761D02*
X66619047Y-31154761D01*
X66047619Y-31154761D02*
X66047619Y-29154761D01*
X66238095Y-29440476D01*
X66428571Y-29630952D01*
X66619047Y-29726190D01*
X44404761Y-38904761D02*
X45357142Y-38904761D01*
X45357142Y-36904761D01*
X43738095Y-37857142D02*
X43071428Y-37857142D01*
X42785714Y-38904761D02*
X43738095Y-38904761D01*
X43738095Y-36904761D01*
X42785714Y-36904761D01*
X41261904Y-37857142D02*
X41928571Y-37857142D01*
X41928571Y-38904761D02*
X41928571Y-36904761D01*
X40976190Y-36904761D01*
X40500000Y-36904761D02*
X39357142Y-36904761D01*
X39928571Y-38904761D02*
X39928571Y-36904761D01*
X120166666Y-39404761D02*
X120833333Y-38452380D01*
X121309523Y-39404761D02*
X121309523Y-37404761D01*
X120547619Y-37404761D01*
X120357142Y-37500000D01*
X120261904Y-37595238D01*
X120166666Y-37785714D01*
X120166666Y-38071428D01*
X120261904Y-38261904D01*
X120357142Y-38357142D01*
X120547619Y-38452380D01*
X121309523Y-38452380D01*
X119309523Y-39404761D02*
X119309523Y-37404761D01*
X117309523Y-37500000D02*
X117500000Y-37404761D01*
X117785714Y-37404761D01*
X118071428Y-37500000D01*
X118261904Y-37690476D01*
X118357142Y-37880952D01*
X118452380Y-38261904D01*
X118452380Y-38547619D01*
X118357142Y-38928571D01*
X118261904Y-39119047D01*
X118071428Y-39309523D01*
X117785714Y-39404761D01*
X117595238Y-39404761D01*
X117309523Y-39309523D01*
X117214285Y-39214285D01*
X117214285Y-38547619D01*
X117595238Y-38547619D01*
X116357142Y-39404761D02*
X116357142Y-37404761D01*
X116357142Y-38357142D02*
X115214285Y-38357142D01*
X115214285Y-39404761D02*
X115214285Y-37404761D01*
X114547619Y-37404761D02*
X113404761Y-37404761D01*
X113976190Y-39404761D02*
X113976190Y-37404761D01*
X67023809Y-25500000D02*
X67214285Y-25404761D01*
X67500000Y-25404761D01*
X67785714Y-25500000D01*
X67976190Y-25690476D01*
X68071428Y-25880952D01*
X68166666Y-26261904D01*
X68166666Y-26547619D01*
X68071428Y-26928571D01*
X67976190Y-27119047D01*
X67785714Y-27309523D01*
X67500000Y-27404761D01*
X67309523Y-27404761D01*
X67023809Y-27309523D01*
X66928571Y-27214285D01*
X66928571Y-26547619D01*
X67309523Y-26547619D01*
X66071428Y-27404761D02*
X66071428Y-25404761D01*
X64928571Y-27404761D01*
X64928571Y-25404761D01*
X63976190Y-27404761D02*
X63976190Y-25404761D01*
X63500000Y-25404761D01*
X63214285Y-25500000D01*
X63023809Y-25690476D01*
X62928571Y-25880952D01*
X62833333Y-26261904D01*
X62833333Y-26547619D01*
X62928571Y-26928571D01*
X63023809Y-27119047D01*
X63214285Y-27309523D01*
X63500000Y-27404761D01*
X63976190Y-27404761D01*
X97642857Y-26642857D02*
X96119047Y-26642857D01*
X96880952Y-27404761D02*
X96880952Y-25880952D01*
X94500000Y-26357142D02*
X94214285Y-26452380D01*
X94119047Y-26547619D01*
X94023809Y-26738095D01*
X94023809Y-27023809D01*
X94119047Y-27214285D01*
X94214285Y-27309523D01*
X94404761Y-27404761D01*
X95166666Y-27404761D01*
X95166666Y-25404761D01*
X94500000Y-25404761D01*
X94309523Y-25500000D01*
X94214285Y-25595238D01*
X94119047Y-25785714D01*
X94119047Y-25976190D01*
X94214285Y-26166666D01*
X94309523Y-26261904D01*
X94500000Y-26357142D01*
X95166666Y-26357142D01*
X93261904Y-26833333D02*
X92309523Y-26833333D01*
X93452380Y-27404761D02*
X92785714Y-25404761D01*
X92119047Y-27404761D01*
X91738095Y-25404761D02*
X90595238Y-25404761D01*
X91166666Y-27404761D02*
X91166666Y-25404761D01*
X90214285Y-25404761D02*
X89071428Y-25404761D01*
X89642857Y-27404761D02*
X89642857Y-25404761D01*
%LPC*%
D11*
G04 #@! TO.C,C205*
X68500000Y-36000000D03*
X70419873Y-33500000D03*
D12*
X74080127Y-38500000D03*
X76000000Y-36000000D03*
G04 #@! TD*
D11*
G04 #@! TO.C,C206*
X84000000Y-48500000D03*
X85919873Y-46000000D03*
D12*
X89580127Y-51000000D03*
X91500000Y-48500000D03*
G04 #@! TD*
D11*
G04 #@! TO.C,C207*
X68500000Y-60000000D03*
X70419873Y-57500000D03*
D12*
X74080127Y-62500000D03*
X76000000Y-60000000D03*
G04 #@! TD*
D11*
G04 #@! TO.C,C208*
X84000000Y-72500000D03*
X85919873Y-70000000D03*
D12*
X89580127Y-75000000D03*
X91500000Y-72500000D03*
G04 #@! TD*
D11*
G04 #@! TO.C,C209*
X68500000Y-84000000D03*
X70419873Y-81500000D03*
D12*
X74080127Y-86500000D03*
X76000000Y-84000000D03*
G04 #@! TD*
D11*
G04 #@! TO.C,C210*
X84000000Y-96500000D03*
X85919873Y-94000000D03*
D12*
X89580127Y-99000000D03*
X91500000Y-96500000D03*
G04 #@! TD*
D11*
G04 #@! TO.C,C211*
X68500000Y-108000000D03*
X70419873Y-105500000D03*
D12*
X74080127Y-110500000D03*
X76000000Y-108000000D03*
G04 #@! TD*
D11*
G04 #@! TO.C,C212*
X84000000Y-120500000D03*
X85919873Y-118000000D03*
D12*
X89580127Y-123000000D03*
X91500000Y-120500000D03*
G04 #@! TD*
D13*
G04 #@! TO.C,D405*
X128000000Y-85000000D03*
D14*
X128000000Y-82460000D03*
X128000000Y-79920000D03*
G04 #@! TD*
D15*
G04 #@! TO.C,TH401*
X33000000Y-64080000D03*
D16*
X33000000Y-61540000D03*
G04 #@! TD*
D17*
G04 #@! TO.C,J107*
X30500000Y-154875000D03*
D18*
X30500000Y-152335000D03*
X30500000Y-149795000D03*
X30500000Y-147255000D03*
X30500000Y-144715000D03*
X30500000Y-142175000D03*
X30500000Y-139635000D03*
X30500000Y-137095000D03*
G04 #@! TD*
G04 #@! TO.C,J104*
G36*
G01*
X74700000Y-181350000D02*
X73250000Y-181350000D01*
G75*
G02*
X73000000Y-181100000I0J250000D01*
G01*
X73000000Y-179900000D01*
G75*
G02*
X73250000Y-179650000I250000J0D01*
G01*
X74700000Y-179650000D01*
G75*
G02*
X74950000Y-179900000I0J-250000D01*
G01*
X74950000Y-181100000D01*
G75*
G02*
X74700000Y-181350000I-250000J0D01*
G01*
G37*
D19*
X73975000Y-178000000D03*
X73975000Y-175500000D03*
G04 #@! TD*
D20*
G04 #@! TO.C,H112*
X105500000Y-91000000D03*
G04 #@! TD*
D17*
G04 #@! TO.C,J106*
X30500000Y-161975000D03*
D18*
X30500000Y-164515000D03*
X30500000Y-167055000D03*
G04 #@! TD*
D21*
G04 #@! TO.C,BZ101*
X72310784Y-127500000D03*
D22*
X67310784Y-127500000D03*
G04 #@! TD*
G04 #@! TO.C,J103*
G36*
G01*
X64725000Y-181350000D02*
X63275000Y-181350000D01*
G75*
G02*
X63025000Y-181100000I0J250000D01*
G01*
X63025000Y-179900000D01*
G75*
G02*
X63275000Y-179650000I250000J0D01*
G01*
X64725000Y-179650000D01*
G75*
G02*
X64975000Y-179900000I0J-250000D01*
G01*
X64975000Y-181100000D01*
G75*
G02*
X64725000Y-181350000I-250000J0D01*
G01*
G37*
D19*
X64000000Y-178000000D03*
X64000000Y-175500000D03*
G04 #@! TD*
D13*
G04 #@! TO.C,D401*
X32000000Y-41000000D03*
D14*
X32000000Y-43540000D03*
X32000000Y-46080000D03*
G04 #@! TD*
D20*
G04 #@! TO.C,H111*
X54500000Y-91000000D03*
G04 #@! TD*
D23*
G04 #@! TO.C,H104*
X128000000Y-181000000D03*
G04 #@! TD*
D13*
G04 #@! TO.C,Q412*
X128000000Y-129000000D03*
D14*
X128000000Y-126460000D03*
X128000000Y-123920000D03*
G04 #@! TD*
D24*
G04 #@! TO.C,U201*
X128000000Y-145400000D03*
D25*
X128000000Y-143700000D03*
X128000000Y-142000000D03*
X128000000Y-140300000D03*
X128000000Y-138600000D03*
G04 #@! TD*
D21*
G04 #@! TO.C,C214*
X108132323Y-134500000D03*
D22*
X113132323Y-134500000D03*
G04 #@! TD*
D13*
G04 #@! TO.C,Q408*
X128000000Y-57000000D03*
D14*
X128000000Y-54460000D03*
X128000000Y-51920000D03*
G04 #@! TD*
D13*
G04 #@! TO.C,Q409*
X128000000Y-74000000D03*
D14*
X128000000Y-71460000D03*
X128000000Y-68920000D03*
G04 #@! TD*
D13*
G04 #@! TO.C,Q403*
X32000000Y-69000000D03*
D14*
X32000000Y-71540000D03*
X32000000Y-74080000D03*
G04 #@! TD*
D13*
G04 #@! TO.C,Q402*
X32000000Y-52000000D03*
D14*
X32000000Y-54540000D03*
X32000000Y-57080000D03*
G04 #@! TD*
D20*
G04 #@! TO.C,H110*
X105500000Y-35000000D03*
G04 #@! TD*
G04 #@! TO.C,J109*
G36*
G01*
X113150000Y-179750000D02*
X113150000Y-178250000D01*
G75*
G02*
X113400000Y-178000000I250000J0D01*
G01*
X114600000Y-178000000D01*
G75*
G02*
X114850000Y-178250000I0J-250000D01*
G01*
X114850000Y-179750000D01*
G75*
G02*
X114600000Y-180000000I-250000J0D01*
G01*
X113400000Y-180000000D01*
G75*
G02*
X113150000Y-179750000I0J250000D01*
G01*
G37*
D26*
X116500000Y-179000000D03*
G04 #@! TD*
D20*
G04 #@! TO.C,H109*
X54500000Y-35000000D03*
G04 #@! TD*
G04 #@! TO.C,H105*
X54500000Y-119000000D03*
G04 #@! TD*
D23*
G04 #@! TO.C,H103*
X32000000Y-181000000D03*
G04 #@! TD*
D20*
G04 #@! TO.C,H107*
X54500000Y-63000000D03*
G04 #@! TD*
D15*
G04 #@! TO.C,TH402*
X127000000Y-64000000D03*
D16*
X127000000Y-61460000D03*
G04 #@! TD*
D13*
G04 #@! TO.C,Q407*
X128000000Y-35000000D03*
D14*
X128000000Y-32460000D03*
X128000000Y-29920000D03*
G04 #@! TD*
D13*
G04 #@! TO.C,Q411*
X128000000Y-107000000D03*
D14*
X128000000Y-104460000D03*
X128000000Y-101920000D03*
G04 #@! TD*
G04 #@! TO.C,J110*
G36*
G01*
X54450000Y-181350000D02*
X53000000Y-181350000D01*
G75*
G02*
X52750000Y-181100000I0J250000D01*
G01*
X52750000Y-179900000D01*
G75*
G02*
X53000000Y-179650000I250000J0D01*
G01*
X54450000Y-179650000D01*
G75*
G02*
X54700000Y-179900000I0J-250000D01*
G01*
X54700000Y-181100000D01*
G75*
G02*
X54450000Y-181350000I-250000J0D01*
G01*
G37*
D19*
X53725000Y-178000000D03*
X53725000Y-175500000D03*
G04 #@! TD*
D13*
G04 #@! TO.C,Q404*
X32000000Y-91000000D03*
D14*
X32000000Y-93540000D03*
X32000000Y-96080000D03*
G04 #@! TD*
G04 #@! TO.C,J105*
G36*
G01*
X84700000Y-181350000D02*
X83250000Y-181350000D01*
G75*
G02*
X83000000Y-181100000I0J250000D01*
G01*
X83000000Y-179900000D01*
G75*
G02*
X83250000Y-179650000I250000J0D01*
G01*
X84700000Y-179650000D01*
G75*
G02*
X84950000Y-179900000I0J-250000D01*
G01*
X84950000Y-181100000D01*
G75*
G02*
X84700000Y-181350000I-250000J0D01*
G01*
G37*
D19*
X83975000Y-178000000D03*
X83975000Y-175500000D03*
G04 #@! TD*
D13*
G04 #@! TO.C,D403*
X32000000Y-113000000D03*
D14*
X32000000Y-115540000D03*
X32000000Y-118080000D03*
G04 #@! TD*
D13*
G04 #@! TO.C,D404*
X128000000Y-46000000D03*
D14*
X128000000Y-43460000D03*
X128000000Y-40920000D03*
G04 #@! TD*
D13*
G04 #@! TO.C,Q410*
X128000000Y-96000000D03*
D14*
X128000000Y-93460000D03*
X128000000Y-90920000D03*
G04 #@! TD*
D27*
G04 #@! TO.C,C201*
X114000000Y-158000000D03*
D15*
X110500000Y-158000000D03*
G04 #@! TD*
G04 #@! TO.C,J201*
G36*
G01*
X123150000Y-153750000D02*
X123150000Y-152250000D01*
G75*
G02*
X123400000Y-152000000I250000J0D01*
G01*
X124600000Y-152000000D01*
G75*
G02*
X124850000Y-152250000I0J-250000D01*
G01*
X124850000Y-153750000D01*
G75*
G02*
X124600000Y-154000000I-250000J0D01*
G01*
X123400000Y-154000000D01*
G75*
G02*
X123150000Y-153750000I0J250000D01*
G01*
G37*
D26*
X126500000Y-153000000D03*
G04 #@! TD*
D13*
G04 #@! TO.C,Q401*
X32000000Y-30000000D03*
D14*
X32000000Y-32540000D03*
X32000000Y-35080000D03*
G04 #@! TD*
D23*
G04 #@! TO.C,H101*
X43500000Y-29000000D03*
G04 #@! TD*
D28*
G04 #@! TO.C,J101*
X45820000Y-177370000D03*
D29*
X45820000Y-181550000D03*
X37180000Y-181550000D03*
D28*
X37180000Y-177370000D03*
D30*
X38610000Y-177900000D03*
X44390000Y-177900000D03*
G04 #@! TD*
D20*
G04 #@! TO.C,H108*
X105500000Y-63000000D03*
G04 #@! TD*
G04 #@! TO.C,J108*
G36*
G01*
X95150000Y-179750000D02*
X95150000Y-178250000D01*
G75*
G02*
X95400000Y-178000000I250000J0D01*
G01*
X96600000Y-178000000D01*
G75*
G02*
X96850000Y-178250000I0J-250000D01*
G01*
X96850000Y-179750000D01*
G75*
G02*
X96600000Y-180000000I-250000J0D01*
G01*
X95400000Y-180000000D01*
G75*
G02*
X95150000Y-179750000I0J250000D01*
G01*
G37*
D26*
X98500000Y-179000000D03*
G04 #@! TD*
D13*
G04 #@! TO.C,D402*
X32000000Y-80000000D03*
D14*
X32000000Y-82540000D03*
X32000000Y-85080000D03*
G04 #@! TD*
D13*
G04 #@! TO.C,D406*
X128000000Y-118000000D03*
D14*
X128000000Y-115460000D03*
X128000000Y-112920000D03*
G04 #@! TD*
D17*
G04 #@! TO.C,J102*
X77075000Y-162480000D03*
D18*
X77075000Y-165020000D03*
X74535000Y-162480000D03*
X74535000Y-165020000D03*
X71995000Y-162480000D03*
X71995000Y-165020000D03*
X69455000Y-162480000D03*
X69455000Y-165020000D03*
X66915000Y-162480000D03*
X66915000Y-165020000D03*
G04 #@! TD*
D23*
G04 #@! TO.C,H102*
X116500000Y-29000000D03*
G04 #@! TD*
D13*
G04 #@! TO.C,Q406*
X32000000Y-124000000D03*
D14*
X32000000Y-126540000D03*
X32000000Y-129080000D03*
G04 #@! TD*
D20*
G04 #@! TO.C,H106*
X105500000Y-119000000D03*
G04 #@! TD*
D13*
G04 #@! TO.C,Q405*
X32000000Y-102000000D03*
D14*
X32000000Y-104540000D03*
X32000000Y-107080000D03*
G04 #@! TD*
G36*
X26942121Y-25020002D02*
G01*
X26988614Y-25073658D01*
X27000000Y-25126000D01*
X27000000Y-184874000D01*
X26979998Y-184942121D01*
X26926342Y-184988614D01*
X26874000Y-185000000D01*
X25126000Y-185000000D01*
X25057879Y-184979998D01*
X25011386Y-184926342D01*
X25000000Y-184874000D01*
X25000000Y-25126000D01*
X25020002Y-25057879D01*
X25073658Y-25011386D01*
X25126000Y-25000000D01*
X26874000Y-25000000D01*
X26942121Y-25020002D01*
G37*
G36*
X134942121Y-25020002D02*
G01*
X134988614Y-25073658D01*
X135000000Y-25126000D01*
X135000000Y-184874000D01*
X134979998Y-184942121D01*
X134926342Y-184988614D01*
X134874000Y-185000000D01*
X133126000Y-185000000D01*
X133057879Y-184979998D01*
X133011386Y-184926342D01*
X133000000Y-184874000D01*
X133000000Y-25126000D01*
X133020002Y-25057879D01*
X133073658Y-25011386D01*
X133126000Y-25000000D01*
X134874000Y-25000000D01*
X134942121Y-25020002D01*
G37*
M02*
