M48
; DRILL file {KiCad (5.99.0-11727-g1ec70d30af)} date Fri Aug 20 03:51:29 2021
; FORMAT={-:-/ absolute / metric / decimal}
; #@! TF.CreationDate,2021-08-20T03:51:29+02:00
; #@! TF.GenerationSoftware,Kicad,Pcbnew,(5.99.0-11727-g1ec70d30af)
; #@! TF.FileFunction,Plated,1,4,PTH
FMAT,2
METRIC
; #@! TA.AperFunction,Plated,PTH,ViaDrill
T1C0.400
; #@! TA.AperFunction,Plated,PTH,ComponentDrill
T2C0.600
; #@! TA.AperFunction,Plated,PTH,ComponentDrill
T3C0.800
; #@! TA.AperFunction,Plated,PTH,ComponentDrill
T4C0.950
; #@! TA.AperFunction,Plated,PTH,ComponentDrill
T5C1.000
; #@! TA.AperFunction,Plated,PTH,ComponentDrill
T6C1.100
; #@! TA.AperFunction,Plated,PTH,ComponentDrill
T7C1.200
; #@! TA.AperFunction,Plated,PTH,ComponentDrill
T8C4.300
%
G90
G05
T1
X31.5Y-171.162
X32.75Y-156.0
X33.5Y-171.662
X34.0Y-164.5
X34.71Y-133.21
X35.5Y-167.0
X36.5Y-147.75
X37.0Y-33.0
X37.0Y-42.0
X37.0Y-45.0
X37.0Y-50.0
X37.0Y-72.0
X37.0Y-81.0
X37.0Y-84.0
X37.0Y-89.0
X37.0Y-105.0
X37.0Y-114.0
X37.0Y-117.0
X37.0Y-122.0
X37.5Y-65.5
X37.5Y-144.75
X37.75Y-169.5
X38.75Y-174.5
X39.0Y-48.0
X39.0Y-87.0
X39.0Y-120.0
X39.25Y-143.25
X39.651Y-79.638
X39.651Y-112.5
X40.0Y-169.75
X40.137Y-40.637
X40.5Y-62.0
X40.5Y-64.0
X40.5Y-147.75
X40.5Y-162.5
X41.0Y-140.5
X41.5Y-133.5
X41.862Y-40.637
X42.0Y-169.75
X42.5Y-79.5
X42.5Y-112.5
X42.75Y-162.5
X43.0Y-48.0
X43.0Y-87.0
X43.0Y-120.0
X43.5Y-127.5
X44.25Y-169.5
X44.25Y-174.5
X44.5Y-133.5
X45.25Y-166.25
X46.0Y-43.0
X46.0Y-45.0
X46.0Y-81.5
X46.0Y-84.0
X46.0Y-114.5
X46.0Y-117.0
X46.0Y-151.25
X46.0Y-159.5
X46.0Y-169.0
X47.0Y-134.5
X47.637Y-140.387
X47.724Y-142.25
X47.75Y-159.5
X48.75Y-152.5
X49.5Y-133.5
X49.5Y-159.5
X50.75Y-139.5
X50.75Y-145.0
X51.0Y-147.75
X51.0Y-149.25
X51.0Y-152.5
X51.25Y-146.25
X51.75Y-170.75
X52.012Y-139.738
X52.5Y-133.5
X52.5Y-144.5
X52.5Y-149.25
X53.25Y-158.75
X53.776Y-137.125
X54.0Y-132.0
X54.0Y-144.25
X54.215Y-145.8
X54.75Y-158.75
X55.154Y-146.45
X56.0Y-147.25
X56.938Y-141.0
X57.0Y-132.0
X58.0Y-137.75
X58.5Y-134.25
X59.2Y-139.2
X60.0Y-178.5
X61.25Y-151.387
X61.25Y-153.25
X61.965Y-159.285
X62.0Y-137.75
X62.45Y-143.7
X62.671Y-158.579
X63.378Y-157.872
X64.25Y-157.25
X66.5Y-137.75
X66.75Y-151.5
X68.45Y-144.75
X69.975Y-178.5
X70.0Y-172.5
X74.25Y-137.5
X74.25Y-138.75
X74.25Y-140.0
X80.5Y-152.0
X84.5Y-135.5
X84.5Y-136.5
X84.5Y-137.5
X88.5Y-167.5
X90.5Y-157.5
X91.0Y-143.75
X91.0Y-152.5
X92.5Y-152.5
X93.5Y-152.5
X95.0Y-152.5
X95.0Y-164.5
X96.73Y-171.0
X98.5Y-157.5
X99.0Y-133.75
X99.23Y-171.0
X100.0Y-133.75
X100.0Y-147.0
X101.0Y-133.75
X106.5Y-167.5
X113.0Y-164.5
X114.0Y-44.0
X114.0Y-46.0
X114.0Y-83.0
X114.0Y-85.0
X114.0Y-116.0
X114.0Y-118.0
X115.0Y-171.0
X117.0Y-48.0
X117.0Y-87.0
X117.0Y-120.0
X117.5Y-79.5
X117.5Y-112.5
X117.5Y-171.0
X118.137Y-40.637
X119.5Y-62.0
X119.5Y-64.0
X119.862Y-40.637
X120.0Y-148.0
X120.5Y-79.5
X120.5Y-112.5
X121.0Y-48.0
X121.0Y-87.0
X121.0Y-120.0
X121.5Y-136.5
X122.5Y-65.5
X123.0Y-37.0
X123.0Y-43.0
X123.0Y-46.0
X123.0Y-54.0
X123.0Y-76.0
X123.0Y-82.0
X123.0Y-85.0
X123.0Y-93.0
X123.0Y-109.0
X123.0Y-115.0
X123.0Y-118.0
X123.0Y-126.0
T3
X33.0Y-61.54
X33.0Y-64.08
X110.5Y-158.0
X114.0Y-158.0
X127.0Y-61.46
X127.0Y-64.0
T4
X53.725Y-175.5
X53.725Y-178.0
X53.725Y-180.5
X64.0Y-175.5
X64.0Y-178.0
X64.0Y-180.5
X73.975Y-175.5
X73.975Y-178.0
X73.975Y-180.5
X83.975Y-175.5
X83.975Y-178.0
X83.975Y-180.5
T5
X30.5Y-137.095
X30.5Y-139.635
X30.5Y-142.175
X30.5Y-144.715
X30.5Y-147.255
X30.5Y-149.795
X30.5Y-152.335
X30.5Y-154.875
X30.5Y-161.975
X30.5Y-164.515
X30.5Y-167.055
X66.915Y-162.48
X66.915Y-165.02
X67.311Y-127.5
X69.455Y-162.48
X69.455Y-165.02
X71.995Y-162.48
X71.995Y-165.02
X72.311Y-127.5
X74.535Y-162.48
X74.535Y-165.02
X77.075Y-162.48
X77.075Y-165.02
X96.0Y-179.0
X98.5Y-179.0
X108.132Y-134.5
X113.132Y-134.5
X114.0Y-179.0
X116.5Y-179.0
X124.0Y-153.0
X126.5Y-153.0
T6
X32.0Y-30.0
X32.0Y-32.54
X32.0Y-35.08
X32.0Y-41.0
X32.0Y-43.54
X32.0Y-46.08
X32.0Y-52.0
X32.0Y-54.54
X32.0Y-57.08
X32.0Y-69.0
X32.0Y-71.54
X32.0Y-74.08
X32.0Y-80.0
X32.0Y-82.54
X32.0Y-85.08
X32.0Y-91.0
X32.0Y-93.54
X32.0Y-96.08
X32.0Y-102.0
X32.0Y-104.54
X32.0Y-107.08
X32.0Y-113.0
X32.0Y-115.54
X32.0Y-118.08
X32.0Y-124.0
X32.0Y-126.54
X32.0Y-129.08
X128.0Y-29.92
X128.0Y-32.46
X128.0Y-35.0
X128.0Y-40.92
X128.0Y-43.46
X128.0Y-46.0
X128.0Y-51.92
X128.0Y-54.46
X128.0Y-57.0
X128.0Y-68.92
X128.0Y-71.46
X128.0Y-74.0
X128.0Y-79.92
X128.0Y-82.46
X128.0Y-85.0
X128.0Y-90.92
X128.0Y-93.46
X128.0Y-96.0
X128.0Y-101.92
X128.0Y-104.46
X128.0Y-107.0
X128.0Y-112.92
X128.0Y-115.46
X128.0Y-118.0
X128.0Y-123.92
X128.0Y-126.46
X128.0Y-129.0
X128.0Y-138.6
X128.0Y-140.3
X128.0Y-142.0
X128.0Y-143.7
X128.0Y-145.4
T7
X68.5Y-36.0
X68.5Y-60.0
X68.5Y-84.0
X68.5Y-108.0
X70.42Y-33.5
X70.42Y-57.5
X70.42Y-81.5
X70.42Y-105.5
X74.08Y-38.5
X74.08Y-62.5
X74.08Y-86.5
X74.08Y-110.5
X76.0Y-36.0
X76.0Y-60.0
X76.0Y-84.0
X76.0Y-108.0
X84.0Y-48.5
X84.0Y-72.5
X84.0Y-96.5
X84.0Y-120.5
X85.92Y-46.0
X85.92Y-70.0
X85.92Y-94.0
X85.92Y-118.0
X89.58Y-51.0
X89.58Y-75.0
X89.58Y-99.0
X89.58Y-123.0
X91.5Y-48.5
X91.5Y-72.5
X91.5Y-96.5
X91.5Y-120.5
T8
X54.5Y-35.0
X54.5Y-63.0
X54.5Y-91.0
X54.5Y-119.0
X105.5Y-35.0
X105.5Y-63.0
X105.5Y-91.0
X105.5Y-119.0
T2
X37.18Y-176.82G85X37.18Y-177.92
G05
X37.18Y-181.25G85X37.18Y-181.85
G05
X45.82Y-176.82G85X45.82Y-177.92
G05
X45.82Y-181.25G85X45.82Y-181.85
G05
T0
M30
