G04 #@! TF.GenerationSoftware,KiCad,Pcbnew,(5.99.0-11727-g1ec70d30af)*
G04 #@! TF.CreationDate,2021-08-20T03:51:17+02:00*
G04 #@! TF.ProjectId,motorcontroller,6d6f746f-7263-46f6-9e74-726f6c6c6572,rev?*
G04 #@! TF.SameCoordinates,Original*
G04 #@! TF.FileFunction,Soldermask,Top*
G04 #@! TF.FilePolarity,Negative*
%FSLAX46Y46*%
G04 Gerber Fmt 4.6, Leading zero omitted, Abs format (unit mm)*
G04 Created by KiCad (PCBNEW (5.99.0-11727-g1ec70d30af)) date 2021-08-20 03:51:17*
%MOMM*%
%LPD*%
G01*
G04 APERTURE LIST*
%ADD10R,2.400000X2.400000*%
%ADD11C,2.400000*%
%ADD12R,2.000000X1.905000*%
%ADD13O,2.000000X1.905000*%
%ADD14R,1.800000X3.500000*%
%ADD15R,1.100000X1.100000*%
%ADD16C,1.600000*%
%ADD17O,1.600000X1.600000*%
%ADD18C,2.000000*%
%ADD19R,1.700000X1.700000*%
%ADD20O,1.700000X1.700000*%
%ADD21O,1.950000X1.700000*%
%ADD22C,8.600000*%
%ADD23R,2.000000X2.000000*%
%ADD24R,3.810000X4.240000*%
%ADD25C,3.200000*%
%ADD26R,2.000000X0.650000*%
%ADD27R,1.800000X1.275000*%
%ADD28O,1.800000X1.275000*%
%ADD29R,2.100000X1.400000*%
%ADD30O,1.700000X2.000000*%
%ADD31R,1.250000X0.900000*%
%ADD32R,4.700000X3.600000*%
%ADD33R,1.600000X1.600000*%
%ADD34R,1.400000X1.200000*%
%ADD35R,1.400000X1.000000*%
%ADD36R,2.400000X3.500000*%
%ADD37O,1.000000X2.100000*%
%ADD38O,1.000000X1.600000*%
%ADD39R,0.600000X2.050000*%
%ADD40R,0.300000X2.050000*%
%ADD41C,0.650000*%
%ADD42R,2.350000X5.700000*%
G04 APERTURE END LIST*
D10*
G04 #@! TO.C,C205*
X68500000Y-36000000D03*
X70419873Y-33500000D03*
D11*
X74080127Y-38500000D03*
X76000000Y-36000000D03*
G04 #@! TD*
D10*
G04 #@! TO.C,C206*
X84000000Y-48500000D03*
X85919873Y-46000000D03*
D11*
X89580127Y-51000000D03*
X91500000Y-48500000D03*
G04 #@! TD*
D10*
G04 #@! TO.C,C207*
X68500000Y-60000000D03*
X70419873Y-57500000D03*
D11*
X74080127Y-62500000D03*
X76000000Y-60000000D03*
G04 #@! TD*
D10*
G04 #@! TO.C,C208*
X84000000Y-72500000D03*
X85919873Y-70000000D03*
D11*
X89580127Y-75000000D03*
X91500000Y-72500000D03*
G04 #@! TD*
D10*
G04 #@! TO.C,C209*
X68500000Y-84000000D03*
X70419873Y-81500000D03*
D11*
X74080127Y-86500000D03*
X76000000Y-84000000D03*
G04 #@! TD*
D10*
G04 #@! TO.C,C210*
X84000000Y-96500000D03*
X85919873Y-94000000D03*
D11*
X89580127Y-99000000D03*
X91500000Y-96500000D03*
G04 #@! TD*
D10*
G04 #@! TO.C,C211*
X68500000Y-108000000D03*
X70419873Y-105500000D03*
D11*
X74080127Y-110500000D03*
X76000000Y-108000000D03*
G04 #@! TD*
D10*
G04 #@! TO.C,C212*
X84000000Y-120500000D03*
X85919873Y-118000000D03*
D11*
X89580127Y-123000000D03*
X91500000Y-120500000D03*
G04 #@! TD*
G04 #@! TO.C,R404*
G36*
G01*
X37237500Y-53400000D02*
X36762500Y-53400000D01*
G75*
G02*
X36525000Y-53162500I0J237500D01*
G01*
X36525000Y-52662500D01*
G75*
G02*
X36762500Y-52425000I237500J0D01*
G01*
X37237500Y-52425000D01*
G75*
G02*
X37475000Y-52662500I0J-237500D01*
G01*
X37475000Y-53162500D01*
G75*
G02*
X37237500Y-53400000I-237500J0D01*
G01*
G37*
G36*
G01*
X37237500Y-51575000D02*
X36762500Y-51575000D01*
G75*
G02*
X36525000Y-51337500I0J237500D01*
G01*
X36525000Y-50837500D01*
G75*
G02*
X36762500Y-50600000I237500J0D01*
G01*
X37237500Y-50600000D01*
G75*
G02*
X37475000Y-50837500I0J-237500D01*
G01*
X37475000Y-51337500D01*
G75*
G02*
X37237500Y-51575000I-237500J0D01*
G01*
G37*
G04 #@! TD*
G04 #@! TO.C,D103*
G36*
G01*
X43200000Y-157850000D02*
X42300000Y-157850000D01*
G75*
G02*
X42050000Y-157600000I0J250000D01*
G01*
X42050000Y-156950000D01*
G75*
G02*
X42300000Y-156700000I250000J0D01*
G01*
X43200000Y-156700000D01*
G75*
G02*
X43450000Y-156950000I0J-250000D01*
G01*
X43450000Y-157600000D01*
G75*
G02*
X43200000Y-157850000I-250000J0D01*
G01*
G37*
G36*
G01*
X43200000Y-155800000D02*
X42300000Y-155800000D01*
G75*
G02*
X42050000Y-155550000I0J250000D01*
G01*
X42050000Y-154900000D01*
G75*
G02*
X42300000Y-154650000I250000J0D01*
G01*
X43200000Y-154650000D01*
G75*
G02*
X43450000Y-154900000I0J-250000D01*
G01*
X43450000Y-155550000D01*
G75*
G02*
X43200000Y-155800000I-250000J0D01*
G01*
G37*
G04 #@! TD*
G04 #@! TO.C,C412*
G36*
G01*
X117600000Y-87237500D02*
X117600000Y-86762500D01*
G75*
G02*
X117837500Y-86525000I237500J0D01*
G01*
X118437500Y-86525000D01*
G75*
G02*
X118675000Y-86762500I0J-237500D01*
G01*
X118675000Y-87237500D01*
G75*
G02*
X118437500Y-87475000I-237500J0D01*
G01*
X117837500Y-87475000D01*
G75*
G02*
X117600000Y-87237500I0J237500D01*
G01*
G37*
G36*
G01*
X119325000Y-87237500D02*
X119325000Y-86762500D01*
G75*
G02*
X119562500Y-86525000I237500J0D01*
G01*
X120162500Y-86525000D01*
G75*
G02*
X120400000Y-86762500I0J-237500D01*
G01*
X120400000Y-87237500D01*
G75*
G02*
X120162500Y-87475000I-237500J0D01*
G01*
X119562500Y-87475000D01*
G75*
G02*
X119325000Y-87237500I0J237500D01*
G01*
G37*
G04 #@! TD*
D12*
G04 #@! TO.C,D405*
X128000000Y-85000000D03*
D13*
X128000000Y-82460000D03*
X128000000Y-79920000D03*
G04 #@! TD*
G04 #@! TO.C,U101*
G36*
G01*
X55755000Y-161300000D02*
X56055000Y-161300000D01*
G75*
G02*
X56205000Y-161450000I0J-150000D01*
G01*
X56205000Y-163100000D01*
G75*
G02*
X56055000Y-163250000I-150000J0D01*
G01*
X55755000Y-163250000D01*
G75*
G02*
X55605000Y-163100000I0J150000D01*
G01*
X55605000Y-161450000D01*
G75*
G02*
X55755000Y-161300000I150000J0D01*
G01*
G37*
G36*
G01*
X54485000Y-161300000D02*
X54785000Y-161300000D01*
G75*
G02*
X54935000Y-161450000I0J-150000D01*
G01*
X54935000Y-163100000D01*
G75*
G02*
X54785000Y-163250000I-150000J0D01*
G01*
X54485000Y-163250000D01*
G75*
G02*
X54335000Y-163100000I0J150000D01*
G01*
X54335000Y-161450000D01*
G75*
G02*
X54485000Y-161300000I150000J0D01*
G01*
G37*
G36*
G01*
X53215000Y-161300000D02*
X53515000Y-161300000D01*
G75*
G02*
X53665000Y-161450000I0J-150000D01*
G01*
X53665000Y-163100000D01*
G75*
G02*
X53515000Y-163250000I-150000J0D01*
G01*
X53215000Y-163250000D01*
G75*
G02*
X53065000Y-163100000I0J150000D01*
G01*
X53065000Y-161450000D01*
G75*
G02*
X53215000Y-161300000I150000J0D01*
G01*
G37*
G36*
G01*
X51945000Y-161300000D02*
X52245000Y-161300000D01*
G75*
G02*
X52395000Y-161450000I0J-150000D01*
G01*
X52395000Y-163100000D01*
G75*
G02*
X52245000Y-163250000I-150000J0D01*
G01*
X51945000Y-163250000D01*
G75*
G02*
X51795000Y-163100000I0J150000D01*
G01*
X51795000Y-161450000D01*
G75*
G02*
X51945000Y-161300000I150000J0D01*
G01*
G37*
G36*
G01*
X51945000Y-166250000D02*
X52245000Y-166250000D01*
G75*
G02*
X52395000Y-166400000I0J-150000D01*
G01*
X52395000Y-168050000D01*
G75*
G02*
X52245000Y-168200000I-150000J0D01*
G01*
X51945000Y-168200000D01*
G75*
G02*
X51795000Y-168050000I0J150000D01*
G01*
X51795000Y-166400000D01*
G75*
G02*
X51945000Y-166250000I150000J0D01*
G01*
G37*
G36*
G01*
X53215000Y-166250000D02*
X53515000Y-166250000D01*
G75*
G02*
X53665000Y-166400000I0J-150000D01*
G01*
X53665000Y-168050000D01*
G75*
G02*
X53515000Y-168200000I-150000J0D01*
G01*
X53215000Y-168200000D01*
G75*
G02*
X53065000Y-168050000I0J150000D01*
G01*
X53065000Y-166400000D01*
G75*
G02*
X53215000Y-166250000I150000J0D01*
G01*
G37*
G36*
G01*
X54485000Y-166250000D02*
X54785000Y-166250000D01*
G75*
G02*
X54935000Y-166400000I0J-150000D01*
G01*
X54935000Y-168050000D01*
G75*
G02*
X54785000Y-168200000I-150000J0D01*
G01*
X54485000Y-168200000D01*
G75*
G02*
X54335000Y-168050000I0J150000D01*
G01*
X54335000Y-166400000D01*
G75*
G02*
X54485000Y-166250000I150000J0D01*
G01*
G37*
G36*
G01*
X55755000Y-166250000D02*
X56055000Y-166250000D01*
G75*
G02*
X56205000Y-166400000I0J-150000D01*
G01*
X56205000Y-168050000D01*
G75*
G02*
X56055000Y-168200000I-150000J0D01*
G01*
X55755000Y-168200000D01*
G75*
G02*
X55605000Y-168050000I0J150000D01*
G01*
X55605000Y-166400000D01*
G75*
G02*
X55755000Y-166250000I150000J0D01*
G01*
G37*
G04 #@! TD*
G04 #@! TO.C,R111*
G36*
G01*
X57987500Y-166400000D02*
X57512500Y-166400000D01*
G75*
G02*
X57275000Y-166162500I0J237500D01*
G01*
X57275000Y-165662500D01*
G75*
G02*
X57512500Y-165425000I237500J0D01*
G01*
X57987500Y-165425000D01*
G75*
G02*
X58225000Y-165662500I0J-237500D01*
G01*
X58225000Y-166162500D01*
G75*
G02*
X57987500Y-166400000I-237500J0D01*
G01*
G37*
G36*
G01*
X57987500Y-164575000D02*
X57512500Y-164575000D01*
G75*
G02*
X57275000Y-164337500I0J237500D01*
G01*
X57275000Y-163837500D01*
G75*
G02*
X57512500Y-163600000I237500J0D01*
G01*
X57987500Y-163600000D01*
G75*
G02*
X58225000Y-163837500I0J-237500D01*
G01*
X58225000Y-164337500D01*
G75*
G02*
X57987500Y-164575000I-237500J0D01*
G01*
G37*
G04 #@! TD*
G04 #@! TO.C,R403*
G36*
G01*
X37237500Y-32400000D02*
X36762500Y-32400000D01*
G75*
G02*
X36525000Y-32162500I0J237500D01*
G01*
X36525000Y-31662500D01*
G75*
G02*
X36762500Y-31425000I237500J0D01*
G01*
X37237500Y-31425000D01*
G75*
G02*
X37475000Y-31662500I0J-237500D01*
G01*
X37475000Y-32162500D01*
G75*
G02*
X37237500Y-32400000I-237500J0D01*
G01*
G37*
G36*
G01*
X37237500Y-30575000D02*
X36762500Y-30575000D01*
G75*
G02*
X36525000Y-30337500I0J237500D01*
G01*
X36525000Y-29837500D01*
G75*
G02*
X36762500Y-29600000I237500J0D01*
G01*
X37237500Y-29600000D01*
G75*
G02*
X37475000Y-29837500I0J-237500D01*
G01*
X37475000Y-30337500D01*
G75*
G02*
X37237500Y-30575000I-237500J0D01*
G01*
G37*
G04 #@! TD*
D14*
G04 #@! TO.C,D502*
X90500000Y-181000000D03*
X90500000Y-176000000D03*
G04 #@! TD*
G04 #@! TO.C,R117*
G36*
G01*
X56400000Y-130512500D02*
X56400000Y-130987500D01*
G75*
G02*
X56162500Y-131225000I-237500J0D01*
G01*
X55662500Y-131225000D01*
G75*
G02*
X55425000Y-130987500I0J237500D01*
G01*
X55425000Y-130512500D01*
G75*
G02*
X55662500Y-130275000I237500J0D01*
G01*
X56162500Y-130275000D01*
G75*
G02*
X56400000Y-130512500I0J-237500D01*
G01*
G37*
G36*
G01*
X54575000Y-130512500D02*
X54575000Y-130987500D01*
G75*
G02*
X54337500Y-131225000I-237500J0D01*
G01*
X53837500Y-131225000D01*
G75*
G02*
X53600000Y-130987500I0J237500D01*
G01*
X53600000Y-130512500D01*
G75*
G02*
X53837500Y-130275000I237500J0D01*
G01*
X54337500Y-130275000D01*
G75*
G02*
X54575000Y-130512500I0J-237500D01*
G01*
G37*
G04 #@! TD*
G04 #@! TO.C,R402*
G36*
G01*
X36600000Y-62237500D02*
X36600000Y-61762500D01*
G75*
G02*
X36837500Y-61525000I237500J0D01*
G01*
X37337500Y-61525000D01*
G75*
G02*
X37575000Y-61762500I0J-237500D01*
G01*
X37575000Y-62237500D01*
G75*
G02*
X37337500Y-62475000I-237500J0D01*
G01*
X36837500Y-62475000D01*
G75*
G02*
X36600000Y-62237500I0J237500D01*
G01*
G37*
G36*
G01*
X38425000Y-62237500D02*
X38425000Y-61762500D01*
G75*
G02*
X38662500Y-61525000I237500J0D01*
G01*
X39162500Y-61525000D01*
G75*
G02*
X39400000Y-61762500I0J-237500D01*
G01*
X39400000Y-62237500D01*
G75*
G02*
X39162500Y-62475000I-237500J0D01*
G01*
X38662500Y-62475000D01*
G75*
G02*
X38425000Y-62237500I0J237500D01*
G01*
G37*
G04 #@! TD*
G04 #@! TO.C,R408*
G36*
G01*
X37237500Y-125400000D02*
X36762500Y-125400000D01*
G75*
G02*
X36525000Y-125162500I0J237500D01*
G01*
X36525000Y-124662500D01*
G75*
G02*
X36762500Y-124425000I237500J0D01*
G01*
X37237500Y-124425000D01*
G75*
G02*
X37475000Y-124662500I0J-237500D01*
G01*
X37475000Y-125162500D01*
G75*
G02*
X37237500Y-125400000I-237500J0D01*
G01*
G37*
G36*
G01*
X37237500Y-123575000D02*
X36762500Y-123575000D01*
G75*
G02*
X36525000Y-123337500I0J237500D01*
G01*
X36525000Y-122837500D01*
G75*
G02*
X36762500Y-122600000I237500J0D01*
G01*
X37237500Y-122600000D01*
G75*
G02*
X37475000Y-122837500I0J-237500D01*
G01*
X37475000Y-123337500D01*
G75*
G02*
X37237500Y-123575000I-237500J0D01*
G01*
G37*
G04 #@! TD*
D15*
G04 #@! TO.C,D204*
X88500000Y-146600000D03*
X88500000Y-149400000D03*
G04 #@! TD*
G04 #@! TO.C,C101*
G36*
G01*
X55400000Y-159762500D02*
X55400000Y-160237500D01*
G75*
G02*
X55162500Y-160475000I-237500J0D01*
G01*
X54562500Y-160475000D01*
G75*
G02*
X54325000Y-160237500I0J237500D01*
G01*
X54325000Y-159762500D01*
G75*
G02*
X54562500Y-159525000I237500J0D01*
G01*
X55162500Y-159525000D01*
G75*
G02*
X55400000Y-159762500I0J-237500D01*
G01*
G37*
G36*
G01*
X53675000Y-159762500D02*
X53675000Y-160237500D01*
G75*
G02*
X53437500Y-160475000I-237500J0D01*
G01*
X52837500Y-160475000D01*
G75*
G02*
X52600000Y-160237500I0J237500D01*
G01*
X52600000Y-159762500D01*
G75*
G02*
X52837500Y-159525000I237500J0D01*
G01*
X53437500Y-159525000D01*
G75*
G02*
X53675000Y-159762500I0J-237500D01*
G01*
G37*
G04 #@! TD*
G04 #@! TO.C,C219*
G36*
G01*
X62737500Y-153650000D02*
X62262500Y-153650000D01*
G75*
G02*
X62025000Y-153412500I0J237500D01*
G01*
X62025000Y-152812500D01*
G75*
G02*
X62262500Y-152575000I237500J0D01*
G01*
X62737500Y-152575000D01*
G75*
G02*
X62975000Y-152812500I0J-237500D01*
G01*
X62975000Y-153412500D01*
G75*
G02*
X62737500Y-153650000I-237500J0D01*
G01*
G37*
G36*
G01*
X62737500Y-151925000D02*
X62262500Y-151925000D01*
G75*
G02*
X62025000Y-151687500I0J237500D01*
G01*
X62025000Y-151087500D01*
G75*
G02*
X62262500Y-150850000I237500J0D01*
G01*
X62737500Y-150850000D01*
G75*
G02*
X62975000Y-151087500I0J-237500D01*
G01*
X62975000Y-151687500D01*
G75*
G02*
X62737500Y-151925000I-237500J0D01*
G01*
G37*
G04 #@! TD*
D16*
G04 #@! TO.C,TH401*
X33000000Y-64080000D03*
D17*
X33000000Y-61540000D03*
G04 #@! TD*
D18*
G04 #@! TO.C,TP101*
X97000000Y-156000000D03*
G04 #@! TD*
G04 #@! TO.C,R304*
G36*
G01*
X41762500Y-165850000D02*
X42237500Y-165850000D01*
G75*
G02*
X42475000Y-166087500I0J-237500D01*
G01*
X42475000Y-166587500D01*
G75*
G02*
X42237500Y-166825000I-237500J0D01*
G01*
X41762500Y-166825000D01*
G75*
G02*
X41525000Y-166587500I0J237500D01*
G01*
X41525000Y-166087500D01*
G75*
G02*
X41762500Y-165850000I237500J0D01*
G01*
G37*
G36*
G01*
X41762500Y-167675000D02*
X42237500Y-167675000D01*
G75*
G02*
X42475000Y-167912500I0J-237500D01*
G01*
X42475000Y-168412500D01*
G75*
G02*
X42237500Y-168650000I-237500J0D01*
G01*
X41762500Y-168650000D01*
G75*
G02*
X41525000Y-168412500I0J237500D01*
G01*
X41525000Y-167912500D01*
G75*
G02*
X41762500Y-167675000I237500J0D01*
G01*
G37*
G04 #@! TD*
G04 #@! TO.C,R307*
G36*
G01*
X36400000Y-157762500D02*
X36400000Y-158237500D01*
G75*
G02*
X36162500Y-158475000I-237500J0D01*
G01*
X35662500Y-158475000D01*
G75*
G02*
X35425000Y-158237500I0J237500D01*
G01*
X35425000Y-157762500D01*
G75*
G02*
X35662500Y-157525000I237500J0D01*
G01*
X36162500Y-157525000D01*
G75*
G02*
X36400000Y-157762500I0J-237500D01*
G01*
G37*
G36*
G01*
X34575000Y-157762500D02*
X34575000Y-158237500D01*
G75*
G02*
X34337500Y-158475000I-237500J0D01*
G01*
X33837500Y-158475000D01*
G75*
G02*
X33600000Y-158237500I0J237500D01*
G01*
X33600000Y-157762500D01*
G75*
G02*
X33837500Y-157525000I237500J0D01*
G01*
X34337500Y-157525000D01*
G75*
G02*
X34575000Y-157762500I0J-237500D01*
G01*
G37*
G04 #@! TD*
G04 #@! TO.C,R506*
G36*
G01*
X107600000Y-167737500D02*
X107600000Y-167262500D01*
G75*
G02*
X107837500Y-167025000I237500J0D01*
G01*
X108337500Y-167025000D01*
G75*
G02*
X108575000Y-167262500I0J-237500D01*
G01*
X108575000Y-167737500D01*
G75*
G02*
X108337500Y-167975000I-237500J0D01*
G01*
X107837500Y-167975000D01*
G75*
G02*
X107600000Y-167737500I0J237500D01*
G01*
G37*
G36*
G01*
X109425000Y-167737500D02*
X109425000Y-167262500D01*
G75*
G02*
X109662500Y-167025000I237500J0D01*
G01*
X110162500Y-167025000D01*
G75*
G02*
X110400000Y-167262500I0J-237500D01*
G01*
X110400000Y-167737500D01*
G75*
G02*
X110162500Y-167975000I-237500J0D01*
G01*
X109662500Y-167975000D01*
G75*
G02*
X109425000Y-167737500I0J237500D01*
G01*
G37*
G04 #@! TD*
D19*
G04 #@! TO.C,J107*
X30500000Y-154875000D03*
D20*
X30500000Y-152335000D03*
X30500000Y-149795000D03*
X30500000Y-147255000D03*
X30500000Y-144715000D03*
X30500000Y-142175000D03*
X30500000Y-139635000D03*
X30500000Y-137095000D03*
G04 #@! TD*
G04 #@! TO.C,C213*
G36*
G01*
X117237500Y-139400000D02*
X116762500Y-139400000D01*
G75*
G02*
X116525000Y-139162500I0J237500D01*
G01*
X116525000Y-138562500D01*
G75*
G02*
X116762500Y-138325000I237500J0D01*
G01*
X117237500Y-138325000D01*
G75*
G02*
X117475000Y-138562500I0J-237500D01*
G01*
X117475000Y-139162500D01*
G75*
G02*
X117237500Y-139400000I-237500J0D01*
G01*
G37*
G36*
G01*
X117237500Y-137675000D02*
X116762500Y-137675000D01*
G75*
G02*
X116525000Y-137437500I0J237500D01*
G01*
X116525000Y-136837500D01*
G75*
G02*
X116762500Y-136600000I237500J0D01*
G01*
X117237500Y-136600000D01*
G75*
G02*
X117475000Y-136837500I0J-237500D01*
G01*
X117475000Y-137437500D01*
G75*
G02*
X117237500Y-137675000I-237500J0D01*
G01*
G37*
G04 #@! TD*
G04 #@! TO.C,J104*
G36*
G01*
X74700000Y-181350000D02*
X73250000Y-181350000D01*
G75*
G02*
X73000000Y-181100000I0J250000D01*
G01*
X73000000Y-179900000D01*
G75*
G02*
X73250000Y-179650000I250000J0D01*
G01*
X74700000Y-179650000D01*
G75*
G02*
X74950000Y-179900000I0J-250000D01*
G01*
X74950000Y-181100000D01*
G75*
G02*
X74700000Y-181350000I-250000J0D01*
G01*
G37*
D21*
X73975000Y-178000000D03*
X73975000Y-175500000D03*
G04 #@! TD*
G04 #@! TO.C,R120*
G36*
G01*
X45762500Y-156100000D02*
X46237500Y-156100000D01*
G75*
G02*
X46475000Y-156337500I0J-237500D01*
G01*
X46475000Y-156837500D01*
G75*
G02*
X46237500Y-157075000I-237500J0D01*
G01*
X45762500Y-157075000D01*
G75*
G02*
X45525000Y-156837500I0J237500D01*
G01*
X45525000Y-156337500D01*
G75*
G02*
X45762500Y-156100000I237500J0D01*
G01*
G37*
G36*
G01*
X45762500Y-157925000D02*
X46237500Y-157925000D01*
G75*
G02*
X46475000Y-158162500I0J-237500D01*
G01*
X46475000Y-158662500D01*
G75*
G02*
X46237500Y-158900000I-237500J0D01*
G01*
X45762500Y-158900000D01*
G75*
G02*
X45525000Y-158662500I0J237500D01*
G01*
X45525000Y-158162500D01*
G75*
G02*
X45762500Y-157925000I237500J0D01*
G01*
G37*
G04 #@! TD*
G04 #@! TO.C,C408*
G36*
G01*
X123400000Y-63762500D02*
X123400000Y-64237500D01*
G75*
G02*
X123162500Y-64475000I-237500J0D01*
G01*
X122562500Y-64475000D01*
G75*
G02*
X122325000Y-64237500I0J237500D01*
G01*
X122325000Y-63762500D01*
G75*
G02*
X122562500Y-63525000I237500J0D01*
G01*
X123162500Y-63525000D01*
G75*
G02*
X123400000Y-63762500I0J-237500D01*
G01*
G37*
G36*
G01*
X121675000Y-63762500D02*
X121675000Y-64237500D01*
G75*
G02*
X121437500Y-64475000I-237500J0D01*
G01*
X120837500Y-64475000D01*
G75*
G02*
X120600000Y-64237500I0J237500D01*
G01*
X120600000Y-63762500D01*
G75*
G02*
X120837500Y-63525000I237500J0D01*
G01*
X121437500Y-63525000D01*
G75*
G02*
X121675000Y-63762500I0J-237500D01*
G01*
G37*
G04 #@! TD*
G04 #@! TO.C,R410*
G36*
G01*
X50400000Y-134262500D02*
X50400000Y-134737500D01*
G75*
G02*
X50162500Y-134975000I-237500J0D01*
G01*
X49662500Y-134975000D01*
G75*
G02*
X49425000Y-134737500I0J237500D01*
G01*
X49425000Y-134262500D01*
G75*
G02*
X49662500Y-134025000I237500J0D01*
G01*
X50162500Y-134025000D01*
G75*
G02*
X50400000Y-134262500I0J-237500D01*
G01*
G37*
G36*
G01*
X48575000Y-134262500D02*
X48575000Y-134737500D01*
G75*
G02*
X48337500Y-134975000I-237500J0D01*
G01*
X47837500Y-134975000D01*
G75*
G02*
X47600000Y-134737500I0J237500D01*
G01*
X47600000Y-134262500D01*
G75*
G02*
X47837500Y-134025000I237500J0D01*
G01*
X48337500Y-134025000D01*
G75*
G02*
X48575000Y-134262500I0J-237500D01*
G01*
G37*
G04 #@! TD*
G04 #@! TO.C,R112*
G36*
G01*
X33737500Y-175062500D02*
X33262500Y-175062500D01*
G75*
G02*
X33025000Y-174825000I0J237500D01*
G01*
X33025000Y-174325000D01*
G75*
G02*
X33262500Y-174087500I237500J0D01*
G01*
X33737500Y-174087500D01*
G75*
G02*
X33975000Y-174325000I0J-237500D01*
G01*
X33975000Y-174825000D01*
G75*
G02*
X33737500Y-175062500I-237500J0D01*
G01*
G37*
G36*
G01*
X33737500Y-173237500D02*
X33262500Y-173237500D01*
G75*
G02*
X33025000Y-173000000I0J237500D01*
G01*
X33025000Y-172500000D01*
G75*
G02*
X33262500Y-172262500I237500J0D01*
G01*
X33737500Y-172262500D01*
G75*
G02*
X33975000Y-172500000I0J-237500D01*
G01*
X33975000Y-173000000D01*
G75*
G02*
X33737500Y-173237500I-237500J0D01*
G01*
G37*
G04 #@! TD*
G04 #@! TO.C,C404*
G36*
G01*
X42400000Y-88762500D02*
X42400000Y-89237500D01*
G75*
G02*
X42162500Y-89475000I-237500J0D01*
G01*
X41562500Y-89475000D01*
G75*
G02*
X41325000Y-89237500I0J237500D01*
G01*
X41325000Y-88762500D01*
G75*
G02*
X41562500Y-88525000I237500J0D01*
G01*
X42162500Y-88525000D01*
G75*
G02*
X42400000Y-88762500I0J-237500D01*
G01*
G37*
G36*
G01*
X40675000Y-88762500D02*
X40675000Y-89237500D01*
G75*
G02*
X40437500Y-89475000I-237500J0D01*
G01*
X39837500Y-89475000D01*
G75*
G02*
X39600000Y-89237500I0J237500D01*
G01*
X39600000Y-88762500D01*
G75*
G02*
X39837500Y-88525000I237500J0D01*
G01*
X40437500Y-88525000D01*
G75*
G02*
X40675000Y-88762500I0J-237500D01*
G01*
G37*
G04 #@! TD*
G04 #@! TO.C,U403*
G36*
G01*
X44450000Y-117755000D02*
X44450000Y-118055000D01*
G75*
G02*
X44300000Y-118205000I-150000J0D01*
G01*
X42650000Y-118205000D01*
G75*
G02*
X42500000Y-118055000I0J150000D01*
G01*
X42500000Y-117755000D01*
G75*
G02*
X42650000Y-117605000I150000J0D01*
G01*
X44300000Y-117605000D01*
G75*
G02*
X44450000Y-117755000I0J-150000D01*
G01*
G37*
G36*
G01*
X44450000Y-116485000D02*
X44450000Y-116785000D01*
G75*
G02*
X44300000Y-116935000I-150000J0D01*
G01*
X42650000Y-116935000D01*
G75*
G02*
X42500000Y-116785000I0J150000D01*
G01*
X42500000Y-116485000D01*
G75*
G02*
X42650000Y-116335000I150000J0D01*
G01*
X44300000Y-116335000D01*
G75*
G02*
X44450000Y-116485000I0J-150000D01*
G01*
G37*
G36*
G01*
X44450000Y-115215000D02*
X44450000Y-115515000D01*
G75*
G02*
X44300000Y-115665000I-150000J0D01*
G01*
X42650000Y-115665000D01*
G75*
G02*
X42500000Y-115515000I0J150000D01*
G01*
X42500000Y-115215000D01*
G75*
G02*
X42650000Y-115065000I150000J0D01*
G01*
X44300000Y-115065000D01*
G75*
G02*
X44450000Y-115215000I0J-150000D01*
G01*
G37*
G36*
G01*
X44450000Y-113945000D02*
X44450000Y-114245000D01*
G75*
G02*
X44300000Y-114395000I-150000J0D01*
G01*
X42650000Y-114395000D01*
G75*
G02*
X42500000Y-114245000I0J150000D01*
G01*
X42500000Y-113945000D01*
G75*
G02*
X42650000Y-113795000I150000J0D01*
G01*
X44300000Y-113795000D01*
G75*
G02*
X44450000Y-113945000I0J-150000D01*
G01*
G37*
G36*
G01*
X39500000Y-113945000D02*
X39500000Y-114245000D01*
G75*
G02*
X39350000Y-114395000I-150000J0D01*
G01*
X37700000Y-114395000D01*
G75*
G02*
X37550000Y-114245000I0J150000D01*
G01*
X37550000Y-113945000D01*
G75*
G02*
X37700000Y-113795000I150000J0D01*
G01*
X39350000Y-113795000D01*
G75*
G02*
X39500000Y-113945000I0J-150000D01*
G01*
G37*
G36*
G01*
X39500000Y-115215000D02*
X39500000Y-115515000D01*
G75*
G02*
X39350000Y-115665000I-150000J0D01*
G01*
X37700000Y-115665000D01*
G75*
G02*
X37550000Y-115515000I0J150000D01*
G01*
X37550000Y-115215000D01*
G75*
G02*
X37700000Y-115065000I150000J0D01*
G01*
X39350000Y-115065000D01*
G75*
G02*
X39500000Y-115215000I0J-150000D01*
G01*
G37*
G36*
G01*
X39500000Y-116485000D02*
X39500000Y-116785000D01*
G75*
G02*
X39350000Y-116935000I-150000J0D01*
G01*
X37700000Y-116935000D01*
G75*
G02*
X37550000Y-116785000I0J150000D01*
G01*
X37550000Y-116485000D01*
G75*
G02*
X37700000Y-116335000I150000J0D01*
G01*
X39350000Y-116335000D01*
G75*
G02*
X39500000Y-116485000I0J-150000D01*
G01*
G37*
G36*
G01*
X39500000Y-117755000D02*
X39500000Y-118055000D01*
G75*
G02*
X39350000Y-118205000I-150000J0D01*
G01*
X37700000Y-118205000D01*
G75*
G02*
X37550000Y-118055000I0J150000D01*
G01*
X37550000Y-117755000D01*
G75*
G02*
X37700000Y-117605000I150000J0D01*
G01*
X39350000Y-117605000D01*
G75*
G02*
X39500000Y-117755000I0J-150000D01*
G01*
G37*
G04 #@! TD*
D22*
G04 #@! TO.C,H112*
X105500000Y-91000000D03*
G04 #@! TD*
G04 #@! TO.C,D104*
G36*
G01*
X49550000Y-173325000D02*
X49850000Y-173325000D01*
G75*
G02*
X50000000Y-173475000I0J-150000D01*
G01*
X50000000Y-174650000D01*
G75*
G02*
X49850000Y-174800000I-150000J0D01*
G01*
X49550000Y-174800000D01*
G75*
G02*
X49400000Y-174650000I0J150000D01*
G01*
X49400000Y-173475000D01*
G75*
G02*
X49550000Y-173325000I150000J0D01*
G01*
G37*
G36*
G01*
X47650000Y-173325000D02*
X47950000Y-173325000D01*
G75*
G02*
X48100000Y-173475000I0J-150000D01*
G01*
X48100000Y-174650000D01*
G75*
G02*
X47950000Y-174800000I-150000J0D01*
G01*
X47650000Y-174800000D01*
G75*
G02*
X47500000Y-174650000I0J150000D01*
G01*
X47500000Y-173475000D01*
G75*
G02*
X47650000Y-173325000I150000J0D01*
G01*
G37*
G36*
G01*
X48600000Y-175200000D02*
X48900000Y-175200000D01*
G75*
G02*
X49050000Y-175350000I0J-150000D01*
G01*
X49050000Y-176525000D01*
G75*
G02*
X48900000Y-176675000I-150000J0D01*
G01*
X48600000Y-176675000D01*
G75*
G02*
X48450000Y-176525000I0J150000D01*
G01*
X48450000Y-175350000D01*
G75*
G02*
X48600000Y-175200000I150000J0D01*
G01*
G37*
G04 #@! TD*
D19*
G04 #@! TO.C,J106*
X30500000Y-161975000D03*
D20*
X30500000Y-164515000D03*
X30500000Y-167055000D03*
G04 #@! TD*
D23*
G04 #@! TO.C,BZ101*
X72310784Y-127500000D03*
D18*
X67310784Y-127500000D03*
G04 #@! TD*
G04 #@! TO.C,R109*
G36*
G01*
X34237500Y-163400000D02*
X33762500Y-163400000D01*
G75*
G02*
X33525000Y-163162500I0J237500D01*
G01*
X33525000Y-162662500D01*
G75*
G02*
X33762500Y-162425000I237500J0D01*
G01*
X34237500Y-162425000D01*
G75*
G02*
X34475000Y-162662500I0J-237500D01*
G01*
X34475000Y-163162500D01*
G75*
G02*
X34237500Y-163400000I-237500J0D01*
G01*
G37*
G36*
G01*
X34237500Y-161575000D02*
X33762500Y-161575000D01*
G75*
G02*
X33525000Y-161337500I0J237500D01*
G01*
X33525000Y-160837500D01*
G75*
G02*
X33762500Y-160600000I237500J0D01*
G01*
X34237500Y-160600000D01*
G75*
G02*
X34475000Y-160837500I0J-237500D01*
G01*
X34475000Y-161337500D01*
G75*
G02*
X34237500Y-161575000I-237500J0D01*
G01*
G37*
G04 #@! TD*
G04 #@! TO.C,R311*
G36*
G01*
X43350000Y-146737500D02*
X43350000Y-146262500D01*
G75*
G02*
X43587500Y-146025000I237500J0D01*
G01*
X44087500Y-146025000D01*
G75*
G02*
X44325000Y-146262500I0J-237500D01*
G01*
X44325000Y-146737500D01*
G75*
G02*
X44087500Y-146975000I-237500J0D01*
G01*
X43587500Y-146975000D01*
G75*
G02*
X43350000Y-146737500I0J237500D01*
G01*
G37*
G36*
G01*
X45175000Y-146737500D02*
X45175000Y-146262500D01*
G75*
G02*
X45412500Y-146025000I237500J0D01*
G01*
X45912500Y-146025000D01*
G75*
G02*
X46150000Y-146262500I0J-237500D01*
G01*
X46150000Y-146737500D01*
G75*
G02*
X45912500Y-146975000I-237500J0D01*
G01*
X45412500Y-146975000D01*
G75*
G02*
X45175000Y-146737500I0J237500D01*
G01*
G37*
G04 #@! TD*
G04 #@! TO.C,R503*
G36*
G01*
X98100000Y-167737500D02*
X98100000Y-167262500D01*
G75*
G02*
X98337500Y-167025000I237500J0D01*
G01*
X98837500Y-167025000D01*
G75*
G02*
X99075000Y-167262500I0J-237500D01*
G01*
X99075000Y-167737500D01*
G75*
G02*
X98837500Y-167975000I-237500J0D01*
G01*
X98337500Y-167975000D01*
G75*
G02*
X98100000Y-167737500I0J237500D01*
G01*
G37*
G36*
G01*
X99925000Y-167737500D02*
X99925000Y-167262500D01*
G75*
G02*
X100162500Y-167025000I237500J0D01*
G01*
X100662500Y-167025000D01*
G75*
G02*
X100900000Y-167262500I0J-237500D01*
G01*
X100900000Y-167737500D01*
G75*
G02*
X100662500Y-167975000I-237500J0D01*
G01*
X100162500Y-167975000D01*
G75*
G02*
X99925000Y-167737500I0J237500D01*
G01*
G37*
G04 #@! TD*
G04 #@! TO.C,R106*
G36*
G01*
X33762500Y-165600000D02*
X34237500Y-165600000D01*
G75*
G02*
X34475000Y-165837500I0J-237500D01*
G01*
X34475000Y-166337500D01*
G75*
G02*
X34237500Y-166575000I-237500J0D01*
G01*
X33762500Y-166575000D01*
G75*
G02*
X33525000Y-166337500I0J237500D01*
G01*
X33525000Y-165837500D01*
G75*
G02*
X33762500Y-165600000I237500J0D01*
G01*
G37*
G36*
G01*
X33762500Y-167425000D02*
X34237500Y-167425000D01*
G75*
G02*
X34475000Y-167662500I0J-237500D01*
G01*
X34475000Y-168162500D01*
G75*
G02*
X34237500Y-168400000I-237500J0D01*
G01*
X33762500Y-168400000D01*
G75*
G02*
X33525000Y-168162500I0J237500D01*
G01*
X33525000Y-167662500D01*
G75*
G02*
X33762500Y-167425000I237500J0D01*
G01*
G37*
G04 #@! TD*
D15*
G04 #@! TO.C,D203*
X122000000Y-145600000D03*
X122000000Y-148400000D03*
G04 #@! TD*
G04 #@! TO.C,C218*
G36*
G01*
X62212020Y-140049520D02*
X62687020Y-140049520D01*
G75*
G02*
X62924520Y-140287020I0J-237500D01*
G01*
X62924520Y-140887020D01*
G75*
G02*
X62687020Y-141124520I-237500J0D01*
G01*
X62212020Y-141124520D01*
G75*
G02*
X61974520Y-140887020I0J237500D01*
G01*
X61974520Y-140287020D01*
G75*
G02*
X62212020Y-140049520I237500J0D01*
G01*
G37*
G36*
G01*
X62212020Y-141774520D02*
X62687020Y-141774520D01*
G75*
G02*
X62924520Y-142012020I0J-237500D01*
G01*
X62924520Y-142612020D01*
G75*
G02*
X62687020Y-142849520I-237500J0D01*
G01*
X62212020Y-142849520D01*
G75*
G02*
X61974520Y-142612020I0J237500D01*
G01*
X61974520Y-142012020D01*
G75*
G02*
X62212020Y-141774520I237500J0D01*
G01*
G37*
G04 #@! TD*
G04 #@! TO.C,R413*
G36*
G01*
X123237500Y-75400000D02*
X122762500Y-75400000D01*
G75*
G02*
X122525000Y-75162500I0J237500D01*
G01*
X122525000Y-74662500D01*
G75*
G02*
X122762500Y-74425000I237500J0D01*
G01*
X123237500Y-74425000D01*
G75*
G02*
X123475000Y-74662500I0J-237500D01*
G01*
X123475000Y-75162500D01*
G75*
G02*
X123237500Y-75400000I-237500J0D01*
G01*
G37*
G36*
G01*
X123237500Y-73575000D02*
X122762500Y-73575000D01*
G75*
G02*
X122525000Y-73337500I0J237500D01*
G01*
X122525000Y-72837500D01*
G75*
G02*
X122762500Y-72600000I237500J0D01*
G01*
X123237500Y-72600000D01*
G75*
G02*
X123475000Y-72837500I0J-237500D01*
G01*
X123475000Y-73337500D01*
G75*
G02*
X123237500Y-73575000I-237500J0D01*
G01*
G37*
G04 #@! TD*
D24*
G04 #@! TO.C,F201*
X125000000Y-167185000D03*
X125000000Y-160815000D03*
G04 #@! TD*
G04 #@! TO.C,R501*
G36*
G01*
X96100000Y-164737500D02*
X96100000Y-164262500D01*
G75*
G02*
X96337500Y-164025000I237500J0D01*
G01*
X96837500Y-164025000D01*
G75*
G02*
X97075000Y-164262500I0J-237500D01*
G01*
X97075000Y-164737500D01*
G75*
G02*
X96837500Y-164975000I-237500J0D01*
G01*
X96337500Y-164975000D01*
G75*
G02*
X96100000Y-164737500I0J237500D01*
G01*
G37*
G36*
G01*
X97925000Y-164737500D02*
X97925000Y-164262500D01*
G75*
G02*
X98162500Y-164025000I237500J0D01*
G01*
X98662500Y-164025000D01*
G75*
G02*
X98900000Y-164262500I0J-237500D01*
G01*
X98900000Y-164737500D01*
G75*
G02*
X98662500Y-164975000I-237500J0D01*
G01*
X98162500Y-164975000D01*
G75*
G02*
X97925000Y-164737500I0J237500D01*
G01*
G37*
G04 #@! TD*
G04 #@! TO.C,J103*
G36*
G01*
X64725000Y-181350000D02*
X63275000Y-181350000D01*
G75*
G02*
X63025000Y-181100000I0J250000D01*
G01*
X63025000Y-179900000D01*
G75*
G02*
X63275000Y-179650000I250000J0D01*
G01*
X64725000Y-179650000D01*
G75*
G02*
X64975000Y-179900000I0J-250000D01*
G01*
X64975000Y-181100000D01*
G75*
G02*
X64725000Y-181350000I-250000J0D01*
G01*
G37*
D21*
X64000000Y-178000000D03*
X64000000Y-175500000D03*
G04 #@! TD*
G04 #@! TO.C,R201*
G36*
G01*
X120600000Y-138237500D02*
X120600000Y-137762500D01*
G75*
G02*
X120837500Y-137525000I237500J0D01*
G01*
X121337500Y-137525000D01*
G75*
G02*
X121575000Y-137762500I0J-237500D01*
G01*
X121575000Y-138237500D01*
G75*
G02*
X121337500Y-138475000I-237500J0D01*
G01*
X120837500Y-138475000D01*
G75*
G02*
X120600000Y-138237500I0J237500D01*
G01*
G37*
G36*
G01*
X122425000Y-138237500D02*
X122425000Y-137762500D01*
G75*
G02*
X122662500Y-137525000I237500J0D01*
G01*
X123162500Y-137525000D01*
G75*
G02*
X123400000Y-137762500I0J-237500D01*
G01*
X123400000Y-138237500D01*
G75*
G02*
X123162500Y-138475000I-237500J0D01*
G01*
X122662500Y-138475000D01*
G75*
G02*
X122425000Y-138237500I0J237500D01*
G01*
G37*
G04 #@! TD*
D12*
G04 #@! TO.C,D401*
X32000000Y-41000000D03*
D13*
X32000000Y-43540000D03*
X32000000Y-46080000D03*
G04 #@! TD*
G04 #@! TO.C,U401*
G36*
G01*
X44450000Y-45755000D02*
X44450000Y-46055000D01*
G75*
G02*
X44300000Y-46205000I-150000J0D01*
G01*
X42650000Y-46205000D01*
G75*
G02*
X42500000Y-46055000I0J150000D01*
G01*
X42500000Y-45755000D01*
G75*
G02*
X42650000Y-45605000I150000J0D01*
G01*
X44300000Y-45605000D01*
G75*
G02*
X44450000Y-45755000I0J-150000D01*
G01*
G37*
G36*
G01*
X44450000Y-44485000D02*
X44450000Y-44785000D01*
G75*
G02*
X44300000Y-44935000I-150000J0D01*
G01*
X42650000Y-44935000D01*
G75*
G02*
X42500000Y-44785000I0J150000D01*
G01*
X42500000Y-44485000D01*
G75*
G02*
X42650000Y-44335000I150000J0D01*
G01*
X44300000Y-44335000D01*
G75*
G02*
X44450000Y-44485000I0J-150000D01*
G01*
G37*
G36*
G01*
X44450000Y-43215000D02*
X44450000Y-43515000D01*
G75*
G02*
X44300000Y-43665000I-150000J0D01*
G01*
X42650000Y-43665000D01*
G75*
G02*
X42500000Y-43515000I0J150000D01*
G01*
X42500000Y-43215000D01*
G75*
G02*
X42650000Y-43065000I150000J0D01*
G01*
X44300000Y-43065000D01*
G75*
G02*
X44450000Y-43215000I0J-150000D01*
G01*
G37*
G36*
G01*
X44450000Y-41945000D02*
X44450000Y-42245000D01*
G75*
G02*
X44300000Y-42395000I-150000J0D01*
G01*
X42650000Y-42395000D01*
G75*
G02*
X42500000Y-42245000I0J150000D01*
G01*
X42500000Y-41945000D01*
G75*
G02*
X42650000Y-41795000I150000J0D01*
G01*
X44300000Y-41795000D01*
G75*
G02*
X44450000Y-41945000I0J-150000D01*
G01*
G37*
G36*
G01*
X39500000Y-41945000D02*
X39500000Y-42245000D01*
G75*
G02*
X39350000Y-42395000I-150000J0D01*
G01*
X37700000Y-42395000D01*
G75*
G02*
X37550000Y-42245000I0J150000D01*
G01*
X37550000Y-41945000D01*
G75*
G02*
X37700000Y-41795000I150000J0D01*
G01*
X39350000Y-41795000D01*
G75*
G02*
X39500000Y-41945000I0J-150000D01*
G01*
G37*
G36*
G01*
X39500000Y-43215000D02*
X39500000Y-43515000D01*
G75*
G02*
X39350000Y-43665000I-150000J0D01*
G01*
X37700000Y-43665000D01*
G75*
G02*
X37550000Y-43515000I0J150000D01*
G01*
X37550000Y-43215000D01*
G75*
G02*
X37700000Y-43065000I150000J0D01*
G01*
X39350000Y-43065000D01*
G75*
G02*
X39500000Y-43215000I0J-150000D01*
G01*
G37*
G36*
G01*
X39500000Y-44485000D02*
X39500000Y-44785000D01*
G75*
G02*
X39350000Y-44935000I-150000J0D01*
G01*
X37700000Y-44935000D01*
G75*
G02*
X37550000Y-44785000I0J150000D01*
G01*
X37550000Y-44485000D01*
G75*
G02*
X37700000Y-44335000I150000J0D01*
G01*
X39350000Y-44335000D01*
G75*
G02*
X39500000Y-44485000I0J-150000D01*
G01*
G37*
G36*
G01*
X39500000Y-45755000D02*
X39500000Y-46055000D01*
G75*
G02*
X39350000Y-46205000I-150000J0D01*
G01*
X37700000Y-46205000D01*
G75*
G02*
X37550000Y-46055000I0J150000D01*
G01*
X37550000Y-45755000D01*
G75*
G02*
X37700000Y-45605000I150000J0D01*
G01*
X39350000Y-45605000D01*
G75*
G02*
X39500000Y-45755000I0J-150000D01*
G01*
G37*
G04 #@! TD*
D22*
G04 #@! TO.C,H111*
X54500000Y-91000000D03*
G04 #@! TD*
G04 #@! TO.C,L203*
G36*
G01*
X58749520Y-139874520D02*
X59649520Y-139874520D01*
G75*
G02*
X59899520Y-140124520I0J-250000D01*
G01*
X59899520Y-140774520D01*
G75*
G02*
X59649520Y-141024520I-250000J0D01*
G01*
X58749520Y-141024520D01*
G75*
G02*
X58499520Y-140774520I0J250000D01*
G01*
X58499520Y-140124520D01*
G75*
G02*
X58749520Y-139874520I250000J0D01*
G01*
G37*
G36*
G01*
X58749520Y-141924520D02*
X59649520Y-141924520D01*
G75*
G02*
X59899520Y-142174520I0J-250000D01*
G01*
X59899520Y-142824520D01*
G75*
G02*
X59649520Y-143074520I-250000J0D01*
G01*
X58749520Y-143074520D01*
G75*
G02*
X58499520Y-142824520I0J250000D01*
G01*
X58499520Y-142174520D01*
G75*
G02*
X58749520Y-141924520I250000J0D01*
G01*
G37*
G04 #@! TD*
D25*
G04 #@! TO.C,H104*
X128000000Y-181000000D03*
G04 #@! TD*
G04 #@! TO.C,R203*
G36*
G01*
X40262500Y-128100000D02*
X40737500Y-128100000D01*
G75*
G02*
X40975000Y-128337500I0J-237500D01*
G01*
X40975000Y-128837500D01*
G75*
G02*
X40737500Y-129075000I-237500J0D01*
G01*
X40262500Y-129075000D01*
G75*
G02*
X40025000Y-128837500I0J237500D01*
G01*
X40025000Y-128337500D01*
G75*
G02*
X40262500Y-128100000I237500J0D01*
G01*
G37*
G36*
G01*
X40262500Y-129925000D02*
X40737500Y-129925000D01*
G75*
G02*
X40975000Y-130162500I0J-237500D01*
G01*
X40975000Y-130662500D01*
G75*
G02*
X40737500Y-130900000I-237500J0D01*
G01*
X40262500Y-130900000D01*
G75*
G02*
X40025000Y-130662500I0J237500D01*
G01*
X40025000Y-130162500D01*
G75*
G02*
X40262500Y-129925000I237500J0D01*
G01*
G37*
G04 #@! TD*
G04 #@! TO.C,R103*
G36*
G01*
X37987500Y-172900000D02*
X37512500Y-172900000D01*
G75*
G02*
X37275000Y-172662500I0J237500D01*
G01*
X37275000Y-172162500D01*
G75*
G02*
X37512500Y-171925000I237500J0D01*
G01*
X37987500Y-171925000D01*
G75*
G02*
X38225000Y-172162500I0J-237500D01*
G01*
X38225000Y-172662500D01*
G75*
G02*
X37987500Y-172900000I-237500J0D01*
G01*
G37*
G36*
G01*
X37987500Y-171075000D02*
X37512500Y-171075000D01*
G75*
G02*
X37275000Y-170837500I0J237500D01*
G01*
X37275000Y-170337500D01*
G75*
G02*
X37512500Y-170100000I237500J0D01*
G01*
X37987500Y-170100000D01*
G75*
G02*
X38225000Y-170337500I0J-237500D01*
G01*
X38225000Y-170837500D01*
G75*
G02*
X37987500Y-171075000I-237500J0D01*
G01*
G37*
G04 #@! TD*
D18*
G04 #@! TO.C,TP203*
X93000000Y-156000000D03*
G04 #@! TD*
D26*
G04 #@! TO.C,Q101*
X58790000Y-129050000D03*
X58790000Y-130950000D03*
X62210000Y-130000000D03*
G04 #@! TD*
D12*
G04 #@! TO.C,Q412*
X128000000Y-129000000D03*
D13*
X128000000Y-126460000D03*
X128000000Y-123920000D03*
G04 #@! TD*
G04 #@! TO.C,R415*
G36*
G01*
X123237500Y-108400000D02*
X122762500Y-108400000D01*
G75*
G02*
X122525000Y-108162500I0J237500D01*
G01*
X122525000Y-107662500D01*
G75*
G02*
X122762500Y-107425000I237500J0D01*
G01*
X123237500Y-107425000D01*
G75*
G02*
X123475000Y-107662500I0J-237500D01*
G01*
X123475000Y-108162500D01*
G75*
G02*
X123237500Y-108400000I-237500J0D01*
G01*
G37*
G36*
G01*
X123237500Y-106575000D02*
X122762500Y-106575000D01*
G75*
G02*
X122525000Y-106337500I0J237500D01*
G01*
X122525000Y-105837500D01*
G75*
G02*
X122762500Y-105600000I237500J0D01*
G01*
X123237500Y-105600000D01*
G75*
G02*
X123475000Y-105837500I0J-237500D01*
G01*
X123475000Y-106337500D01*
G75*
G02*
X123237500Y-106575000I-237500J0D01*
G01*
G37*
G04 #@! TD*
G04 #@! TO.C,R115*
G36*
G01*
X57150000Y-169012500D02*
X57150000Y-169487500D01*
G75*
G02*
X56912500Y-169725000I-237500J0D01*
G01*
X56412500Y-169725000D01*
G75*
G02*
X56175000Y-169487500I0J237500D01*
G01*
X56175000Y-169012500D01*
G75*
G02*
X56412500Y-168775000I237500J0D01*
G01*
X56912500Y-168775000D01*
G75*
G02*
X57150000Y-169012500I0J-237500D01*
G01*
G37*
G36*
G01*
X55325000Y-169012500D02*
X55325000Y-169487500D01*
G75*
G02*
X55087500Y-169725000I-237500J0D01*
G01*
X54587500Y-169725000D01*
G75*
G02*
X54350000Y-169487500I0J237500D01*
G01*
X54350000Y-169012500D01*
G75*
G02*
X54587500Y-168775000I237500J0D01*
G01*
X55087500Y-168775000D01*
G75*
G02*
X55325000Y-169012500I0J-237500D01*
G01*
G37*
G04 #@! TD*
G04 #@! TO.C,R411*
G36*
G01*
X123237500Y-36400000D02*
X122762500Y-36400000D01*
G75*
G02*
X122525000Y-36162500I0J237500D01*
G01*
X122525000Y-35662500D01*
G75*
G02*
X122762500Y-35425000I237500J0D01*
G01*
X123237500Y-35425000D01*
G75*
G02*
X123475000Y-35662500I0J-237500D01*
G01*
X123475000Y-36162500D01*
G75*
G02*
X123237500Y-36400000I-237500J0D01*
G01*
G37*
G36*
G01*
X123237500Y-34575000D02*
X122762500Y-34575000D01*
G75*
G02*
X122525000Y-34337500I0J237500D01*
G01*
X122525000Y-33837500D01*
G75*
G02*
X122762500Y-33600000I237500J0D01*
G01*
X123237500Y-33600000D01*
G75*
G02*
X123475000Y-33837500I0J-237500D01*
G01*
X123475000Y-34337500D01*
G75*
G02*
X123237500Y-34575000I-237500J0D01*
G01*
G37*
G04 #@! TD*
G04 #@! TO.C,U402*
G36*
G01*
X44450000Y-84755000D02*
X44450000Y-85055000D01*
G75*
G02*
X44300000Y-85205000I-150000J0D01*
G01*
X42650000Y-85205000D01*
G75*
G02*
X42500000Y-85055000I0J150000D01*
G01*
X42500000Y-84755000D01*
G75*
G02*
X42650000Y-84605000I150000J0D01*
G01*
X44300000Y-84605000D01*
G75*
G02*
X44450000Y-84755000I0J-150000D01*
G01*
G37*
G36*
G01*
X44450000Y-83485000D02*
X44450000Y-83785000D01*
G75*
G02*
X44300000Y-83935000I-150000J0D01*
G01*
X42650000Y-83935000D01*
G75*
G02*
X42500000Y-83785000I0J150000D01*
G01*
X42500000Y-83485000D01*
G75*
G02*
X42650000Y-83335000I150000J0D01*
G01*
X44300000Y-83335000D01*
G75*
G02*
X44450000Y-83485000I0J-150000D01*
G01*
G37*
G36*
G01*
X44450000Y-82215000D02*
X44450000Y-82515000D01*
G75*
G02*
X44300000Y-82665000I-150000J0D01*
G01*
X42650000Y-82665000D01*
G75*
G02*
X42500000Y-82515000I0J150000D01*
G01*
X42500000Y-82215000D01*
G75*
G02*
X42650000Y-82065000I150000J0D01*
G01*
X44300000Y-82065000D01*
G75*
G02*
X44450000Y-82215000I0J-150000D01*
G01*
G37*
G36*
G01*
X44450000Y-80945000D02*
X44450000Y-81245000D01*
G75*
G02*
X44300000Y-81395000I-150000J0D01*
G01*
X42650000Y-81395000D01*
G75*
G02*
X42500000Y-81245000I0J150000D01*
G01*
X42500000Y-80945000D01*
G75*
G02*
X42650000Y-80795000I150000J0D01*
G01*
X44300000Y-80795000D01*
G75*
G02*
X44450000Y-80945000I0J-150000D01*
G01*
G37*
G36*
G01*
X39500000Y-80945000D02*
X39500000Y-81245000D01*
G75*
G02*
X39350000Y-81395000I-150000J0D01*
G01*
X37700000Y-81395000D01*
G75*
G02*
X37550000Y-81245000I0J150000D01*
G01*
X37550000Y-80945000D01*
G75*
G02*
X37700000Y-80795000I150000J0D01*
G01*
X39350000Y-80795000D01*
G75*
G02*
X39500000Y-80945000I0J-150000D01*
G01*
G37*
G36*
G01*
X39500000Y-82215000D02*
X39500000Y-82515000D01*
G75*
G02*
X39350000Y-82665000I-150000J0D01*
G01*
X37700000Y-82665000D01*
G75*
G02*
X37550000Y-82515000I0J150000D01*
G01*
X37550000Y-82215000D01*
G75*
G02*
X37700000Y-82065000I150000J0D01*
G01*
X39350000Y-82065000D01*
G75*
G02*
X39500000Y-82215000I0J-150000D01*
G01*
G37*
G36*
G01*
X39500000Y-83485000D02*
X39500000Y-83785000D01*
G75*
G02*
X39350000Y-83935000I-150000J0D01*
G01*
X37700000Y-83935000D01*
G75*
G02*
X37550000Y-83785000I0J150000D01*
G01*
X37550000Y-83485000D01*
G75*
G02*
X37700000Y-83335000I150000J0D01*
G01*
X39350000Y-83335000D01*
G75*
G02*
X39500000Y-83485000I0J-150000D01*
G01*
G37*
G36*
G01*
X39500000Y-84755000D02*
X39500000Y-85055000D01*
G75*
G02*
X39350000Y-85205000I-150000J0D01*
G01*
X37700000Y-85205000D01*
G75*
G02*
X37550000Y-85055000I0J150000D01*
G01*
X37550000Y-84755000D01*
G75*
G02*
X37700000Y-84605000I150000J0D01*
G01*
X39350000Y-84605000D01*
G75*
G02*
X39500000Y-84755000I0J-150000D01*
G01*
G37*
G04 #@! TD*
G04 #@! TO.C,R405*
G36*
G01*
X37237500Y-71400000D02*
X36762500Y-71400000D01*
G75*
G02*
X36525000Y-71162500I0J237500D01*
G01*
X36525000Y-70662500D01*
G75*
G02*
X36762500Y-70425000I237500J0D01*
G01*
X37237500Y-70425000D01*
G75*
G02*
X37475000Y-70662500I0J-237500D01*
G01*
X37475000Y-71162500D01*
G75*
G02*
X37237500Y-71400000I-237500J0D01*
G01*
G37*
G36*
G01*
X37237500Y-69575000D02*
X36762500Y-69575000D01*
G75*
G02*
X36525000Y-69337500I0J237500D01*
G01*
X36525000Y-68837500D01*
G75*
G02*
X36762500Y-68600000I237500J0D01*
G01*
X37237500Y-68600000D01*
G75*
G02*
X37475000Y-68837500I0J-237500D01*
G01*
X37475000Y-69337500D01*
G75*
G02*
X37237500Y-69575000I-237500J0D01*
G01*
G37*
G04 #@! TD*
D18*
G04 #@! TO.C,TP201*
X89000000Y-156000000D03*
G04 #@! TD*
G04 #@! TO.C,R508*
G36*
G01*
X112100000Y-167737500D02*
X112100000Y-167262500D01*
G75*
G02*
X112337500Y-167025000I237500J0D01*
G01*
X112837500Y-167025000D01*
G75*
G02*
X113075000Y-167262500I0J-237500D01*
G01*
X113075000Y-167737500D01*
G75*
G02*
X112837500Y-167975000I-237500J0D01*
G01*
X112337500Y-167975000D01*
G75*
G02*
X112100000Y-167737500I0J237500D01*
G01*
G37*
G36*
G01*
X113925000Y-167737500D02*
X113925000Y-167262500D01*
G75*
G02*
X114162500Y-167025000I237500J0D01*
G01*
X114662500Y-167025000D01*
G75*
G02*
X114900000Y-167262500I0J-237500D01*
G01*
X114900000Y-167737500D01*
G75*
G02*
X114662500Y-167975000I-237500J0D01*
G01*
X114162500Y-167975000D01*
G75*
G02*
X113925000Y-167737500I0J237500D01*
G01*
G37*
G04 #@! TD*
G04 #@! TO.C,C414*
G36*
G01*
X117600000Y-120237500D02*
X117600000Y-119762500D01*
G75*
G02*
X117837500Y-119525000I237500J0D01*
G01*
X118437500Y-119525000D01*
G75*
G02*
X118675000Y-119762500I0J-237500D01*
G01*
X118675000Y-120237500D01*
G75*
G02*
X118437500Y-120475000I-237500J0D01*
G01*
X117837500Y-120475000D01*
G75*
G02*
X117600000Y-120237500I0J237500D01*
G01*
G37*
G36*
G01*
X119325000Y-120237500D02*
X119325000Y-119762500D01*
G75*
G02*
X119562500Y-119525000I237500J0D01*
G01*
X120162500Y-119525000D01*
G75*
G02*
X120400000Y-119762500I0J-237500D01*
G01*
X120400000Y-120237500D01*
G75*
G02*
X120162500Y-120475000I-237500J0D01*
G01*
X119562500Y-120475000D01*
G75*
G02*
X119325000Y-120237500I0J237500D01*
G01*
G37*
G04 #@! TD*
G04 #@! TO.C,C303*
G36*
G01*
X68687020Y-148650000D02*
X68212020Y-148650000D01*
G75*
G02*
X67974520Y-148412500I0J237500D01*
G01*
X67974520Y-147812500D01*
G75*
G02*
X68212020Y-147575000I237500J0D01*
G01*
X68687020Y-147575000D01*
G75*
G02*
X68924520Y-147812500I0J-237500D01*
G01*
X68924520Y-148412500D01*
G75*
G02*
X68687020Y-148650000I-237500J0D01*
G01*
G37*
G36*
G01*
X68687020Y-146925000D02*
X68212020Y-146925000D01*
G75*
G02*
X67974520Y-146687500I0J237500D01*
G01*
X67974520Y-146087500D01*
G75*
G02*
X68212020Y-145850000I237500J0D01*
G01*
X68687020Y-145850000D01*
G75*
G02*
X68924520Y-146087500I0J-237500D01*
G01*
X68924520Y-146687500D01*
G75*
G02*
X68687020Y-146925000I-237500J0D01*
G01*
G37*
G04 #@! TD*
D27*
G04 #@! TO.C,U201*
X128000000Y-145400000D03*
D28*
X128000000Y-143700000D03*
X128000000Y-142000000D03*
X128000000Y-140300000D03*
X128000000Y-138600000D03*
G04 #@! TD*
D23*
G04 #@! TO.C,C214*
X108132323Y-134500000D03*
D18*
X113132323Y-134500000D03*
G04 #@! TD*
G04 #@! TO.C,R303*
G36*
G01*
X39762500Y-165850000D02*
X40237500Y-165850000D01*
G75*
G02*
X40475000Y-166087500I0J-237500D01*
G01*
X40475000Y-166587500D01*
G75*
G02*
X40237500Y-166825000I-237500J0D01*
G01*
X39762500Y-166825000D01*
G75*
G02*
X39525000Y-166587500I0J237500D01*
G01*
X39525000Y-166087500D01*
G75*
G02*
X39762500Y-165850000I237500J0D01*
G01*
G37*
G36*
G01*
X39762500Y-167675000D02*
X40237500Y-167675000D01*
G75*
G02*
X40475000Y-167912500I0J-237500D01*
G01*
X40475000Y-168412500D01*
G75*
G02*
X40237500Y-168650000I-237500J0D01*
G01*
X39762500Y-168650000D01*
G75*
G02*
X39525000Y-168412500I0J237500D01*
G01*
X39525000Y-167912500D01*
G75*
G02*
X39762500Y-167675000I237500J0D01*
G01*
G37*
G04 #@! TD*
D12*
G04 #@! TO.C,Q408*
X128000000Y-57000000D03*
D13*
X128000000Y-54460000D03*
X128000000Y-51920000D03*
G04 #@! TD*
G04 #@! TO.C,R118*
G36*
G01*
X53650000Y-169012500D02*
X53650000Y-169487500D01*
G75*
G02*
X53412500Y-169725000I-237500J0D01*
G01*
X52912500Y-169725000D01*
G75*
G02*
X52675000Y-169487500I0J237500D01*
G01*
X52675000Y-169012500D01*
G75*
G02*
X52912500Y-168775000I237500J0D01*
G01*
X53412500Y-168775000D01*
G75*
G02*
X53650000Y-169012500I0J-237500D01*
G01*
G37*
G36*
G01*
X51825000Y-169012500D02*
X51825000Y-169487500D01*
G75*
G02*
X51587500Y-169725000I-237500J0D01*
G01*
X51087500Y-169725000D01*
G75*
G02*
X50850000Y-169487500I0J237500D01*
G01*
X50850000Y-169012500D01*
G75*
G02*
X51087500Y-168775000I237500J0D01*
G01*
X51587500Y-168775000D01*
G75*
G02*
X51825000Y-169012500I0J-237500D01*
G01*
G37*
G04 #@! TD*
G04 #@! TO.C,R412*
G36*
G01*
X123237500Y-57400000D02*
X122762500Y-57400000D01*
G75*
G02*
X122525000Y-57162500I0J237500D01*
G01*
X122525000Y-56662500D01*
G75*
G02*
X122762500Y-56425000I237500J0D01*
G01*
X123237500Y-56425000D01*
G75*
G02*
X123475000Y-56662500I0J-237500D01*
G01*
X123475000Y-57162500D01*
G75*
G02*
X123237500Y-57400000I-237500J0D01*
G01*
G37*
G36*
G01*
X123237500Y-55575000D02*
X122762500Y-55575000D01*
G75*
G02*
X122525000Y-55337500I0J237500D01*
G01*
X122525000Y-54837500D01*
G75*
G02*
X122762500Y-54600000I237500J0D01*
G01*
X123237500Y-54600000D01*
G75*
G02*
X123475000Y-54837500I0J-237500D01*
G01*
X123475000Y-55337500D01*
G75*
G02*
X123237500Y-55575000I-237500J0D01*
G01*
G37*
G04 #@! TD*
G04 #@! TO.C,C401*
G36*
G01*
X36600000Y-64237500D02*
X36600000Y-63762500D01*
G75*
G02*
X36837500Y-63525000I237500J0D01*
G01*
X37437500Y-63525000D01*
G75*
G02*
X37675000Y-63762500I0J-237500D01*
G01*
X37675000Y-64237500D01*
G75*
G02*
X37437500Y-64475000I-237500J0D01*
G01*
X36837500Y-64475000D01*
G75*
G02*
X36600000Y-64237500I0J237500D01*
G01*
G37*
G36*
G01*
X38325000Y-64237500D02*
X38325000Y-63762500D01*
G75*
G02*
X38562500Y-63525000I237500J0D01*
G01*
X39162500Y-63525000D01*
G75*
G02*
X39400000Y-63762500I0J-237500D01*
G01*
X39400000Y-64237500D01*
G75*
G02*
X39162500Y-64475000I-237500J0D01*
G01*
X38562500Y-64475000D01*
G75*
G02*
X38325000Y-64237500I0J237500D01*
G01*
G37*
G04 #@! TD*
G04 #@! TO.C,C413*
G36*
G01*
X117600000Y-122237500D02*
X117600000Y-121762500D01*
G75*
G02*
X117837500Y-121525000I237500J0D01*
G01*
X118437500Y-121525000D01*
G75*
G02*
X118675000Y-121762500I0J-237500D01*
G01*
X118675000Y-122237500D01*
G75*
G02*
X118437500Y-122475000I-237500J0D01*
G01*
X117837500Y-122475000D01*
G75*
G02*
X117600000Y-122237500I0J237500D01*
G01*
G37*
G36*
G01*
X119325000Y-122237500D02*
X119325000Y-121762500D01*
G75*
G02*
X119562500Y-121525000I237500J0D01*
G01*
X120162500Y-121525000D01*
G75*
G02*
X120400000Y-121762500I0J-237500D01*
G01*
X120400000Y-122237500D01*
G75*
G02*
X120162500Y-122475000I-237500J0D01*
G01*
X119562500Y-122475000D01*
G75*
G02*
X119325000Y-122237500I0J237500D01*
G01*
G37*
G04 #@! TD*
G04 #@! TO.C,R205*
G36*
G01*
X75100000Y-138987500D02*
X75100000Y-138512500D01*
G75*
G02*
X75337500Y-138275000I237500J0D01*
G01*
X75837500Y-138275000D01*
G75*
G02*
X76075000Y-138512500I0J-237500D01*
G01*
X76075000Y-138987500D01*
G75*
G02*
X75837500Y-139225000I-237500J0D01*
G01*
X75337500Y-139225000D01*
G75*
G02*
X75100000Y-138987500I0J237500D01*
G01*
G37*
G36*
G01*
X76925000Y-138987500D02*
X76925000Y-138512500D01*
G75*
G02*
X77162500Y-138275000I237500J0D01*
G01*
X77662500Y-138275000D01*
G75*
G02*
X77900000Y-138512500I0J-237500D01*
G01*
X77900000Y-138987500D01*
G75*
G02*
X77662500Y-139225000I-237500J0D01*
G01*
X77162500Y-139225000D01*
G75*
G02*
X76925000Y-138987500I0J237500D01*
G01*
G37*
G04 #@! TD*
G04 #@! TO.C,R301*
G36*
G01*
X65900000Y-137512500D02*
X65900000Y-137987500D01*
G75*
G02*
X65662500Y-138225000I-237500J0D01*
G01*
X65162500Y-138225000D01*
G75*
G02*
X64925000Y-137987500I0J237500D01*
G01*
X64925000Y-137512500D01*
G75*
G02*
X65162500Y-137275000I237500J0D01*
G01*
X65662500Y-137275000D01*
G75*
G02*
X65900000Y-137512500I0J-237500D01*
G01*
G37*
G36*
G01*
X64075000Y-137512500D02*
X64075000Y-137987500D01*
G75*
G02*
X63837500Y-138225000I-237500J0D01*
G01*
X63337500Y-138225000D01*
G75*
G02*
X63100000Y-137987500I0J237500D01*
G01*
X63100000Y-137512500D01*
G75*
G02*
X63337500Y-137275000I237500J0D01*
G01*
X63837500Y-137275000D01*
G75*
G02*
X64075000Y-137512500I0J-237500D01*
G01*
G37*
G04 #@! TD*
G04 #@! TO.C,R107*
G36*
G01*
X59762500Y-174100000D02*
X60237500Y-174100000D01*
G75*
G02*
X60475000Y-174337500I0J-237500D01*
G01*
X60475000Y-174837500D01*
G75*
G02*
X60237500Y-175075000I-237500J0D01*
G01*
X59762500Y-175075000D01*
G75*
G02*
X59525000Y-174837500I0J237500D01*
G01*
X59525000Y-174337500D01*
G75*
G02*
X59762500Y-174100000I237500J0D01*
G01*
G37*
G36*
G01*
X59762500Y-175925000D02*
X60237500Y-175925000D01*
G75*
G02*
X60475000Y-176162500I0J-237500D01*
G01*
X60475000Y-176662500D01*
G75*
G02*
X60237500Y-176900000I-237500J0D01*
G01*
X59762500Y-176900000D01*
G75*
G02*
X59525000Y-176662500I0J237500D01*
G01*
X59525000Y-176162500D01*
G75*
G02*
X59762500Y-175925000I237500J0D01*
G01*
G37*
G04 #@! TD*
G04 #@! TO.C,R502*
G36*
G01*
X89600000Y-167737500D02*
X89600000Y-167262500D01*
G75*
G02*
X89837500Y-167025000I237500J0D01*
G01*
X90337500Y-167025000D01*
G75*
G02*
X90575000Y-167262500I0J-237500D01*
G01*
X90575000Y-167737500D01*
G75*
G02*
X90337500Y-167975000I-237500J0D01*
G01*
X89837500Y-167975000D01*
G75*
G02*
X89600000Y-167737500I0J237500D01*
G01*
G37*
G36*
G01*
X91425000Y-167737500D02*
X91425000Y-167262500D01*
G75*
G02*
X91662500Y-167025000I237500J0D01*
G01*
X92162500Y-167025000D01*
G75*
G02*
X92400000Y-167262500I0J-237500D01*
G01*
X92400000Y-167737500D01*
G75*
G02*
X92162500Y-167975000I-237500J0D01*
G01*
X91662500Y-167975000D01*
G75*
G02*
X91425000Y-167737500I0J237500D01*
G01*
G37*
G04 #@! TD*
G04 #@! TO.C,C223*
G36*
G01*
X57762500Y-150850000D02*
X58237500Y-150850000D01*
G75*
G02*
X58475000Y-151087500I0J-237500D01*
G01*
X58475000Y-151687500D01*
G75*
G02*
X58237500Y-151925000I-237500J0D01*
G01*
X57762500Y-151925000D01*
G75*
G02*
X57525000Y-151687500I0J237500D01*
G01*
X57525000Y-151087500D01*
G75*
G02*
X57762500Y-150850000I237500J0D01*
G01*
G37*
G36*
G01*
X57762500Y-152575000D02*
X58237500Y-152575000D01*
G75*
G02*
X58475000Y-152812500I0J-237500D01*
G01*
X58475000Y-153412500D01*
G75*
G02*
X58237500Y-153650000I-237500J0D01*
G01*
X57762500Y-153650000D01*
G75*
G02*
X57525000Y-153412500I0J237500D01*
G01*
X57525000Y-152812500D01*
G75*
G02*
X57762500Y-152575000I237500J0D01*
G01*
G37*
G04 #@! TD*
D29*
G04 #@! TO.C,D202*
X100000000Y-140800000D03*
X100000000Y-145200000D03*
G04 #@! TD*
D12*
G04 #@! TO.C,Q409*
X128000000Y-74000000D03*
D13*
X128000000Y-71460000D03*
X128000000Y-68920000D03*
G04 #@! TD*
D12*
G04 #@! TO.C,Q403*
X32000000Y-69000000D03*
D13*
X32000000Y-71540000D03*
X32000000Y-74080000D03*
G04 #@! TD*
G04 #@! TO.C,R416*
G36*
G01*
X123237500Y-129400000D02*
X122762500Y-129400000D01*
G75*
G02*
X122525000Y-129162500I0J237500D01*
G01*
X122525000Y-128662500D01*
G75*
G02*
X122762500Y-128425000I237500J0D01*
G01*
X123237500Y-128425000D01*
G75*
G02*
X123475000Y-128662500I0J-237500D01*
G01*
X123475000Y-129162500D01*
G75*
G02*
X123237500Y-129400000I-237500J0D01*
G01*
G37*
G36*
G01*
X123237500Y-127575000D02*
X122762500Y-127575000D01*
G75*
G02*
X122525000Y-127337500I0J237500D01*
G01*
X122525000Y-126837500D01*
G75*
G02*
X122762500Y-126600000I237500J0D01*
G01*
X123237500Y-126600000D01*
G75*
G02*
X123475000Y-126837500I0J-237500D01*
G01*
X123475000Y-127337500D01*
G75*
G02*
X123237500Y-127575000I-237500J0D01*
G01*
G37*
G04 #@! TD*
G04 #@! TO.C,R114*
G36*
G01*
X42512500Y-158850000D02*
X42987500Y-158850000D01*
G75*
G02*
X43225000Y-159087500I0J-237500D01*
G01*
X43225000Y-159587500D01*
G75*
G02*
X42987500Y-159825000I-237500J0D01*
G01*
X42512500Y-159825000D01*
G75*
G02*
X42275000Y-159587500I0J237500D01*
G01*
X42275000Y-159087500D01*
G75*
G02*
X42512500Y-158850000I237500J0D01*
G01*
G37*
G36*
G01*
X42512500Y-160675000D02*
X42987500Y-160675000D01*
G75*
G02*
X43225000Y-160912500I0J-237500D01*
G01*
X43225000Y-161412500D01*
G75*
G02*
X42987500Y-161650000I-237500J0D01*
G01*
X42512500Y-161650000D01*
G75*
G02*
X42275000Y-161412500I0J237500D01*
G01*
X42275000Y-160912500D01*
G75*
G02*
X42512500Y-160675000I237500J0D01*
G01*
G37*
G04 #@! TD*
G04 #@! TO.C,C203*
G36*
G01*
X126762500Y-148262500D02*
X126762500Y-148737500D01*
G75*
G02*
X126525000Y-148975000I-237500J0D01*
G01*
X125925000Y-148975000D01*
G75*
G02*
X125687500Y-148737500I0J237500D01*
G01*
X125687500Y-148262500D01*
G75*
G02*
X125925000Y-148025000I237500J0D01*
G01*
X126525000Y-148025000D01*
G75*
G02*
X126762500Y-148262500I0J-237500D01*
G01*
G37*
G36*
G01*
X125037500Y-148262500D02*
X125037500Y-148737500D01*
G75*
G02*
X124800000Y-148975000I-237500J0D01*
G01*
X124200000Y-148975000D01*
G75*
G02*
X123962500Y-148737500I0J237500D01*
G01*
X123962500Y-148262500D01*
G75*
G02*
X124200000Y-148025000I237500J0D01*
G01*
X124800000Y-148025000D01*
G75*
G02*
X125037500Y-148262500I0J-237500D01*
G01*
G37*
G04 #@! TD*
G04 #@! TO.C,R302*
G36*
G01*
X49262500Y-156100000D02*
X49737500Y-156100000D01*
G75*
G02*
X49975000Y-156337500I0J-237500D01*
G01*
X49975000Y-156837500D01*
G75*
G02*
X49737500Y-157075000I-237500J0D01*
G01*
X49262500Y-157075000D01*
G75*
G02*
X49025000Y-156837500I0J237500D01*
G01*
X49025000Y-156337500D01*
G75*
G02*
X49262500Y-156100000I237500J0D01*
G01*
G37*
G36*
G01*
X49262500Y-157925000D02*
X49737500Y-157925000D01*
G75*
G02*
X49975000Y-158162500I0J-237500D01*
G01*
X49975000Y-158662500D01*
G75*
G02*
X49737500Y-158900000I-237500J0D01*
G01*
X49262500Y-158900000D01*
G75*
G02*
X49025000Y-158662500I0J237500D01*
G01*
X49025000Y-158162500D01*
G75*
G02*
X49262500Y-157925000I237500J0D01*
G01*
G37*
G04 #@! TD*
G04 #@! TO.C,R306*
G36*
G01*
X36400000Y-155762500D02*
X36400000Y-156237500D01*
G75*
G02*
X36162500Y-156475000I-237500J0D01*
G01*
X35662500Y-156475000D01*
G75*
G02*
X35425000Y-156237500I0J237500D01*
G01*
X35425000Y-155762500D01*
G75*
G02*
X35662500Y-155525000I237500J0D01*
G01*
X36162500Y-155525000D01*
G75*
G02*
X36400000Y-155762500I0J-237500D01*
G01*
G37*
G36*
G01*
X34575000Y-155762500D02*
X34575000Y-156237500D01*
G75*
G02*
X34337500Y-156475000I-237500J0D01*
G01*
X33837500Y-156475000D01*
G75*
G02*
X33600000Y-156237500I0J237500D01*
G01*
X33600000Y-155762500D01*
G75*
G02*
X33837500Y-155525000I237500J0D01*
G01*
X34337500Y-155525000D01*
G75*
G02*
X34575000Y-155762500I0J-237500D01*
G01*
G37*
G04 #@! TD*
G04 #@! TO.C,C221*
G36*
G01*
X49400000Y-151012500D02*
X49400000Y-151487500D01*
G75*
G02*
X49162500Y-151725000I-237500J0D01*
G01*
X48562500Y-151725000D01*
G75*
G02*
X48325000Y-151487500I0J237500D01*
G01*
X48325000Y-151012500D01*
G75*
G02*
X48562500Y-150775000I237500J0D01*
G01*
X49162500Y-150775000D01*
G75*
G02*
X49400000Y-151012500I0J-237500D01*
G01*
G37*
G36*
G01*
X47675000Y-151012500D02*
X47675000Y-151487500D01*
G75*
G02*
X47437500Y-151725000I-237500J0D01*
G01*
X46837500Y-151725000D01*
G75*
G02*
X46600000Y-151487500I0J237500D01*
G01*
X46600000Y-151012500D01*
G75*
G02*
X46837500Y-150775000I237500J0D01*
G01*
X47437500Y-150775000D01*
G75*
G02*
X47675000Y-151012500I0J-237500D01*
G01*
G37*
G04 #@! TD*
G04 #@! TO.C,R505*
G36*
G01*
X114100000Y-164737500D02*
X114100000Y-164262500D01*
G75*
G02*
X114337500Y-164025000I237500J0D01*
G01*
X114837500Y-164025000D01*
G75*
G02*
X115075000Y-164262500I0J-237500D01*
G01*
X115075000Y-164737500D01*
G75*
G02*
X114837500Y-164975000I-237500J0D01*
G01*
X114337500Y-164975000D01*
G75*
G02*
X114100000Y-164737500I0J237500D01*
G01*
G37*
G36*
G01*
X115925000Y-164737500D02*
X115925000Y-164262500D01*
G75*
G02*
X116162500Y-164025000I237500J0D01*
G01*
X116662500Y-164025000D01*
G75*
G02*
X116900000Y-164262500I0J-237500D01*
G01*
X116900000Y-164737500D01*
G75*
G02*
X116662500Y-164975000I-237500J0D01*
G01*
X116162500Y-164975000D01*
G75*
G02*
X115925000Y-164737500I0J237500D01*
G01*
G37*
G04 #@! TD*
G04 #@! TO.C,R116*
G36*
G01*
X79737500Y-174100000D02*
X80212500Y-174100000D01*
G75*
G02*
X80450000Y-174337500I0J-237500D01*
G01*
X80450000Y-174837500D01*
G75*
G02*
X80212500Y-175075000I-237500J0D01*
G01*
X79737500Y-175075000D01*
G75*
G02*
X79500000Y-174837500I0J237500D01*
G01*
X79500000Y-174337500D01*
G75*
G02*
X79737500Y-174100000I237500J0D01*
G01*
G37*
G36*
G01*
X79737500Y-175925000D02*
X80212500Y-175925000D01*
G75*
G02*
X80450000Y-176162500I0J-237500D01*
G01*
X80450000Y-176662500D01*
G75*
G02*
X80212500Y-176900000I-237500J0D01*
G01*
X79737500Y-176900000D01*
G75*
G02*
X79500000Y-176662500I0J237500D01*
G01*
X79500000Y-176162500D01*
G75*
G02*
X79737500Y-175925000I237500J0D01*
G01*
G37*
G04 #@! TD*
G04 #@! TO.C,R407*
G36*
G01*
X37237500Y-104400000D02*
X36762500Y-104400000D01*
G75*
G02*
X36525000Y-104162500I0J237500D01*
G01*
X36525000Y-103662500D01*
G75*
G02*
X36762500Y-103425000I237500J0D01*
G01*
X37237500Y-103425000D01*
G75*
G02*
X37475000Y-103662500I0J-237500D01*
G01*
X37475000Y-104162500D01*
G75*
G02*
X37237500Y-104400000I-237500J0D01*
G01*
G37*
G36*
G01*
X37237500Y-102575000D02*
X36762500Y-102575000D01*
G75*
G02*
X36525000Y-102337500I0J237500D01*
G01*
X36525000Y-101837500D01*
G75*
G02*
X36762500Y-101600000I237500J0D01*
G01*
X37237500Y-101600000D01*
G75*
G02*
X37475000Y-101837500I0J-237500D01*
G01*
X37475000Y-102337500D01*
G75*
G02*
X37237500Y-102575000I-237500J0D01*
G01*
G37*
G04 #@! TD*
G04 #@! TO.C,R110*
G36*
G01*
X53600000Y-129237500D02*
X53600000Y-128762500D01*
G75*
G02*
X53837500Y-128525000I237500J0D01*
G01*
X54337500Y-128525000D01*
G75*
G02*
X54575000Y-128762500I0J-237500D01*
G01*
X54575000Y-129237500D01*
G75*
G02*
X54337500Y-129475000I-237500J0D01*
G01*
X53837500Y-129475000D01*
G75*
G02*
X53600000Y-129237500I0J237500D01*
G01*
G37*
G36*
G01*
X55425000Y-129237500D02*
X55425000Y-128762500D01*
G75*
G02*
X55662500Y-128525000I237500J0D01*
G01*
X56162500Y-128525000D01*
G75*
G02*
X56400000Y-128762500I0J-237500D01*
G01*
X56400000Y-129237500D01*
G75*
G02*
X56162500Y-129475000I-237500J0D01*
G01*
X55662500Y-129475000D01*
G75*
G02*
X55425000Y-129237500I0J237500D01*
G01*
G37*
G04 #@! TD*
D12*
G04 #@! TO.C,Q402*
X32000000Y-52000000D03*
D13*
X32000000Y-54540000D03*
X32000000Y-57080000D03*
G04 #@! TD*
D22*
G04 #@! TO.C,H110*
X105500000Y-35000000D03*
G04 #@! TD*
G04 #@! TO.C,C102*
G36*
G01*
X55150000Y-170512500D02*
X55150000Y-170987500D01*
G75*
G02*
X54912500Y-171225000I-237500J0D01*
G01*
X54312500Y-171225000D01*
G75*
G02*
X54075000Y-170987500I0J237500D01*
G01*
X54075000Y-170512500D01*
G75*
G02*
X54312500Y-170275000I237500J0D01*
G01*
X54912500Y-170275000D01*
G75*
G02*
X55150000Y-170512500I0J-237500D01*
G01*
G37*
G36*
G01*
X53425000Y-170512500D02*
X53425000Y-170987500D01*
G75*
G02*
X53187500Y-171225000I-237500J0D01*
G01*
X52587500Y-171225000D01*
G75*
G02*
X52350000Y-170987500I0J237500D01*
G01*
X52350000Y-170512500D01*
G75*
G02*
X52587500Y-170275000I237500J0D01*
G01*
X53187500Y-170275000D01*
G75*
G02*
X53425000Y-170512500I0J-237500D01*
G01*
G37*
G04 #@! TD*
G04 #@! TO.C,R409*
G36*
G01*
X123400000Y-61762500D02*
X123400000Y-62237500D01*
G75*
G02*
X123162500Y-62475000I-237500J0D01*
G01*
X122662500Y-62475000D01*
G75*
G02*
X122425000Y-62237500I0J237500D01*
G01*
X122425000Y-61762500D01*
G75*
G02*
X122662500Y-61525000I237500J0D01*
G01*
X123162500Y-61525000D01*
G75*
G02*
X123400000Y-61762500I0J-237500D01*
G01*
G37*
G36*
G01*
X121575000Y-61762500D02*
X121575000Y-62237500D01*
G75*
G02*
X121337500Y-62475000I-237500J0D01*
G01*
X120837500Y-62475000D01*
G75*
G02*
X120600000Y-62237500I0J237500D01*
G01*
X120600000Y-61762500D01*
G75*
G02*
X120837500Y-61525000I237500J0D01*
G01*
X121337500Y-61525000D01*
G75*
G02*
X121575000Y-61762500I0J-237500D01*
G01*
G37*
G04 #@! TD*
G04 #@! TO.C,J109*
G36*
G01*
X113150000Y-179750000D02*
X113150000Y-178250000D01*
G75*
G02*
X113400000Y-178000000I250000J0D01*
G01*
X114600000Y-178000000D01*
G75*
G02*
X114850000Y-178250000I0J-250000D01*
G01*
X114850000Y-179750000D01*
G75*
G02*
X114600000Y-180000000I-250000J0D01*
G01*
X113400000Y-180000000D01*
G75*
G02*
X113150000Y-179750000I0J250000D01*
G01*
G37*
D30*
X116500000Y-179000000D03*
G04 #@! TD*
D22*
G04 #@! TO.C,H109*
X54500000Y-35000000D03*
G04 #@! TD*
G04 #@! TO.C,R104*
G36*
G01*
X60237500Y-182900000D02*
X59762500Y-182900000D01*
G75*
G02*
X59525000Y-182662500I0J237500D01*
G01*
X59525000Y-182162500D01*
G75*
G02*
X59762500Y-181925000I237500J0D01*
G01*
X60237500Y-181925000D01*
G75*
G02*
X60475000Y-182162500I0J-237500D01*
G01*
X60475000Y-182662500D01*
G75*
G02*
X60237500Y-182900000I-237500J0D01*
G01*
G37*
G36*
G01*
X60237500Y-181075000D02*
X59762500Y-181075000D01*
G75*
G02*
X59525000Y-180837500I0J237500D01*
G01*
X59525000Y-180337500D01*
G75*
G02*
X59762500Y-180100000I237500J0D01*
G01*
X60237500Y-180100000D01*
G75*
G02*
X60475000Y-180337500I0J-237500D01*
G01*
X60475000Y-180837500D01*
G75*
G02*
X60237500Y-181075000I-237500J0D01*
G01*
G37*
G04 #@! TD*
G04 #@! TO.C,D102*
G36*
G01*
X40950000Y-157850000D02*
X40050000Y-157850000D01*
G75*
G02*
X39800000Y-157600000I0J250000D01*
G01*
X39800000Y-156950000D01*
G75*
G02*
X40050000Y-156700000I250000J0D01*
G01*
X40950000Y-156700000D01*
G75*
G02*
X41200000Y-156950000I0J-250000D01*
G01*
X41200000Y-157600000D01*
G75*
G02*
X40950000Y-157850000I-250000J0D01*
G01*
G37*
G36*
G01*
X40950000Y-155800000D02*
X40050000Y-155800000D01*
G75*
G02*
X39800000Y-155550000I0J250000D01*
G01*
X39800000Y-154900000D01*
G75*
G02*
X40050000Y-154650000I250000J0D01*
G01*
X40950000Y-154650000D01*
G75*
G02*
X41200000Y-154900000I0J-250000D01*
G01*
X41200000Y-155550000D01*
G75*
G02*
X40950000Y-155800000I-250000J0D01*
G01*
G37*
G04 #@! TD*
G04 #@! TO.C,U203*
G36*
G01*
X56400000Y-150250000D02*
X56400000Y-151575000D01*
G75*
G02*
X56325000Y-151650000I-75000J0D01*
G01*
X56175000Y-151650000D01*
G75*
G02*
X56100000Y-151575000I0J75000D01*
G01*
X56100000Y-150250000D01*
G75*
G02*
X56175000Y-150175000I75000J0D01*
G01*
X56325000Y-150175000D01*
G75*
G02*
X56400000Y-150250000I0J-75000D01*
G01*
G37*
G36*
G01*
X55900000Y-150250000D02*
X55900000Y-151575000D01*
G75*
G02*
X55825000Y-151650000I-75000J0D01*
G01*
X55675000Y-151650000D01*
G75*
G02*
X55600000Y-151575000I0J75000D01*
G01*
X55600000Y-150250000D01*
G75*
G02*
X55675000Y-150175000I75000J0D01*
G01*
X55825000Y-150175000D01*
G75*
G02*
X55900000Y-150250000I0J-75000D01*
G01*
G37*
G36*
G01*
X55400000Y-150250000D02*
X55400000Y-151575000D01*
G75*
G02*
X55325000Y-151650000I-75000J0D01*
G01*
X55175000Y-151650000D01*
G75*
G02*
X55100000Y-151575000I0J75000D01*
G01*
X55100000Y-150250000D01*
G75*
G02*
X55175000Y-150175000I75000J0D01*
G01*
X55325000Y-150175000D01*
G75*
G02*
X55400000Y-150250000I0J-75000D01*
G01*
G37*
G36*
G01*
X54900000Y-150250000D02*
X54900000Y-151575000D01*
G75*
G02*
X54825000Y-151650000I-75000J0D01*
G01*
X54675000Y-151650000D01*
G75*
G02*
X54600000Y-151575000I0J75000D01*
G01*
X54600000Y-150250000D01*
G75*
G02*
X54675000Y-150175000I75000J0D01*
G01*
X54825000Y-150175000D01*
G75*
G02*
X54900000Y-150250000I0J-75000D01*
G01*
G37*
G36*
G01*
X54400000Y-150250000D02*
X54400000Y-151575000D01*
G75*
G02*
X54325000Y-151650000I-75000J0D01*
G01*
X54175000Y-151650000D01*
G75*
G02*
X54100000Y-151575000I0J75000D01*
G01*
X54100000Y-150250000D01*
G75*
G02*
X54175000Y-150175000I75000J0D01*
G01*
X54325000Y-150175000D01*
G75*
G02*
X54400000Y-150250000I0J-75000D01*
G01*
G37*
G36*
G01*
X53900000Y-150250000D02*
X53900000Y-151575000D01*
G75*
G02*
X53825000Y-151650000I-75000J0D01*
G01*
X53675000Y-151650000D01*
G75*
G02*
X53600000Y-151575000I0J75000D01*
G01*
X53600000Y-150250000D01*
G75*
G02*
X53675000Y-150175000I75000J0D01*
G01*
X53825000Y-150175000D01*
G75*
G02*
X53900000Y-150250000I0J-75000D01*
G01*
G37*
G36*
G01*
X53400000Y-150250000D02*
X53400000Y-151575000D01*
G75*
G02*
X53325000Y-151650000I-75000J0D01*
G01*
X53175000Y-151650000D01*
G75*
G02*
X53100000Y-151575000I0J75000D01*
G01*
X53100000Y-150250000D01*
G75*
G02*
X53175000Y-150175000I75000J0D01*
G01*
X53325000Y-150175000D01*
G75*
G02*
X53400000Y-150250000I0J-75000D01*
G01*
G37*
G36*
G01*
X52900000Y-150250000D02*
X52900000Y-151575000D01*
G75*
G02*
X52825000Y-151650000I-75000J0D01*
G01*
X52675000Y-151650000D01*
G75*
G02*
X52600000Y-151575000I0J75000D01*
G01*
X52600000Y-150250000D01*
G75*
G02*
X52675000Y-150175000I75000J0D01*
G01*
X52825000Y-150175000D01*
G75*
G02*
X52900000Y-150250000I0J-75000D01*
G01*
G37*
G36*
G01*
X52400000Y-150250000D02*
X52400000Y-151575000D01*
G75*
G02*
X52325000Y-151650000I-75000J0D01*
G01*
X52175000Y-151650000D01*
G75*
G02*
X52100000Y-151575000I0J75000D01*
G01*
X52100000Y-150250000D01*
G75*
G02*
X52175000Y-150175000I75000J0D01*
G01*
X52325000Y-150175000D01*
G75*
G02*
X52400000Y-150250000I0J-75000D01*
G01*
G37*
G36*
G01*
X51900000Y-150250000D02*
X51900000Y-151575000D01*
G75*
G02*
X51825000Y-151650000I-75000J0D01*
G01*
X51675000Y-151650000D01*
G75*
G02*
X51600000Y-151575000I0J75000D01*
G01*
X51600000Y-150250000D01*
G75*
G02*
X51675000Y-150175000I75000J0D01*
G01*
X51825000Y-150175000D01*
G75*
G02*
X51900000Y-150250000I0J-75000D01*
G01*
G37*
G36*
G01*
X51400000Y-150250000D02*
X51400000Y-151575000D01*
G75*
G02*
X51325000Y-151650000I-75000J0D01*
G01*
X51175000Y-151650000D01*
G75*
G02*
X51100000Y-151575000I0J75000D01*
G01*
X51100000Y-150250000D01*
G75*
G02*
X51175000Y-150175000I75000J0D01*
G01*
X51325000Y-150175000D01*
G75*
G02*
X51400000Y-150250000I0J-75000D01*
G01*
G37*
G36*
G01*
X50900000Y-150250000D02*
X50900000Y-151575000D01*
G75*
G02*
X50825000Y-151650000I-75000J0D01*
G01*
X50675000Y-151650000D01*
G75*
G02*
X50600000Y-151575000I0J75000D01*
G01*
X50600000Y-150250000D01*
G75*
G02*
X50675000Y-150175000I75000J0D01*
G01*
X50825000Y-150175000D01*
G75*
G02*
X50900000Y-150250000I0J-75000D01*
G01*
G37*
G36*
G01*
X50075000Y-149425000D02*
X50075000Y-149575000D01*
G75*
G02*
X50000000Y-149650000I-75000J0D01*
G01*
X48675000Y-149650000D01*
G75*
G02*
X48600000Y-149575000I0J75000D01*
G01*
X48600000Y-149425000D01*
G75*
G02*
X48675000Y-149350000I75000J0D01*
G01*
X50000000Y-149350000D01*
G75*
G02*
X50075000Y-149425000I0J-75000D01*
G01*
G37*
G36*
G01*
X50075000Y-148925000D02*
X50075000Y-149075000D01*
G75*
G02*
X50000000Y-149150000I-75000J0D01*
G01*
X48675000Y-149150000D01*
G75*
G02*
X48600000Y-149075000I0J75000D01*
G01*
X48600000Y-148925000D01*
G75*
G02*
X48675000Y-148850000I75000J0D01*
G01*
X50000000Y-148850000D01*
G75*
G02*
X50075000Y-148925000I0J-75000D01*
G01*
G37*
G36*
G01*
X50075000Y-148425000D02*
X50075000Y-148575000D01*
G75*
G02*
X50000000Y-148650000I-75000J0D01*
G01*
X48675000Y-148650000D01*
G75*
G02*
X48600000Y-148575000I0J75000D01*
G01*
X48600000Y-148425000D01*
G75*
G02*
X48675000Y-148350000I75000J0D01*
G01*
X50000000Y-148350000D01*
G75*
G02*
X50075000Y-148425000I0J-75000D01*
G01*
G37*
G36*
G01*
X50075000Y-147925000D02*
X50075000Y-148075000D01*
G75*
G02*
X50000000Y-148150000I-75000J0D01*
G01*
X48675000Y-148150000D01*
G75*
G02*
X48600000Y-148075000I0J75000D01*
G01*
X48600000Y-147925000D01*
G75*
G02*
X48675000Y-147850000I75000J0D01*
G01*
X50000000Y-147850000D01*
G75*
G02*
X50075000Y-147925000I0J-75000D01*
G01*
G37*
G36*
G01*
X50075000Y-147425000D02*
X50075000Y-147575000D01*
G75*
G02*
X50000000Y-147650000I-75000J0D01*
G01*
X48675000Y-147650000D01*
G75*
G02*
X48600000Y-147575000I0J75000D01*
G01*
X48600000Y-147425000D01*
G75*
G02*
X48675000Y-147350000I75000J0D01*
G01*
X50000000Y-147350000D01*
G75*
G02*
X50075000Y-147425000I0J-75000D01*
G01*
G37*
G36*
G01*
X50075000Y-146925000D02*
X50075000Y-147075000D01*
G75*
G02*
X50000000Y-147150000I-75000J0D01*
G01*
X48675000Y-147150000D01*
G75*
G02*
X48600000Y-147075000I0J75000D01*
G01*
X48600000Y-146925000D01*
G75*
G02*
X48675000Y-146850000I75000J0D01*
G01*
X50000000Y-146850000D01*
G75*
G02*
X50075000Y-146925000I0J-75000D01*
G01*
G37*
G36*
G01*
X50075000Y-146425000D02*
X50075000Y-146575000D01*
G75*
G02*
X50000000Y-146650000I-75000J0D01*
G01*
X48675000Y-146650000D01*
G75*
G02*
X48600000Y-146575000I0J75000D01*
G01*
X48600000Y-146425000D01*
G75*
G02*
X48675000Y-146350000I75000J0D01*
G01*
X50000000Y-146350000D01*
G75*
G02*
X50075000Y-146425000I0J-75000D01*
G01*
G37*
G36*
G01*
X50075000Y-145925000D02*
X50075000Y-146075000D01*
G75*
G02*
X50000000Y-146150000I-75000J0D01*
G01*
X48675000Y-146150000D01*
G75*
G02*
X48600000Y-146075000I0J75000D01*
G01*
X48600000Y-145925000D01*
G75*
G02*
X48675000Y-145850000I75000J0D01*
G01*
X50000000Y-145850000D01*
G75*
G02*
X50075000Y-145925000I0J-75000D01*
G01*
G37*
G36*
G01*
X50075000Y-145425000D02*
X50075000Y-145575000D01*
G75*
G02*
X50000000Y-145650000I-75000J0D01*
G01*
X48675000Y-145650000D01*
G75*
G02*
X48600000Y-145575000I0J75000D01*
G01*
X48600000Y-145425000D01*
G75*
G02*
X48675000Y-145350000I75000J0D01*
G01*
X50000000Y-145350000D01*
G75*
G02*
X50075000Y-145425000I0J-75000D01*
G01*
G37*
G36*
G01*
X50075000Y-144925000D02*
X50075000Y-145075000D01*
G75*
G02*
X50000000Y-145150000I-75000J0D01*
G01*
X48675000Y-145150000D01*
G75*
G02*
X48600000Y-145075000I0J75000D01*
G01*
X48600000Y-144925000D01*
G75*
G02*
X48675000Y-144850000I75000J0D01*
G01*
X50000000Y-144850000D01*
G75*
G02*
X50075000Y-144925000I0J-75000D01*
G01*
G37*
G36*
G01*
X50075000Y-144425000D02*
X50075000Y-144575000D01*
G75*
G02*
X50000000Y-144650000I-75000J0D01*
G01*
X48675000Y-144650000D01*
G75*
G02*
X48600000Y-144575000I0J75000D01*
G01*
X48600000Y-144425000D01*
G75*
G02*
X48675000Y-144350000I75000J0D01*
G01*
X50000000Y-144350000D01*
G75*
G02*
X50075000Y-144425000I0J-75000D01*
G01*
G37*
G36*
G01*
X50075000Y-143925000D02*
X50075000Y-144075000D01*
G75*
G02*
X50000000Y-144150000I-75000J0D01*
G01*
X48675000Y-144150000D01*
G75*
G02*
X48600000Y-144075000I0J75000D01*
G01*
X48600000Y-143925000D01*
G75*
G02*
X48675000Y-143850000I75000J0D01*
G01*
X50000000Y-143850000D01*
G75*
G02*
X50075000Y-143925000I0J-75000D01*
G01*
G37*
G36*
G01*
X50900000Y-141925000D02*
X50900000Y-143250000D01*
G75*
G02*
X50825000Y-143325000I-75000J0D01*
G01*
X50675000Y-143325000D01*
G75*
G02*
X50600000Y-143250000I0J75000D01*
G01*
X50600000Y-141925000D01*
G75*
G02*
X50675000Y-141850000I75000J0D01*
G01*
X50825000Y-141850000D01*
G75*
G02*
X50900000Y-141925000I0J-75000D01*
G01*
G37*
G36*
G01*
X51400000Y-141925000D02*
X51400000Y-143250000D01*
G75*
G02*
X51325000Y-143325000I-75000J0D01*
G01*
X51175000Y-143325000D01*
G75*
G02*
X51100000Y-143250000I0J75000D01*
G01*
X51100000Y-141925000D01*
G75*
G02*
X51175000Y-141850000I75000J0D01*
G01*
X51325000Y-141850000D01*
G75*
G02*
X51400000Y-141925000I0J-75000D01*
G01*
G37*
G36*
G01*
X51900000Y-141925000D02*
X51900000Y-143250000D01*
G75*
G02*
X51825000Y-143325000I-75000J0D01*
G01*
X51675000Y-143325000D01*
G75*
G02*
X51600000Y-143250000I0J75000D01*
G01*
X51600000Y-141925000D01*
G75*
G02*
X51675000Y-141850000I75000J0D01*
G01*
X51825000Y-141850000D01*
G75*
G02*
X51900000Y-141925000I0J-75000D01*
G01*
G37*
G36*
G01*
X52400000Y-141925000D02*
X52400000Y-143250000D01*
G75*
G02*
X52325000Y-143325000I-75000J0D01*
G01*
X52175000Y-143325000D01*
G75*
G02*
X52100000Y-143250000I0J75000D01*
G01*
X52100000Y-141925000D01*
G75*
G02*
X52175000Y-141850000I75000J0D01*
G01*
X52325000Y-141850000D01*
G75*
G02*
X52400000Y-141925000I0J-75000D01*
G01*
G37*
G36*
G01*
X52900000Y-141925000D02*
X52900000Y-143250000D01*
G75*
G02*
X52825000Y-143325000I-75000J0D01*
G01*
X52675000Y-143325000D01*
G75*
G02*
X52600000Y-143250000I0J75000D01*
G01*
X52600000Y-141925000D01*
G75*
G02*
X52675000Y-141850000I75000J0D01*
G01*
X52825000Y-141850000D01*
G75*
G02*
X52900000Y-141925000I0J-75000D01*
G01*
G37*
G36*
G01*
X53400000Y-141925000D02*
X53400000Y-143250000D01*
G75*
G02*
X53325000Y-143325000I-75000J0D01*
G01*
X53175000Y-143325000D01*
G75*
G02*
X53100000Y-143250000I0J75000D01*
G01*
X53100000Y-141925000D01*
G75*
G02*
X53175000Y-141850000I75000J0D01*
G01*
X53325000Y-141850000D01*
G75*
G02*
X53400000Y-141925000I0J-75000D01*
G01*
G37*
G36*
G01*
X53900000Y-141925000D02*
X53900000Y-143250000D01*
G75*
G02*
X53825000Y-143325000I-75000J0D01*
G01*
X53675000Y-143325000D01*
G75*
G02*
X53600000Y-143250000I0J75000D01*
G01*
X53600000Y-141925000D01*
G75*
G02*
X53675000Y-141850000I75000J0D01*
G01*
X53825000Y-141850000D01*
G75*
G02*
X53900000Y-141925000I0J-75000D01*
G01*
G37*
G36*
G01*
X54400000Y-141925000D02*
X54400000Y-143250000D01*
G75*
G02*
X54325000Y-143325000I-75000J0D01*
G01*
X54175000Y-143325000D01*
G75*
G02*
X54100000Y-143250000I0J75000D01*
G01*
X54100000Y-141925000D01*
G75*
G02*
X54175000Y-141850000I75000J0D01*
G01*
X54325000Y-141850000D01*
G75*
G02*
X54400000Y-141925000I0J-75000D01*
G01*
G37*
G36*
G01*
X54900000Y-141925000D02*
X54900000Y-143250000D01*
G75*
G02*
X54825000Y-143325000I-75000J0D01*
G01*
X54675000Y-143325000D01*
G75*
G02*
X54600000Y-143250000I0J75000D01*
G01*
X54600000Y-141925000D01*
G75*
G02*
X54675000Y-141850000I75000J0D01*
G01*
X54825000Y-141850000D01*
G75*
G02*
X54900000Y-141925000I0J-75000D01*
G01*
G37*
G36*
G01*
X55400000Y-141925000D02*
X55400000Y-143250000D01*
G75*
G02*
X55325000Y-143325000I-75000J0D01*
G01*
X55175000Y-143325000D01*
G75*
G02*
X55100000Y-143250000I0J75000D01*
G01*
X55100000Y-141925000D01*
G75*
G02*
X55175000Y-141850000I75000J0D01*
G01*
X55325000Y-141850000D01*
G75*
G02*
X55400000Y-141925000I0J-75000D01*
G01*
G37*
G36*
G01*
X55900000Y-141925000D02*
X55900000Y-143250000D01*
G75*
G02*
X55825000Y-143325000I-75000J0D01*
G01*
X55675000Y-143325000D01*
G75*
G02*
X55600000Y-143250000I0J75000D01*
G01*
X55600000Y-141925000D01*
G75*
G02*
X55675000Y-141850000I75000J0D01*
G01*
X55825000Y-141850000D01*
G75*
G02*
X55900000Y-141925000I0J-75000D01*
G01*
G37*
G36*
G01*
X56400000Y-141925000D02*
X56400000Y-143250000D01*
G75*
G02*
X56325000Y-143325000I-75000J0D01*
G01*
X56175000Y-143325000D01*
G75*
G02*
X56100000Y-143250000I0J75000D01*
G01*
X56100000Y-141925000D01*
G75*
G02*
X56175000Y-141850000I75000J0D01*
G01*
X56325000Y-141850000D01*
G75*
G02*
X56400000Y-141925000I0J-75000D01*
G01*
G37*
G36*
G01*
X58400000Y-143925000D02*
X58400000Y-144075000D01*
G75*
G02*
X58325000Y-144150000I-75000J0D01*
G01*
X57000000Y-144150000D01*
G75*
G02*
X56925000Y-144075000I0J75000D01*
G01*
X56925000Y-143925000D01*
G75*
G02*
X57000000Y-143850000I75000J0D01*
G01*
X58325000Y-143850000D01*
G75*
G02*
X58400000Y-143925000I0J-75000D01*
G01*
G37*
G36*
G01*
X58400000Y-144425000D02*
X58400000Y-144575000D01*
G75*
G02*
X58325000Y-144650000I-75000J0D01*
G01*
X57000000Y-144650000D01*
G75*
G02*
X56925000Y-144575000I0J75000D01*
G01*
X56925000Y-144425000D01*
G75*
G02*
X57000000Y-144350000I75000J0D01*
G01*
X58325000Y-144350000D01*
G75*
G02*
X58400000Y-144425000I0J-75000D01*
G01*
G37*
G36*
G01*
X58400000Y-144925000D02*
X58400000Y-145075000D01*
G75*
G02*
X58325000Y-145150000I-75000J0D01*
G01*
X57000000Y-145150000D01*
G75*
G02*
X56925000Y-145075000I0J75000D01*
G01*
X56925000Y-144925000D01*
G75*
G02*
X57000000Y-144850000I75000J0D01*
G01*
X58325000Y-144850000D01*
G75*
G02*
X58400000Y-144925000I0J-75000D01*
G01*
G37*
G36*
G01*
X58400000Y-145425000D02*
X58400000Y-145575000D01*
G75*
G02*
X58325000Y-145650000I-75000J0D01*
G01*
X57000000Y-145650000D01*
G75*
G02*
X56925000Y-145575000I0J75000D01*
G01*
X56925000Y-145425000D01*
G75*
G02*
X57000000Y-145350000I75000J0D01*
G01*
X58325000Y-145350000D01*
G75*
G02*
X58400000Y-145425000I0J-75000D01*
G01*
G37*
G36*
G01*
X58400000Y-145925000D02*
X58400000Y-146075000D01*
G75*
G02*
X58325000Y-146150000I-75000J0D01*
G01*
X57000000Y-146150000D01*
G75*
G02*
X56925000Y-146075000I0J75000D01*
G01*
X56925000Y-145925000D01*
G75*
G02*
X57000000Y-145850000I75000J0D01*
G01*
X58325000Y-145850000D01*
G75*
G02*
X58400000Y-145925000I0J-75000D01*
G01*
G37*
G36*
G01*
X58400000Y-146425000D02*
X58400000Y-146575000D01*
G75*
G02*
X58325000Y-146650000I-75000J0D01*
G01*
X57000000Y-146650000D01*
G75*
G02*
X56925000Y-146575000I0J75000D01*
G01*
X56925000Y-146425000D01*
G75*
G02*
X57000000Y-146350000I75000J0D01*
G01*
X58325000Y-146350000D01*
G75*
G02*
X58400000Y-146425000I0J-75000D01*
G01*
G37*
G36*
G01*
X58400000Y-146925000D02*
X58400000Y-147075000D01*
G75*
G02*
X58325000Y-147150000I-75000J0D01*
G01*
X57000000Y-147150000D01*
G75*
G02*
X56925000Y-147075000I0J75000D01*
G01*
X56925000Y-146925000D01*
G75*
G02*
X57000000Y-146850000I75000J0D01*
G01*
X58325000Y-146850000D01*
G75*
G02*
X58400000Y-146925000I0J-75000D01*
G01*
G37*
G36*
G01*
X58400000Y-147425000D02*
X58400000Y-147575000D01*
G75*
G02*
X58325000Y-147650000I-75000J0D01*
G01*
X57000000Y-147650000D01*
G75*
G02*
X56925000Y-147575000I0J75000D01*
G01*
X56925000Y-147425000D01*
G75*
G02*
X57000000Y-147350000I75000J0D01*
G01*
X58325000Y-147350000D01*
G75*
G02*
X58400000Y-147425000I0J-75000D01*
G01*
G37*
G36*
G01*
X58400000Y-147925000D02*
X58400000Y-148075000D01*
G75*
G02*
X58325000Y-148150000I-75000J0D01*
G01*
X57000000Y-148150000D01*
G75*
G02*
X56925000Y-148075000I0J75000D01*
G01*
X56925000Y-147925000D01*
G75*
G02*
X57000000Y-147850000I75000J0D01*
G01*
X58325000Y-147850000D01*
G75*
G02*
X58400000Y-147925000I0J-75000D01*
G01*
G37*
G36*
G01*
X58400000Y-148425000D02*
X58400000Y-148575000D01*
G75*
G02*
X58325000Y-148650000I-75000J0D01*
G01*
X57000000Y-148650000D01*
G75*
G02*
X56925000Y-148575000I0J75000D01*
G01*
X56925000Y-148425000D01*
G75*
G02*
X57000000Y-148350000I75000J0D01*
G01*
X58325000Y-148350000D01*
G75*
G02*
X58400000Y-148425000I0J-75000D01*
G01*
G37*
G36*
G01*
X58400000Y-148925000D02*
X58400000Y-149075000D01*
G75*
G02*
X58325000Y-149150000I-75000J0D01*
G01*
X57000000Y-149150000D01*
G75*
G02*
X56925000Y-149075000I0J75000D01*
G01*
X56925000Y-148925000D01*
G75*
G02*
X57000000Y-148850000I75000J0D01*
G01*
X58325000Y-148850000D01*
G75*
G02*
X58400000Y-148925000I0J-75000D01*
G01*
G37*
G36*
G01*
X58400000Y-149425000D02*
X58400000Y-149575000D01*
G75*
G02*
X58325000Y-149650000I-75000J0D01*
G01*
X57000000Y-149650000D01*
G75*
G02*
X56925000Y-149575000I0J75000D01*
G01*
X56925000Y-149425000D01*
G75*
G02*
X57000000Y-149350000I75000J0D01*
G01*
X58325000Y-149350000D01*
G75*
G02*
X58400000Y-149425000I0J-75000D01*
G01*
G37*
G04 #@! TD*
G04 #@! TO.C,R119*
G36*
G01*
X47987500Y-158900000D02*
X47512500Y-158900000D01*
G75*
G02*
X47275000Y-158662500I0J237500D01*
G01*
X47275000Y-158162500D01*
G75*
G02*
X47512500Y-157925000I237500J0D01*
G01*
X47987500Y-157925000D01*
G75*
G02*
X48225000Y-158162500I0J-237500D01*
G01*
X48225000Y-158662500D01*
G75*
G02*
X47987500Y-158900000I-237500J0D01*
G01*
G37*
G36*
G01*
X47987500Y-157075000D02*
X47512500Y-157075000D01*
G75*
G02*
X47275000Y-156837500I0J237500D01*
G01*
X47275000Y-156337500D01*
G75*
G02*
X47512500Y-156100000I237500J0D01*
G01*
X47987500Y-156100000D01*
G75*
G02*
X48225000Y-156337500I0J-237500D01*
G01*
X48225000Y-156837500D01*
G75*
G02*
X47987500Y-157075000I-237500J0D01*
G01*
G37*
G04 #@! TD*
G04 #@! TO.C,C217*
G36*
G01*
X60712020Y-140049520D02*
X61187020Y-140049520D01*
G75*
G02*
X61424520Y-140287020I0J-237500D01*
G01*
X61424520Y-140887020D01*
G75*
G02*
X61187020Y-141124520I-237500J0D01*
G01*
X60712020Y-141124520D01*
G75*
G02*
X60474520Y-140887020I0J237500D01*
G01*
X60474520Y-140287020D01*
G75*
G02*
X60712020Y-140049520I237500J0D01*
G01*
G37*
G36*
G01*
X60712020Y-141774520D02*
X61187020Y-141774520D01*
G75*
G02*
X61424520Y-142012020I0J-237500D01*
G01*
X61424520Y-142612020D01*
G75*
G02*
X61187020Y-142849520I-237500J0D01*
G01*
X60712020Y-142849520D01*
G75*
G02*
X60474520Y-142612020I0J237500D01*
G01*
X60474520Y-142012020D01*
G75*
G02*
X60712020Y-141774520I237500J0D01*
G01*
G37*
G04 #@! TD*
D31*
G04 #@! TO.C,SW301*
X63675000Y-134250000D03*
X59825000Y-134250000D03*
X63675000Y-135750000D03*
X59825000Y-135750000D03*
G04 #@! TD*
D18*
G04 #@! TO.C,TP202*
X105000000Y-156000000D03*
G04 #@! TD*
G04 #@! TO.C,R206*
G36*
G01*
X102100000Y-132487500D02*
X102100000Y-132012500D01*
G75*
G02*
X102337500Y-131775000I237500J0D01*
G01*
X102837500Y-131775000D01*
G75*
G02*
X103075000Y-132012500I0J-237500D01*
G01*
X103075000Y-132487500D01*
G75*
G02*
X102837500Y-132725000I-237500J0D01*
G01*
X102337500Y-132725000D01*
G75*
G02*
X102100000Y-132487500I0J237500D01*
G01*
G37*
G36*
G01*
X103925000Y-132487500D02*
X103925000Y-132012500D01*
G75*
G02*
X104162500Y-131775000I237500J0D01*
G01*
X104662500Y-131775000D01*
G75*
G02*
X104900000Y-132012500I0J-237500D01*
G01*
X104900000Y-132487500D01*
G75*
G02*
X104662500Y-132725000I-237500J0D01*
G01*
X104162500Y-132725000D01*
G75*
G02*
X103925000Y-132487500I0J237500D01*
G01*
G37*
G04 #@! TD*
G04 #@! TO.C,C409*
G36*
G01*
X117600000Y-50237500D02*
X117600000Y-49762500D01*
G75*
G02*
X117837500Y-49525000I237500J0D01*
G01*
X118437500Y-49525000D01*
G75*
G02*
X118675000Y-49762500I0J-237500D01*
G01*
X118675000Y-50237500D01*
G75*
G02*
X118437500Y-50475000I-237500J0D01*
G01*
X117837500Y-50475000D01*
G75*
G02*
X117600000Y-50237500I0J237500D01*
G01*
G37*
G36*
G01*
X119325000Y-50237500D02*
X119325000Y-49762500D01*
G75*
G02*
X119562500Y-49525000I237500J0D01*
G01*
X120162500Y-49525000D01*
G75*
G02*
X120400000Y-49762500I0J-237500D01*
G01*
X120400000Y-50237500D01*
G75*
G02*
X120162500Y-50475000I-237500J0D01*
G01*
X119562500Y-50475000D01*
G75*
G02*
X119325000Y-50237500I0J237500D01*
G01*
G37*
G04 #@! TD*
G04 #@! TO.C,C403*
G36*
G01*
X42400000Y-47762500D02*
X42400000Y-48237500D01*
G75*
G02*
X42162500Y-48475000I-237500J0D01*
G01*
X41562500Y-48475000D01*
G75*
G02*
X41325000Y-48237500I0J237500D01*
G01*
X41325000Y-47762500D01*
G75*
G02*
X41562500Y-47525000I237500J0D01*
G01*
X42162500Y-47525000D01*
G75*
G02*
X42400000Y-47762500I0J-237500D01*
G01*
G37*
G36*
G01*
X40675000Y-47762500D02*
X40675000Y-48237500D01*
G75*
G02*
X40437500Y-48475000I-237500J0D01*
G01*
X39837500Y-48475000D01*
G75*
G02*
X39600000Y-48237500I0J237500D01*
G01*
X39600000Y-47762500D01*
G75*
G02*
X39837500Y-47525000I237500J0D01*
G01*
X40437500Y-47525000D01*
G75*
G02*
X40675000Y-47762500I0J-237500D01*
G01*
G37*
G04 #@! TD*
G04 #@! TO.C,R401*
G36*
G01*
X43600000Y-134737500D02*
X43600000Y-134262500D01*
G75*
G02*
X43837500Y-134025000I237500J0D01*
G01*
X44337500Y-134025000D01*
G75*
G02*
X44575000Y-134262500I0J-237500D01*
G01*
X44575000Y-134737500D01*
G75*
G02*
X44337500Y-134975000I-237500J0D01*
G01*
X43837500Y-134975000D01*
G75*
G02*
X43600000Y-134737500I0J237500D01*
G01*
G37*
G36*
G01*
X45425000Y-134737500D02*
X45425000Y-134262500D01*
G75*
G02*
X45662500Y-134025000I237500J0D01*
G01*
X46162500Y-134025000D01*
G75*
G02*
X46400000Y-134262500I0J-237500D01*
G01*
X46400000Y-134737500D01*
G75*
G02*
X46162500Y-134975000I-237500J0D01*
G01*
X45662500Y-134975000D01*
G75*
G02*
X45425000Y-134737500I0J237500D01*
G01*
G37*
G04 #@! TD*
G04 #@! TO.C,U301*
G36*
G01*
X35050000Y-141995000D02*
X35050000Y-141695000D01*
G75*
G02*
X35200000Y-141545000I150000J0D01*
G01*
X36850000Y-141545000D01*
G75*
G02*
X37000000Y-141695000I0J-150000D01*
G01*
X37000000Y-141995000D01*
G75*
G02*
X36850000Y-142145000I-150000J0D01*
G01*
X35200000Y-142145000D01*
G75*
G02*
X35050000Y-141995000I0J150000D01*
G01*
G37*
G36*
G01*
X35050000Y-143265000D02*
X35050000Y-142965000D01*
G75*
G02*
X35200000Y-142815000I150000J0D01*
G01*
X36850000Y-142815000D01*
G75*
G02*
X37000000Y-142965000I0J-150000D01*
G01*
X37000000Y-143265000D01*
G75*
G02*
X36850000Y-143415000I-150000J0D01*
G01*
X35200000Y-143415000D01*
G75*
G02*
X35050000Y-143265000I0J150000D01*
G01*
G37*
G36*
G01*
X35050000Y-144535000D02*
X35050000Y-144235000D01*
G75*
G02*
X35200000Y-144085000I150000J0D01*
G01*
X36850000Y-144085000D01*
G75*
G02*
X37000000Y-144235000I0J-150000D01*
G01*
X37000000Y-144535000D01*
G75*
G02*
X36850000Y-144685000I-150000J0D01*
G01*
X35200000Y-144685000D01*
G75*
G02*
X35050000Y-144535000I0J150000D01*
G01*
G37*
G36*
G01*
X35050000Y-145805000D02*
X35050000Y-145505000D01*
G75*
G02*
X35200000Y-145355000I150000J0D01*
G01*
X36850000Y-145355000D01*
G75*
G02*
X37000000Y-145505000I0J-150000D01*
G01*
X37000000Y-145805000D01*
G75*
G02*
X36850000Y-145955000I-150000J0D01*
G01*
X35200000Y-145955000D01*
G75*
G02*
X35050000Y-145805000I0J150000D01*
G01*
G37*
G36*
G01*
X40000000Y-145805000D02*
X40000000Y-145505000D01*
G75*
G02*
X40150000Y-145355000I150000J0D01*
G01*
X41800000Y-145355000D01*
G75*
G02*
X41950000Y-145505000I0J-150000D01*
G01*
X41950000Y-145805000D01*
G75*
G02*
X41800000Y-145955000I-150000J0D01*
G01*
X40150000Y-145955000D01*
G75*
G02*
X40000000Y-145805000I0J150000D01*
G01*
G37*
G36*
G01*
X40000000Y-144535000D02*
X40000000Y-144235000D01*
G75*
G02*
X40150000Y-144085000I150000J0D01*
G01*
X41800000Y-144085000D01*
G75*
G02*
X41950000Y-144235000I0J-150000D01*
G01*
X41950000Y-144535000D01*
G75*
G02*
X41800000Y-144685000I-150000J0D01*
G01*
X40150000Y-144685000D01*
G75*
G02*
X40000000Y-144535000I0J150000D01*
G01*
G37*
G36*
G01*
X40000000Y-143265000D02*
X40000000Y-142965000D01*
G75*
G02*
X40150000Y-142815000I150000J0D01*
G01*
X41800000Y-142815000D01*
G75*
G02*
X41950000Y-142965000I0J-150000D01*
G01*
X41950000Y-143265000D01*
G75*
G02*
X41800000Y-143415000I-150000J0D01*
G01*
X40150000Y-143415000D01*
G75*
G02*
X40000000Y-143265000I0J150000D01*
G01*
G37*
G36*
G01*
X40000000Y-141995000D02*
X40000000Y-141695000D01*
G75*
G02*
X40150000Y-141545000I150000J0D01*
G01*
X41800000Y-141545000D01*
G75*
G02*
X41950000Y-141695000I0J-150000D01*
G01*
X41950000Y-141995000D01*
G75*
G02*
X41800000Y-142145000I-150000J0D01*
G01*
X40150000Y-142145000D01*
G75*
G02*
X40000000Y-141995000I0J150000D01*
G01*
G37*
G04 #@! TD*
D22*
G04 #@! TO.C,H105*
X54500000Y-119000000D03*
G04 #@! TD*
G04 #@! TO.C,R204*
G36*
G01*
X42737500Y-130900000D02*
X42262500Y-130900000D01*
G75*
G02*
X42025000Y-130662500I0J237500D01*
G01*
X42025000Y-130162500D01*
G75*
G02*
X42262500Y-129925000I237500J0D01*
G01*
X42737500Y-129925000D01*
G75*
G02*
X42975000Y-130162500I0J-237500D01*
G01*
X42975000Y-130662500D01*
G75*
G02*
X42737500Y-130900000I-237500J0D01*
G01*
G37*
G36*
G01*
X42737500Y-129075000D02*
X42262500Y-129075000D01*
G75*
G02*
X42025000Y-128837500I0J237500D01*
G01*
X42025000Y-128337500D01*
G75*
G02*
X42262500Y-128100000I237500J0D01*
G01*
X42737500Y-128100000D01*
G75*
G02*
X42975000Y-128337500I0J-237500D01*
G01*
X42975000Y-128837500D01*
G75*
G02*
X42737500Y-129075000I-237500J0D01*
G01*
G37*
G04 #@! TD*
G04 #@! TO.C,R305*
G36*
G01*
X44237500Y-168650000D02*
X43762500Y-168650000D01*
G75*
G02*
X43525000Y-168412500I0J237500D01*
G01*
X43525000Y-167912500D01*
G75*
G02*
X43762500Y-167675000I237500J0D01*
G01*
X44237500Y-167675000D01*
G75*
G02*
X44475000Y-167912500I0J-237500D01*
G01*
X44475000Y-168412500D01*
G75*
G02*
X44237500Y-168650000I-237500J0D01*
G01*
G37*
G36*
G01*
X44237500Y-166825000D02*
X43762500Y-166825000D01*
G75*
G02*
X43525000Y-166587500I0J237500D01*
G01*
X43525000Y-166087500D01*
G75*
G02*
X43762500Y-165850000I237500J0D01*
G01*
X44237500Y-165850000D01*
G75*
G02*
X44475000Y-166087500I0J-237500D01*
G01*
X44475000Y-166587500D01*
G75*
G02*
X44237500Y-166825000I-237500J0D01*
G01*
G37*
G04 #@! TD*
G04 #@! TO.C,R310*
G36*
G01*
X43350000Y-143237500D02*
X43350000Y-142762500D01*
G75*
G02*
X43587500Y-142525000I237500J0D01*
G01*
X44087500Y-142525000D01*
G75*
G02*
X44325000Y-142762500I0J-237500D01*
G01*
X44325000Y-143237500D01*
G75*
G02*
X44087500Y-143475000I-237500J0D01*
G01*
X43587500Y-143475000D01*
G75*
G02*
X43350000Y-143237500I0J237500D01*
G01*
G37*
G36*
G01*
X45175000Y-143237500D02*
X45175000Y-142762500D01*
G75*
G02*
X45412500Y-142525000I237500J0D01*
G01*
X45912500Y-142525000D01*
G75*
G02*
X46150000Y-142762500I0J-237500D01*
G01*
X46150000Y-143237500D01*
G75*
G02*
X45912500Y-143475000I-237500J0D01*
G01*
X45412500Y-143475000D01*
G75*
G02*
X45175000Y-143237500I0J237500D01*
G01*
G37*
G04 #@! TD*
G04 #@! TO.C,C406*
G36*
G01*
X42400000Y-121762500D02*
X42400000Y-122237500D01*
G75*
G02*
X42162500Y-122475000I-237500J0D01*
G01*
X41562500Y-122475000D01*
G75*
G02*
X41325000Y-122237500I0J237500D01*
G01*
X41325000Y-121762500D01*
G75*
G02*
X41562500Y-121525000I237500J0D01*
G01*
X42162500Y-121525000D01*
G75*
G02*
X42400000Y-121762500I0J-237500D01*
G01*
G37*
G36*
G01*
X40675000Y-121762500D02*
X40675000Y-122237500D01*
G75*
G02*
X40437500Y-122475000I-237500J0D01*
G01*
X39837500Y-122475000D01*
G75*
G02*
X39600000Y-122237500I0J237500D01*
G01*
X39600000Y-121762500D01*
G75*
G02*
X39837500Y-121525000I237500J0D01*
G01*
X40437500Y-121525000D01*
G75*
G02*
X40675000Y-121762500I0J-237500D01*
G01*
G37*
G04 #@! TD*
D25*
G04 #@! TO.C,H103*
X32000000Y-181000000D03*
G04 #@! TD*
G04 #@! TO.C,C304*
G36*
G01*
X39900000Y-147512500D02*
X39900000Y-147987500D01*
G75*
G02*
X39662500Y-148225000I-237500J0D01*
G01*
X39062500Y-148225000D01*
G75*
G02*
X38825000Y-147987500I0J237500D01*
G01*
X38825000Y-147512500D01*
G75*
G02*
X39062500Y-147275000I237500J0D01*
G01*
X39662500Y-147275000D01*
G75*
G02*
X39900000Y-147512500I0J-237500D01*
G01*
G37*
G36*
G01*
X38175000Y-147512500D02*
X38175000Y-147987500D01*
G75*
G02*
X37937500Y-148225000I-237500J0D01*
G01*
X37337500Y-148225000D01*
G75*
G02*
X37100000Y-147987500I0J237500D01*
G01*
X37100000Y-147512500D01*
G75*
G02*
X37337500Y-147275000I237500J0D01*
G01*
X37937500Y-147275000D01*
G75*
G02*
X38175000Y-147512500I0J-237500D01*
G01*
G37*
G04 #@! TD*
D22*
G04 #@! TO.C,H107*
X54500000Y-63000000D03*
G04 #@! TD*
D16*
G04 #@! TO.C,TH402*
X127000000Y-64000000D03*
D17*
X127000000Y-61460000D03*
G04 #@! TD*
D12*
G04 #@! TO.C,Q407*
X128000000Y-35000000D03*
D13*
X128000000Y-32460000D03*
X128000000Y-29920000D03*
G04 #@! TD*
G04 #@! TO.C,C405*
G36*
G01*
X42400000Y-86762500D02*
X42400000Y-87237500D01*
G75*
G02*
X42162500Y-87475000I-237500J0D01*
G01*
X41562500Y-87475000D01*
G75*
G02*
X41325000Y-87237500I0J237500D01*
G01*
X41325000Y-86762500D01*
G75*
G02*
X41562500Y-86525000I237500J0D01*
G01*
X42162500Y-86525000D01*
G75*
G02*
X42400000Y-86762500I0J-237500D01*
G01*
G37*
G36*
G01*
X40675000Y-86762500D02*
X40675000Y-87237500D01*
G75*
G02*
X40437500Y-87475000I-237500J0D01*
G01*
X39837500Y-87475000D01*
G75*
G02*
X39600000Y-87237500I0J237500D01*
G01*
X39600000Y-86762500D01*
G75*
G02*
X39837500Y-86525000I237500J0D01*
G01*
X40437500Y-86525000D01*
G75*
G02*
X40675000Y-86762500I0J-237500D01*
G01*
G37*
G04 #@! TD*
D29*
G04 #@! TO.C,D201*
X100000000Y-136700000D03*
X100000000Y-132300000D03*
G04 #@! TD*
G04 #@! TO.C,U202*
G36*
G01*
X94742500Y-144475000D02*
X95067500Y-144475000D01*
G75*
G02*
X95230000Y-144637500I0J-162500D01*
G01*
X95230000Y-146287500D01*
G75*
G02*
X95067500Y-146450000I-162500J0D01*
G01*
X94742500Y-146450000D01*
G75*
G02*
X94580000Y-146287500I0J162500D01*
G01*
X94580000Y-144637500D01*
G75*
G02*
X94742500Y-144475000I162500J0D01*
G01*
G37*
G36*
G01*
X93472500Y-144475000D02*
X93797500Y-144475000D01*
G75*
G02*
X93960000Y-144637500I0J-162500D01*
G01*
X93960000Y-146287500D01*
G75*
G02*
X93797500Y-146450000I-162500J0D01*
G01*
X93472500Y-146450000D01*
G75*
G02*
X93310000Y-146287500I0J162500D01*
G01*
X93310000Y-144637500D01*
G75*
G02*
X93472500Y-144475000I162500J0D01*
G01*
G37*
G36*
G01*
X92202500Y-144475000D02*
X92527500Y-144475000D01*
G75*
G02*
X92690000Y-144637500I0J-162500D01*
G01*
X92690000Y-146287500D01*
G75*
G02*
X92527500Y-146450000I-162500J0D01*
G01*
X92202500Y-146450000D01*
G75*
G02*
X92040000Y-146287500I0J162500D01*
G01*
X92040000Y-144637500D01*
G75*
G02*
X92202500Y-144475000I162500J0D01*
G01*
G37*
G36*
G01*
X90932500Y-144475000D02*
X91257500Y-144475000D01*
G75*
G02*
X91420000Y-144637500I0J-162500D01*
G01*
X91420000Y-146287500D01*
G75*
G02*
X91257500Y-146450000I-162500J0D01*
G01*
X90932500Y-146450000D01*
G75*
G02*
X90770000Y-146287500I0J162500D01*
G01*
X90770000Y-144637500D01*
G75*
G02*
X90932500Y-144475000I162500J0D01*
G01*
G37*
G36*
G01*
X90932500Y-149550000D02*
X91257500Y-149550000D01*
G75*
G02*
X91420000Y-149712500I0J-162500D01*
G01*
X91420000Y-151362500D01*
G75*
G02*
X91257500Y-151525000I-162500J0D01*
G01*
X90932500Y-151525000D01*
G75*
G02*
X90770000Y-151362500I0J162500D01*
G01*
X90770000Y-149712500D01*
G75*
G02*
X90932500Y-149550000I162500J0D01*
G01*
G37*
G36*
G01*
X92202500Y-149550000D02*
X92527500Y-149550000D01*
G75*
G02*
X92690000Y-149712500I0J-162500D01*
G01*
X92690000Y-151362500D01*
G75*
G02*
X92527500Y-151525000I-162500J0D01*
G01*
X92202500Y-151525000D01*
G75*
G02*
X92040000Y-151362500I0J162500D01*
G01*
X92040000Y-149712500D01*
G75*
G02*
X92202500Y-149550000I162500J0D01*
G01*
G37*
G36*
G01*
X93472500Y-149550000D02*
X93797500Y-149550000D01*
G75*
G02*
X93960000Y-149712500I0J-162500D01*
G01*
X93960000Y-151362500D01*
G75*
G02*
X93797500Y-151525000I-162500J0D01*
G01*
X93472500Y-151525000D01*
G75*
G02*
X93310000Y-151362500I0J162500D01*
G01*
X93310000Y-149712500D01*
G75*
G02*
X93472500Y-149550000I162500J0D01*
G01*
G37*
G36*
G01*
X94742500Y-149550000D02*
X95067500Y-149550000D01*
G75*
G02*
X95230000Y-149712500I0J-162500D01*
G01*
X95230000Y-151362500D01*
G75*
G02*
X95067500Y-151525000I-162500J0D01*
G01*
X94742500Y-151525000D01*
G75*
G02*
X94580000Y-151362500I0J162500D01*
G01*
X94580000Y-149712500D01*
G75*
G02*
X94742500Y-149550000I162500J0D01*
G01*
G37*
G04 #@! TD*
G04 #@! TO.C,C301*
G36*
G01*
X58600000Y-137987500D02*
X58600000Y-137512500D01*
G75*
G02*
X58837500Y-137275000I237500J0D01*
G01*
X59437500Y-137275000D01*
G75*
G02*
X59675000Y-137512500I0J-237500D01*
G01*
X59675000Y-137987500D01*
G75*
G02*
X59437500Y-138225000I-237500J0D01*
G01*
X58837500Y-138225000D01*
G75*
G02*
X58600000Y-137987500I0J237500D01*
G01*
G37*
G36*
G01*
X60325000Y-137987500D02*
X60325000Y-137512500D01*
G75*
G02*
X60562500Y-137275000I237500J0D01*
G01*
X61162500Y-137275000D01*
G75*
G02*
X61400000Y-137512500I0J-237500D01*
G01*
X61400000Y-137987500D01*
G75*
G02*
X61162500Y-138225000I-237500J0D01*
G01*
X60562500Y-138225000D01*
G75*
G02*
X60325000Y-137987500I0J237500D01*
G01*
G37*
G04 #@! TD*
D12*
G04 #@! TO.C,Q411*
X128000000Y-107000000D03*
D13*
X128000000Y-104460000D03*
X128000000Y-101920000D03*
G04 #@! TD*
G04 #@! TO.C,J110*
G36*
G01*
X54450000Y-181350000D02*
X53000000Y-181350000D01*
G75*
G02*
X52750000Y-181100000I0J250000D01*
G01*
X52750000Y-179900000D01*
G75*
G02*
X53000000Y-179650000I250000J0D01*
G01*
X54450000Y-179650000D01*
G75*
G02*
X54700000Y-179900000I0J-250000D01*
G01*
X54700000Y-181100000D01*
G75*
G02*
X54450000Y-181350000I-250000J0D01*
G01*
G37*
D21*
X53725000Y-178000000D03*
X53725000Y-175500000D03*
G04 #@! TD*
G04 #@! TO.C,U404*
G36*
G01*
X115550000Y-42245000D02*
X115550000Y-41945000D01*
G75*
G02*
X115700000Y-41795000I150000J0D01*
G01*
X117350000Y-41795000D01*
G75*
G02*
X117500000Y-41945000I0J-150000D01*
G01*
X117500000Y-42245000D01*
G75*
G02*
X117350000Y-42395000I-150000J0D01*
G01*
X115700000Y-42395000D01*
G75*
G02*
X115550000Y-42245000I0J150000D01*
G01*
G37*
G36*
G01*
X115550000Y-43515000D02*
X115550000Y-43215000D01*
G75*
G02*
X115700000Y-43065000I150000J0D01*
G01*
X117350000Y-43065000D01*
G75*
G02*
X117500000Y-43215000I0J-150000D01*
G01*
X117500000Y-43515000D01*
G75*
G02*
X117350000Y-43665000I-150000J0D01*
G01*
X115700000Y-43665000D01*
G75*
G02*
X115550000Y-43515000I0J150000D01*
G01*
G37*
G36*
G01*
X115550000Y-44785000D02*
X115550000Y-44485000D01*
G75*
G02*
X115700000Y-44335000I150000J0D01*
G01*
X117350000Y-44335000D01*
G75*
G02*
X117500000Y-44485000I0J-150000D01*
G01*
X117500000Y-44785000D01*
G75*
G02*
X117350000Y-44935000I-150000J0D01*
G01*
X115700000Y-44935000D01*
G75*
G02*
X115550000Y-44785000I0J150000D01*
G01*
G37*
G36*
G01*
X115550000Y-46055000D02*
X115550000Y-45755000D01*
G75*
G02*
X115700000Y-45605000I150000J0D01*
G01*
X117350000Y-45605000D01*
G75*
G02*
X117500000Y-45755000I0J-150000D01*
G01*
X117500000Y-46055000D01*
G75*
G02*
X117350000Y-46205000I-150000J0D01*
G01*
X115700000Y-46205000D01*
G75*
G02*
X115550000Y-46055000I0J150000D01*
G01*
G37*
G36*
G01*
X120500000Y-46055000D02*
X120500000Y-45755000D01*
G75*
G02*
X120650000Y-45605000I150000J0D01*
G01*
X122300000Y-45605000D01*
G75*
G02*
X122450000Y-45755000I0J-150000D01*
G01*
X122450000Y-46055000D01*
G75*
G02*
X122300000Y-46205000I-150000J0D01*
G01*
X120650000Y-46205000D01*
G75*
G02*
X120500000Y-46055000I0J150000D01*
G01*
G37*
G36*
G01*
X120500000Y-44785000D02*
X120500000Y-44485000D01*
G75*
G02*
X120650000Y-44335000I150000J0D01*
G01*
X122300000Y-44335000D01*
G75*
G02*
X122450000Y-44485000I0J-150000D01*
G01*
X122450000Y-44785000D01*
G75*
G02*
X122300000Y-44935000I-150000J0D01*
G01*
X120650000Y-44935000D01*
G75*
G02*
X120500000Y-44785000I0J150000D01*
G01*
G37*
G36*
G01*
X120500000Y-43515000D02*
X120500000Y-43215000D01*
G75*
G02*
X120650000Y-43065000I150000J0D01*
G01*
X122300000Y-43065000D01*
G75*
G02*
X122450000Y-43215000I0J-150000D01*
G01*
X122450000Y-43515000D01*
G75*
G02*
X122300000Y-43665000I-150000J0D01*
G01*
X120650000Y-43665000D01*
G75*
G02*
X120500000Y-43515000I0J150000D01*
G01*
G37*
G36*
G01*
X120500000Y-42245000D02*
X120500000Y-41945000D01*
G75*
G02*
X120650000Y-41795000I150000J0D01*
G01*
X122300000Y-41795000D01*
G75*
G02*
X122450000Y-41945000I0J-150000D01*
G01*
X122450000Y-42245000D01*
G75*
G02*
X122300000Y-42395000I-150000J0D01*
G01*
X120650000Y-42395000D01*
G75*
G02*
X120500000Y-42245000I0J150000D01*
G01*
G37*
G04 #@! TD*
G04 #@! TO.C,R309*
G36*
G01*
X33100000Y-147987500D02*
X33100000Y-147512500D01*
G75*
G02*
X33337500Y-147275000I237500J0D01*
G01*
X33837500Y-147275000D01*
G75*
G02*
X34075000Y-147512500I0J-237500D01*
G01*
X34075000Y-147987500D01*
G75*
G02*
X33837500Y-148225000I-237500J0D01*
G01*
X33337500Y-148225000D01*
G75*
G02*
X33100000Y-147987500I0J237500D01*
G01*
G37*
G36*
G01*
X34925000Y-147987500D02*
X34925000Y-147512500D01*
G75*
G02*
X35162500Y-147275000I237500J0D01*
G01*
X35662500Y-147275000D01*
G75*
G02*
X35900000Y-147512500I0J-237500D01*
G01*
X35900000Y-147987500D01*
G75*
G02*
X35662500Y-148225000I-237500J0D01*
G01*
X35162500Y-148225000D01*
G75*
G02*
X34925000Y-147987500I0J237500D01*
G01*
G37*
G04 #@! TD*
G04 #@! TO.C,C224*
G36*
G01*
X59762500Y-150850000D02*
X60237500Y-150850000D01*
G75*
G02*
X60475000Y-151087500I0J-237500D01*
G01*
X60475000Y-151687500D01*
G75*
G02*
X60237500Y-151925000I-237500J0D01*
G01*
X59762500Y-151925000D01*
G75*
G02*
X59525000Y-151687500I0J237500D01*
G01*
X59525000Y-151087500D01*
G75*
G02*
X59762500Y-150850000I237500J0D01*
G01*
G37*
G36*
G01*
X59762500Y-152575000D02*
X60237500Y-152575000D01*
G75*
G02*
X60475000Y-152812500I0J-237500D01*
G01*
X60475000Y-153412500D01*
G75*
G02*
X60237500Y-153650000I-237500J0D01*
G01*
X59762500Y-153650000D01*
G75*
G02*
X59525000Y-153412500I0J237500D01*
G01*
X59525000Y-152812500D01*
G75*
G02*
X59762500Y-152575000I237500J0D01*
G01*
G37*
G04 #@! TD*
G04 #@! TO.C,C204*
G36*
G01*
X96762500Y-144600000D02*
X97237500Y-144600000D01*
G75*
G02*
X97475000Y-144837500I0J-237500D01*
G01*
X97475000Y-145437500D01*
G75*
G02*
X97237500Y-145675000I-237500J0D01*
G01*
X96762500Y-145675000D01*
G75*
G02*
X96525000Y-145437500I0J237500D01*
G01*
X96525000Y-144837500D01*
G75*
G02*
X96762500Y-144600000I237500J0D01*
G01*
G37*
G36*
G01*
X96762500Y-146325000D02*
X97237500Y-146325000D01*
G75*
G02*
X97475000Y-146562500I0J-237500D01*
G01*
X97475000Y-147162500D01*
G75*
G02*
X97237500Y-147400000I-237500J0D01*
G01*
X96762500Y-147400000D01*
G75*
G02*
X96525000Y-147162500I0J237500D01*
G01*
X96525000Y-146562500D01*
G75*
G02*
X96762500Y-146325000I237500J0D01*
G01*
G37*
G04 #@! TD*
D12*
G04 #@! TO.C,Q404*
X32000000Y-91000000D03*
D13*
X32000000Y-93540000D03*
X32000000Y-96080000D03*
G04 #@! TD*
G04 #@! TO.C,J105*
G36*
G01*
X84700000Y-181350000D02*
X83250000Y-181350000D01*
G75*
G02*
X83000000Y-181100000I0J250000D01*
G01*
X83000000Y-179900000D01*
G75*
G02*
X83250000Y-179650000I250000J0D01*
G01*
X84700000Y-179650000D01*
G75*
G02*
X84950000Y-179900000I0J-250000D01*
G01*
X84950000Y-181100000D01*
G75*
G02*
X84700000Y-181350000I-250000J0D01*
G01*
G37*
D21*
X83975000Y-178000000D03*
X83975000Y-175500000D03*
G04 #@! TD*
G04 #@! TO.C,D101*
G36*
G01*
X31950000Y-175237500D02*
X31050000Y-175237500D01*
G75*
G02*
X30800000Y-174987500I0J250000D01*
G01*
X30800000Y-174337500D01*
G75*
G02*
X31050000Y-174087500I250000J0D01*
G01*
X31950000Y-174087500D01*
G75*
G02*
X32200000Y-174337500I0J-250000D01*
G01*
X32200000Y-174987500D01*
G75*
G02*
X31950000Y-175237500I-250000J0D01*
G01*
G37*
G36*
G01*
X31950000Y-173187500D02*
X31050000Y-173187500D01*
G75*
G02*
X30800000Y-172937500I0J250000D01*
G01*
X30800000Y-172287500D01*
G75*
G02*
X31050000Y-172037500I250000J0D01*
G01*
X31950000Y-172037500D01*
G75*
G02*
X32200000Y-172287500I0J-250000D01*
G01*
X32200000Y-172937500D01*
G75*
G02*
X31950000Y-173187500I-250000J0D01*
G01*
G37*
G04 #@! TD*
G04 #@! TO.C,R414*
G36*
G01*
X123237500Y-96400000D02*
X122762500Y-96400000D01*
G75*
G02*
X122525000Y-96162500I0J237500D01*
G01*
X122525000Y-95662500D01*
G75*
G02*
X122762500Y-95425000I237500J0D01*
G01*
X123237500Y-95425000D01*
G75*
G02*
X123475000Y-95662500I0J-237500D01*
G01*
X123475000Y-96162500D01*
G75*
G02*
X123237500Y-96400000I-237500J0D01*
G01*
G37*
G36*
G01*
X123237500Y-94575000D02*
X122762500Y-94575000D01*
G75*
G02*
X122525000Y-94337500I0J237500D01*
G01*
X122525000Y-93837500D01*
G75*
G02*
X122762500Y-93600000I237500J0D01*
G01*
X123237500Y-93600000D01*
G75*
G02*
X123475000Y-93837500I0J-237500D01*
G01*
X123475000Y-94337500D01*
G75*
G02*
X123237500Y-94575000I-237500J0D01*
G01*
G37*
G04 #@! TD*
G04 #@! TO.C,R507*
G36*
G01*
X116100000Y-167737500D02*
X116100000Y-167262500D01*
G75*
G02*
X116337500Y-167025000I237500J0D01*
G01*
X116837500Y-167025000D01*
G75*
G02*
X117075000Y-167262500I0J-237500D01*
G01*
X117075000Y-167737500D01*
G75*
G02*
X116837500Y-167975000I-237500J0D01*
G01*
X116337500Y-167975000D01*
G75*
G02*
X116100000Y-167737500I0J237500D01*
G01*
G37*
G36*
G01*
X117925000Y-167737500D02*
X117925000Y-167262500D01*
G75*
G02*
X118162500Y-167025000I237500J0D01*
G01*
X118662500Y-167025000D01*
G75*
G02*
X118900000Y-167262500I0J-237500D01*
G01*
X118900000Y-167737500D01*
G75*
G02*
X118662500Y-167975000I-237500J0D01*
G01*
X118162500Y-167975000D01*
G75*
G02*
X117925000Y-167737500I0J237500D01*
G01*
G37*
G04 #@! TD*
G04 #@! TO.C,C407*
G36*
G01*
X42400000Y-119762500D02*
X42400000Y-120237500D01*
G75*
G02*
X42162500Y-120475000I-237500J0D01*
G01*
X41562500Y-120475000D01*
G75*
G02*
X41325000Y-120237500I0J237500D01*
G01*
X41325000Y-119762500D01*
G75*
G02*
X41562500Y-119525000I237500J0D01*
G01*
X42162500Y-119525000D01*
G75*
G02*
X42400000Y-119762500I0J-237500D01*
G01*
G37*
G36*
G01*
X40675000Y-119762500D02*
X40675000Y-120237500D01*
G75*
G02*
X40437500Y-120475000I-237500J0D01*
G01*
X39837500Y-120475000D01*
G75*
G02*
X39600000Y-120237500I0J237500D01*
G01*
X39600000Y-119762500D01*
G75*
G02*
X39837500Y-119525000I237500J0D01*
G01*
X40437500Y-119525000D01*
G75*
G02*
X40675000Y-119762500I0J-237500D01*
G01*
G37*
G04 #@! TD*
G04 #@! TO.C,C202*
G36*
G01*
X96900000Y-135500000D02*
X96900000Y-137500000D01*
G75*
G02*
X96650000Y-137750000I-250000J0D01*
G01*
X92750000Y-137750000D01*
G75*
G02*
X92500000Y-137500000I0J250000D01*
G01*
X92500000Y-135500000D01*
G75*
G02*
X92750000Y-135250000I250000J0D01*
G01*
X96650000Y-135250000D01*
G75*
G02*
X96900000Y-135500000I0J-250000D01*
G01*
G37*
G36*
G01*
X89500000Y-135500000D02*
X89500000Y-137500000D01*
G75*
G02*
X89250000Y-137750000I-250000J0D01*
G01*
X85350000Y-137750000D01*
G75*
G02*
X85100000Y-137500000I0J250000D01*
G01*
X85100000Y-135500000D01*
G75*
G02*
X85350000Y-135250000I250000J0D01*
G01*
X89250000Y-135250000D01*
G75*
G02*
X89500000Y-135500000I0J-250000D01*
G01*
G37*
G04 #@! TD*
D12*
G04 #@! TO.C,D403*
X32000000Y-113000000D03*
D13*
X32000000Y-115540000D03*
X32000000Y-118080000D03*
G04 #@! TD*
G04 #@! TO.C,R113*
G36*
G01*
X40262500Y-158850000D02*
X40737500Y-158850000D01*
G75*
G02*
X40975000Y-159087500I0J-237500D01*
G01*
X40975000Y-159587500D01*
G75*
G02*
X40737500Y-159825000I-237500J0D01*
G01*
X40262500Y-159825000D01*
G75*
G02*
X40025000Y-159587500I0J237500D01*
G01*
X40025000Y-159087500D01*
G75*
G02*
X40262500Y-158850000I237500J0D01*
G01*
G37*
G36*
G01*
X40262500Y-160675000D02*
X40737500Y-160675000D01*
G75*
G02*
X40975000Y-160912500I0J-237500D01*
G01*
X40975000Y-161412500D01*
G75*
G02*
X40737500Y-161650000I-237500J0D01*
G01*
X40262500Y-161650000D01*
G75*
G02*
X40025000Y-161412500I0J237500D01*
G01*
X40025000Y-160912500D01*
G75*
G02*
X40262500Y-160675000I237500J0D01*
G01*
G37*
G04 #@! TD*
D12*
G04 #@! TO.C,D404*
X128000000Y-46000000D03*
D13*
X128000000Y-43460000D03*
X128000000Y-40920000D03*
G04 #@! TD*
G04 #@! TO.C,R308*
G36*
G01*
X39900000Y-139512500D02*
X39900000Y-139987500D01*
G75*
G02*
X39662500Y-140225000I-237500J0D01*
G01*
X39162500Y-140225000D01*
G75*
G02*
X38925000Y-139987500I0J237500D01*
G01*
X38925000Y-139512500D01*
G75*
G02*
X39162500Y-139275000I237500J0D01*
G01*
X39662500Y-139275000D01*
G75*
G02*
X39900000Y-139512500I0J-237500D01*
G01*
G37*
G36*
G01*
X38075000Y-139512500D02*
X38075000Y-139987500D01*
G75*
G02*
X37837500Y-140225000I-237500J0D01*
G01*
X37337500Y-140225000D01*
G75*
G02*
X37100000Y-139987500I0J237500D01*
G01*
X37100000Y-139512500D01*
G75*
G02*
X37337500Y-139275000I237500J0D01*
G01*
X37837500Y-139275000D01*
G75*
G02*
X38075000Y-139512500I0J-237500D01*
G01*
G37*
G04 #@! TD*
G04 #@! TO.C,C216*
G36*
G01*
X123400000Y-141762500D02*
X123400000Y-142237500D01*
G75*
G02*
X123162500Y-142475000I-237500J0D01*
G01*
X122562500Y-142475000D01*
G75*
G02*
X122325000Y-142237500I0J237500D01*
G01*
X122325000Y-141762500D01*
G75*
G02*
X122562500Y-141525000I237500J0D01*
G01*
X123162500Y-141525000D01*
G75*
G02*
X123400000Y-141762500I0J-237500D01*
G01*
G37*
G36*
G01*
X121675000Y-141762500D02*
X121675000Y-142237500D01*
G75*
G02*
X121437500Y-142475000I-237500J0D01*
G01*
X120837500Y-142475000D01*
G75*
G02*
X120600000Y-142237500I0J237500D01*
G01*
X120600000Y-141762500D01*
G75*
G02*
X120837500Y-141525000I237500J0D01*
G01*
X121437500Y-141525000D01*
G75*
G02*
X121675000Y-141762500I0J-237500D01*
G01*
G37*
G04 #@! TD*
D32*
G04 #@! TO.C,L201*
X116650000Y-146500000D03*
X106350000Y-146500000D03*
G04 #@! TD*
D14*
G04 #@! TO.C,D501*
X104000000Y-181000000D03*
X104000000Y-176000000D03*
G04 #@! TD*
G04 #@! TO.C,R122*
G36*
G01*
X51487500Y-158900000D02*
X51012500Y-158900000D01*
G75*
G02*
X50775000Y-158662500I0J237500D01*
G01*
X50775000Y-158162500D01*
G75*
G02*
X51012500Y-157925000I237500J0D01*
G01*
X51487500Y-157925000D01*
G75*
G02*
X51725000Y-158162500I0J-237500D01*
G01*
X51725000Y-158662500D01*
G75*
G02*
X51487500Y-158900000I-237500J0D01*
G01*
G37*
G36*
G01*
X51487500Y-157075000D02*
X51012500Y-157075000D01*
G75*
G02*
X50775000Y-156837500I0J237500D01*
G01*
X50775000Y-156337500D01*
G75*
G02*
X51012500Y-156100000I237500J0D01*
G01*
X51487500Y-156100000D01*
G75*
G02*
X51725000Y-156337500I0J-237500D01*
G01*
X51725000Y-156837500D01*
G75*
G02*
X51487500Y-157075000I-237500J0D01*
G01*
G37*
G04 #@! TD*
D18*
G04 #@! TO.C,TP204*
X101000000Y-156000000D03*
G04 #@! TD*
G04 #@! TO.C,Q501*
G36*
G01*
X99255000Y-168550000D02*
X99555000Y-168550000D01*
G75*
G02*
X99705000Y-168700000I0J-150000D01*
G01*
X99705000Y-170050000D01*
G75*
G02*
X99555000Y-170200000I-150000J0D01*
G01*
X99255000Y-170200000D01*
G75*
G02*
X99105000Y-170050000I0J150000D01*
G01*
X99105000Y-168700000D01*
G75*
G02*
X99255000Y-168550000I150000J0D01*
G01*
G37*
G36*
G01*
X97985000Y-168550000D02*
X98285000Y-168550000D01*
G75*
G02*
X98435000Y-168700000I0J-150000D01*
G01*
X98435000Y-170050000D01*
G75*
G02*
X98285000Y-170200000I-150000J0D01*
G01*
X97985000Y-170200000D01*
G75*
G02*
X97835000Y-170050000I0J150000D01*
G01*
X97835000Y-168700000D01*
G75*
G02*
X97985000Y-168550000I150000J0D01*
G01*
G37*
G36*
G01*
X96715000Y-168550000D02*
X97015000Y-168550000D01*
G75*
G02*
X97165000Y-168700000I0J-150000D01*
G01*
X97165000Y-170050000D01*
G75*
G02*
X97015000Y-170200000I-150000J0D01*
G01*
X96715000Y-170200000D01*
G75*
G02*
X96565000Y-170050000I0J150000D01*
G01*
X96565000Y-168700000D01*
G75*
G02*
X96715000Y-168550000I150000J0D01*
G01*
G37*
G36*
G01*
X95445000Y-168550000D02*
X95745000Y-168550000D01*
G75*
G02*
X95895000Y-168700000I0J-150000D01*
G01*
X95895000Y-170050000D01*
G75*
G02*
X95745000Y-170200000I-150000J0D01*
G01*
X95445000Y-170200000D01*
G75*
G02*
X95295000Y-170050000I0J150000D01*
G01*
X95295000Y-168700000D01*
G75*
G02*
X95445000Y-168550000I150000J0D01*
G01*
G37*
G36*
G01*
X95445000Y-173800000D02*
X95745000Y-173800000D01*
G75*
G02*
X95895000Y-173950000I0J-150000D01*
G01*
X95895000Y-175300000D01*
G75*
G02*
X95745000Y-175450000I-150000J0D01*
G01*
X95445000Y-175450000D01*
G75*
G02*
X95295000Y-175300000I0J150000D01*
G01*
X95295000Y-173950000D01*
G75*
G02*
X95445000Y-173800000I150000J0D01*
G01*
G37*
G36*
G01*
X96715000Y-173800000D02*
X97015000Y-173800000D01*
G75*
G02*
X97165000Y-173950000I0J-150000D01*
G01*
X97165000Y-175300000D01*
G75*
G02*
X97015000Y-175450000I-150000J0D01*
G01*
X96715000Y-175450000D01*
G75*
G02*
X96565000Y-175300000I0J150000D01*
G01*
X96565000Y-173950000D01*
G75*
G02*
X96715000Y-173800000I150000J0D01*
G01*
G37*
G36*
G01*
X97985000Y-173800000D02*
X98285000Y-173800000D01*
G75*
G02*
X98435000Y-173950000I0J-150000D01*
G01*
X98435000Y-175300000D01*
G75*
G02*
X98285000Y-175450000I-150000J0D01*
G01*
X97985000Y-175450000D01*
G75*
G02*
X97835000Y-175300000I0J150000D01*
G01*
X97835000Y-173950000D01*
G75*
G02*
X97985000Y-173800000I150000J0D01*
G01*
G37*
G36*
G01*
X99255000Y-173800000D02*
X99555000Y-173800000D01*
G75*
G02*
X99705000Y-173950000I0J-150000D01*
G01*
X99705000Y-175300000D01*
G75*
G02*
X99555000Y-175450000I-150000J0D01*
G01*
X99255000Y-175450000D01*
G75*
G02*
X99105000Y-175300000I0J150000D01*
G01*
X99105000Y-173950000D01*
G75*
G02*
X99255000Y-173800000I150000J0D01*
G01*
G37*
G04 #@! TD*
D12*
G04 #@! TO.C,Q410*
X128000000Y-96000000D03*
D13*
X128000000Y-93460000D03*
X128000000Y-90920000D03*
G04 #@! TD*
D33*
G04 #@! TO.C,C201*
X114000000Y-158000000D03*
D16*
X110500000Y-158000000D03*
G04 #@! TD*
G04 #@! TO.C,J201*
G36*
G01*
X123150000Y-153750000D02*
X123150000Y-152250000D01*
G75*
G02*
X123400000Y-152000000I250000J0D01*
G01*
X124600000Y-152000000D01*
G75*
G02*
X124850000Y-152250000I0J-250000D01*
G01*
X124850000Y-153750000D01*
G75*
G02*
X124600000Y-154000000I-250000J0D01*
G01*
X123400000Y-154000000D01*
G75*
G02*
X123150000Y-153750000I0J250000D01*
G01*
G37*
D30*
X126500000Y-153000000D03*
G04 #@! TD*
D34*
G04 #@! TO.C,D105*
X39900000Y-170980000D03*
D35*
X39900000Y-172700000D03*
X42100000Y-172700000D03*
X42100000Y-170800000D03*
G04 #@! TD*
G04 #@! TO.C,C215*
G36*
G01*
X75450000Y-152550000D02*
X75450000Y-151450000D01*
G75*
G02*
X75700000Y-151200000I250000J0D01*
G01*
X78700000Y-151200000D01*
G75*
G02*
X78950000Y-151450000I0J-250000D01*
G01*
X78950000Y-152550000D01*
G75*
G02*
X78700000Y-152800000I-250000J0D01*
G01*
X75700000Y-152800000D01*
G75*
G02*
X75450000Y-152550000I0J250000D01*
G01*
G37*
G36*
G01*
X81050000Y-152550000D02*
X81050000Y-151450000D01*
G75*
G02*
X81300000Y-151200000I250000J0D01*
G01*
X84300000Y-151200000D01*
G75*
G02*
X84550000Y-151450000I0J-250000D01*
G01*
X84550000Y-152550000D01*
G75*
G02*
X84300000Y-152800000I-250000J0D01*
G01*
X81300000Y-152800000D01*
G75*
G02*
X81050000Y-152550000I0J250000D01*
G01*
G37*
G04 #@! TD*
G04 #@! TO.C,R406*
G36*
G01*
X37237500Y-92400000D02*
X36762500Y-92400000D01*
G75*
G02*
X36525000Y-92162500I0J237500D01*
G01*
X36525000Y-91662500D01*
G75*
G02*
X36762500Y-91425000I237500J0D01*
G01*
X37237500Y-91425000D01*
G75*
G02*
X37475000Y-91662500I0J-237500D01*
G01*
X37475000Y-92162500D01*
G75*
G02*
X37237500Y-92400000I-237500J0D01*
G01*
G37*
G36*
G01*
X37237500Y-90575000D02*
X36762500Y-90575000D01*
G75*
G02*
X36525000Y-90337500I0J237500D01*
G01*
X36525000Y-89837500D01*
G75*
G02*
X36762500Y-89600000I237500J0D01*
G01*
X37237500Y-89600000D01*
G75*
G02*
X37475000Y-89837500I0J-237500D01*
G01*
X37475000Y-90337500D01*
G75*
G02*
X37237500Y-90575000I-237500J0D01*
G01*
G37*
G04 #@! TD*
G04 #@! TO.C,C302*
G36*
G01*
X68212020Y-140850000D02*
X68687020Y-140850000D01*
G75*
G02*
X68924520Y-141087500I0J-237500D01*
G01*
X68924520Y-141687500D01*
G75*
G02*
X68687020Y-141925000I-237500J0D01*
G01*
X68212020Y-141925000D01*
G75*
G02*
X67974520Y-141687500I0J237500D01*
G01*
X67974520Y-141087500D01*
G75*
G02*
X68212020Y-140850000I237500J0D01*
G01*
G37*
G36*
G01*
X68212020Y-142575000D02*
X68687020Y-142575000D01*
G75*
G02*
X68924520Y-142812500I0J-237500D01*
G01*
X68924520Y-143412500D01*
G75*
G02*
X68687020Y-143650000I-237500J0D01*
G01*
X68212020Y-143650000D01*
G75*
G02*
X67974520Y-143412500I0J237500D01*
G01*
X67974520Y-142812500D01*
G75*
G02*
X68212020Y-142575000I237500J0D01*
G01*
G37*
G04 #@! TD*
D12*
G04 #@! TO.C,Q401*
X32000000Y-30000000D03*
D13*
X32000000Y-32540000D03*
X32000000Y-35080000D03*
G04 #@! TD*
D36*
G04 #@! TO.C,Y301*
X65699520Y-142150000D03*
X65699520Y-147350000D03*
G04 #@! TD*
G04 #@! TO.C,C410*
G36*
G01*
X117600000Y-48237500D02*
X117600000Y-47762500D01*
G75*
G02*
X117837500Y-47525000I237500J0D01*
G01*
X118437500Y-47525000D01*
G75*
G02*
X118675000Y-47762500I0J-237500D01*
G01*
X118675000Y-48237500D01*
G75*
G02*
X118437500Y-48475000I-237500J0D01*
G01*
X117837500Y-48475000D01*
G75*
G02*
X117600000Y-48237500I0J237500D01*
G01*
G37*
G36*
G01*
X119325000Y-48237500D02*
X119325000Y-47762500D01*
G75*
G02*
X119562500Y-47525000I237500J0D01*
G01*
X120162500Y-47525000D01*
G75*
G02*
X120400000Y-47762500I0J-237500D01*
G01*
X120400000Y-48237500D01*
G75*
G02*
X120162500Y-48475000I-237500J0D01*
G01*
X119562500Y-48475000D01*
G75*
G02*
X119325000Y-48237500I0J237500D01*
G01*
G37*
G04 #@! TD*
G04 #@! TO.C,R101*
G36*
G01*
X46237500Y-172900000D02*
X45762500Y-172900000D01*
G75*
G02*
X45525000Y-172662500I0J237500D01*
G01*
X45525000Y-172162500D01*
G75*
G02*
X45762500Y-171925000I237500J0D01*
G01*
X46237500Y-171925000D01*
G75*
G02*
X46475000Y-172162500I0J-237500D01*
G01*
X46475000Y-172662500D01*
G75*
G02*
X46237500Y-172900000I-237500J0D01*
G01*
G37*
G36*
G01*
X46237500Y-171075000D02*
X45762500Y-171075000D01*
G75*
G02*
X45525000Y-170837500I0J237500D01*
G01*
X45525000Y-170337500D01*
G75*
G02*
X45762500Y-170100000I237500J0D01*
G01*
X46237500Y-170100000D01*
G75*
G02*
X46475000Y-170337500I0J-237500D01*
G01*
X46475000Y-170837500D01*
G75*
G02*
X46237500Y-171075000I-237500J0D01*
G01*
G37*
G04 #@! TD*
D25*
G04 #@! TO.C,H101*
X43500000Y-29000000D03*
G04 #@! TD*
D37*
G04 #@! TO.C,J101*
X45820000Y-177370000D03*
D38*
X45820000Y-181550000D03*
X37180000Y-181550000D03*
D37*
X37180000Y-177370000D03*
D39*
X38250000Y-176155000D03*
X39050000Y-176155000D03*
D40*
X39750000Y-176155000D03*
X40750000Y-176155000D03*
X42250000Y-176155000D03*
X43250000Y-176155000D03*
D39*
X43950000Y-176155000D03*
X44750000Y-176155000D03*
X44750000Y-176155000D03*
X43950000Y-176155000D03*
D40*
X42750000Y-176155000D03*
X41750000Y-176155000D03*
X41250000Y-176155000D03*
X40250000Y-176155000D03*
D39*
X39050000Y-176155000D03*
X38250000Y-176155000D03*
D41*
X38610000Y-177900000D03*
X44390000Y-177900000D03*
G04 #@! TD*
G04 #@! TO.C,R202*
G36*
G01*
X123400000Y-139762500D02*
X123400000Y-140237500D01*
G75*
G02*
X123162500Y-140475000I-237500J0D01*
G01*
X122662500Y-140475000D01*
G75*
G02*
X122425000Y-140237500I0J237500D01*
G01*
X122425000Y-139762500D01*
G75*
G02*
X122662500Y-139525000I237500J0D01*
G01*
X123162500Y-139525000D01*
G75*
G02*
X123400000Y-139762500I0J-237500D01*
G01*
G37*
G36*
G01*
X121575000Y-139762500D02*
X121575000Y-140237500D01*
G75*
G02*
X121337500Y-140475000I-237500J0D01*
G01*
X120837500Y-140475000D01*
G75*
G02*
X120600000Y-140237500I0J237500D01*
G01*
X120600000Y-139762500D01*
G75*
G02*
X120837500Y-139525000I237500J0D01*
G01*
X121337500Y-139525000D01*
G75*
G02*
X121575000Y-139762500I0J-237500D01*
G01*
G37*
G04 #@! TD*
G04 #@! TO.C,R121*
G36*
G01*
X56512500Y-156100000D02*
X56987500Y-156100000D01*
G75*
G02*
X57225000Y-156337500I0J-237500D01*
G01*
X57225000Y-156837500D01*
G75*
G02*
X56987500Y-157075000I-237500J0D01*
G01*
X56512500Y-157075000D01*
G75*
G02*
X56275000Y-156837500I0J237500D01*
G01*
X56275000Y-156337500D01*
G75*
G02*
X56512500Y-156100000I237500J0D01*
G01*
G37*
G36*
G01*
X56512500Y-157925000D02*
X56987500Y-157925000D01*
G75*
G02*
X57225000Y-158162500I0J-237500D01*
G01*
X57225000Y-158662500D01*
G75*
G02*
X56987500Y-158900000I-237500J0D01*
G01*
X56512500Y-158900000D01*
G75*
G02*
X56275000Y-158662500I0J237500D01*
G01*
X56275000Y-158162500D01*
G75*
G02*
X56512500Y-157925000I237500J0D01*
G01*
G37*
G04 #@! TD*
G04 #@! TO.C,C411*
G36*
G01*
X117600000Y-89237500D02*
X117600000Y-88762500D01*
G75*
G02*
X117837500Y-88525000I237500J0D01*
G01*
X118437500Y-88525000D01*
G75*
G02*
X118675000Y-88762500I0J-237500D01*
G01*
X118675000Y-89237500D01*
G75*
G02*
X118437500Y-89475000I-237500J0D01*
G01*
X117837500Y-89475000D01*
G75*
G02*
X117600000Y-89237500I0J237500D01*
G01*
G37*
G36*
G01*
X119325000Y-89237500D02*
X119325000Y-88762500D01*
G75*
G02*
X119562500Y-88525000I237500J0D01*
G01*
X120162500Y-88525000D01*
G75*
G02*
X120400000Y-88762500I0J-237500D01*
G01*
X120400000Y-89237500D01*
G75*
G02*
X120162500Y-89475000I-237500J0D01*
G01*
X119562500Y-89475000D01*
G75*
G02*
X119325000Y-89237500I0J237500D01*
G01*
G37*
G04 #@! TD*
D22*
G04 #@! TO.C,H108*
X105500000Y-63000000D03*
G04 #@! TD*
D14*
G04 #@! TO.C,D503*
X121750000Y-181000000D03*
X121750000Y-176000000D03*
G04 #@! TD*
G04 #@! TO.C,J108*
G36*
G01*
X95150000Y-179750000D02*
X95150000Y-178250000D01*
G75*
G02*
X95400000Y-178000000I250000J0D01*
G01*
X96600000Y-178000000D01*
G75*
G02*
X96850000Y-178250000I0J-250000D01*
G01*
X96850000Y-179750000D01*
G75*
G02*
X96600000Y-180000000I-250000J0D01*
G01*
X95400000Y-180000000D01*
G75*
G02*
X95150000Y-179750000I0J250000D01*
G01*
G37*
D30*
X98500000Y-179000000D03*
G04 #@! TD*
D12*
G04 #@! TO.C,D402*
X32000000Y-80000000D03*
D13*
X32000000Y-82540000D03*
X32000000Y-85080000D03*
G04 #@! TD*
G04 #@! TO.C,R102*
G36*
G01*
X44487500Y-172900000D02*
X44012500Y-172900000D01*
G75*
G02*
X43775000Y-172662500I0J237500D01*
G01*
X43775000Y-172162500D01*
G75*
G02*
X44012500Y-171925000I237500J0D01*
G01*
X44487500Y-171925000D01*
G75*
G02*
X44725000Y-172162500I0J-237500D01*
G01*
X44725000Y-172662500D01*
G75*
G02*
X44487500Y-172900000I-237500J0D01*
G01*
G37*
G36*
G01*
X44487500Y-171075000D02*
X44012500Y-171075000D01*
G75*
G02*
X43775000Y-170837500I0J237500D01*
G01*
X43775000Y-170337500D01*
G75*
G02*
X44012500Y-170100000I237500J0D01*
G01*
X44487500Y-170100000D01*
G75*
G02*
X44725000Y-170337500I0J-237500D01*
G01*
X44725000Y-170837500D01*
G75*
G02*
X44487500Y-171075000I-237500J0D01*
G01*
G37*
G04 #@! TD*
G04 #@! TO.C,R108*
G36*
G01*
X69737500Y-174100000D02*
X70212500Y-174100000D01*
G75*
G02*
X70450000Y-174337500I0J-237500D01*
G01*
X70450000Y-174837500D01*
G75*
G02*
X70212500Y-175075000I-237500J0D01*
G01*
X69737500Y-175075000D01*
G75*
G02*
X69500000Y-174837500I0J237500D01*
G01*
X69500000Y-174337500D01*
G75*
G02*
X69737500Y-174100000I237500J0D01*
G01*
G37*
G36*
G01*
X69737500Y-175925000D02*
X70212500Y-175925000D01*
G75*
G02*
X70450000Y-176162500I0J-237500D01*
G01*
X70450000Y-176662500D01*
G75*
G02*
X70212500Y-176900000I-237500J0D01*
G01*
X69737500Y-176900000D01*
G75*
G02*
X69500000Y-176662500I0J237500D01*
G01*
X69500000Y-176162500D01*
G75*
G02*
X69737500Y-175925000I237500J0D01*
G01*
G37*
G04 #@! TD*
G04 #@! TO.C,U405*
G36*
G01*
X115550000Y-81245000D02*
X115550000Y-80945000D01*
G75*
G02*
X115700000Y-80795000I150000J0D01*
G01*
X117350000Y-80795000D01*
G75*
G02*
X117500000Y-80945000I0J-150000D01*
G01*
X117500000Y-81245000D01*
G75*
G02*
X117350000Y-81395000I-150000J0D01*
G01*
X115700000Y-81395000D01*
G75*
G02*
X115550000Y-81245000I0J150000D01*
G01*
G37*
G36*
G01*
X115550000Y-82515000D02*
X115550000Y-82215000D01*
G75*
G02*
X115700000Y-82065000I150000J0D01*
G01*
X117350000Y-82065000D01*
G75*
G02*
X117500000Y-82215000I0J-150000D01*
G01*
X117500000Y-82515000D01*
G75*
G02*
X117350000Y-82665000I-150000J0D01*
G01*
X115700000Y-82665000D01*
G75*
G02*
X115550000Y-82515000I0J150000D01*
G01*
G37*
G36*
G01*
X115550000Y-83785000D02*
X115550000Y-83485000D01*
G75*
G02*
X115700000Y-83335000I150000J0D01*
G01*
X117350000Y-83335000D01*
G75*
G02*
X117500000Y-83485000I0J-150000D01*
G01*
X117500000Y-83785000D01*
G75*
G02*
X117350000Y-83935000I-150000J0D01*
G01*
X115700000Y-83935000D01*
G75*
G02*
X115550000Y-83785000I0J150000D01*
G01*
G37*
G36*
G01*
X115550000Y-85055000D02*
X115550000Y-84755000D01*
G75*
G02*
X115700000Y-84605000I150000J0D01*
G01*
X117350000Y-84605000D01*
G75*
G02*
X117500000Y-84755000I0J-150000D01*
G01*
X117500000Y-85055000D01*
G75*
G02*
X117350000Y-85205000I-150000J0D01*
G01*
X115700000Y-85205000D01*
G75*
G02*
X115550000Y-85055000I0J150000D01*
G01*
G37*
G36*
G01*
X120500000Y-85055000D02*
X120500000Y-84755000D01*
G75*
G02*
X120650000Y-84605000I150000J0D01*
G01*
X122300000Y-84605000D01*
G75*
G02*
X122450000Y-84755000I0J-150000D01*
G01*
X122450000Y-85055000D01*
G75*
G02*
X122300000Y-85205000I-150000J0D01*
G01*
X120650000Y-85205000D01*
G75*
G02*
X120500000Y-85055000I0J150000D01*
G01*
G37*
G36*
G01*
X120500000Y-83785000D02*
X120500000Y-83485000D01*
G75*
G02*
X120650000Y-83335000I150000J0D01*
G01*
X122300000Y-83335000D01*
G75*
G02*
X122450000Y-83485000I0J-150000D01*
G01*
X122450000Y-83785000D01*
G75*
G02*
X122300000Y-83935000I-150000J0D01*
G01*
X120650000Y-83935000D01*
G75*
G02*
X120500000Y-83785000I0J150000D01*
G01*
G37*
G36*
G01*
X120500000Y-82515000D02*
X120500000Y-82215000D01*
G75*
G02*
X120650000Y-82065000I150000J0D01*
G01*
X122300000Y-82065000D01*
G75*
G02*
X122450000Y-82215000I0J-150000D01*
G01*
X122450000Y-82515000D01*
G75*
G02*
X122300000Y-82665000I-150000J0D01*
G01*
X120650000Y-82665000D01*
G75*
G02*
X120500000Y-82515000I0J150000D01*
G01*
G37*
G36*
G01*
X120500000Y-81245000D02*
X120500000Y-80945000D01*
G75*
G02*
X120650000Y-80795000I150000J0D01*
G01*
X122300000Y-80795000D01*
G75*
G02*
X122450000Y-80945000I0J-150000D01*
G01*
X122450000Y-81245000D01*
G75*
G02*
X122300000Y-81395000I-150000J0D01*
G01*
X120650000Y-81395000D01*
G75*
G02*
X120500000Y-81245000I0J150000D01*
G01*
G37*
G04 #@! TD*
D14*
G04 #@! TO.C,D504*
X108500000Y-181000000D03*
X108500000Y-176000000D03*
G04 #@! TD*
D12*
G04 #@! TO.C,D406*
X128000000Y-118000000D03*
D13*
X128000000Y-115460000D03*
X128000000Y-112920000D03*
G04 #@! TD*
G04 #@! TO.C,R312*
G36*
G01*
X43350000Y-144987500D02*
X43350000Y-144512500D01*
G75*
G02*
X43587500Y-144275000I237500J0D01*
G01*
X44087500Y-144275000D01*
G75*
G02*
X44325000Y-144512500I0J-237500D01*
G01*
X44325000Y-144987500D01*
G75*
G02*
X44087500Y-145225000I-237500J0D01*
G01*
X43587500Y-145225000D01*
G75*
G02*
X43350000Y-144987500I0J237500D01*
G01*
G37*
G36*
G01*
X45175000Y-144987500D02*
X45175000Y-144512500D01*
G75*
G02*
X45412500Y-144275000I237500J0D01*
G01*
X45912500Y-144275000D01*
G75*
G02*
X46150000Y-144512500I0J-237500D01*
G01*
X46150000Y-144987500D01*
G75*
G02*
X45912500Y-145225000I-237500J0D01*
G01*
X45412500Y-145225000D01*
G75*
G02*
X45175000Y-144987500I0J237500D01*
G01*
G37*
G04 #@! TD*
G04 #@! TO.C,U406*
G36*
G01*
X115550000Y-114245000D02*
X115550000Y-113945000D01*
G75*
G02*
X115700000Y-113795000I150000J0D01*
G01*
X117350000Y-113795000D01*
G75*
G02*
X117500000Y-113945000I0J-150000D01*
G01*
X117500000Y-114245000D01*
G75*
G02*
X117350000Y-114395000I-150000J0D01*
G01*
X115700000Y-114395000D01*
G75*
G02*
X115550000Y-114245000I0J150000D01*
G01*
G37*
G36*
G01*
X115550000Y-115515000D02*
X115550000Y-115215000D01*
G75*
G02*
X115700000Y-115065000I150000J0D01*
G01*
X117350000Y-115065000D01*
G75*
G02*
X117500000Y-115215000I0J-150000D01*
G01*
X117500000Y-115515000D01*
G75*
G02*
X117350000Y-115665000I-150000J0D01*
G01*
X115700000Y-115665000D01*
G75*
G02*
X115550000Y-115515000I0J150000D01*
G01*
G37*
G36*
G01*
X115550000Y-116785000D02*
X115550000Y-116485000D01*
G75*
G02*
X115700000Y-116335000I150000J0D01*
G01*
X117350000Y-116335000D01*
G75*
G02*
X117500000Y-116485000I0J-150000D01*
G01*
X117500000Y-116785000D01*
G75*
G02*
X117350000Y-116935000I-150000J0D01*
G01*
X115700000Y-116935000D01*
G75*
G02*
X115550000Y-116785000I0J150000D01*
G01*
G37*
G36*
G01*
X115550000Y-118055000D02*
X115550000Y-117755000D01*
G75*
G02*
X115700000Y-117605000I150000J0D01*
G01*
X117350000Y-117605000D01*
G75*
G02*
X117500000Y-117755000I0J-150000D01*
G01*
X117500000Y-118055000D01*
G75*
G02*
X117350000Y-118205000I-150000J0D01*
G01*
X115700000Y-118205000D01*
G75*
G02*
X115550000Y-118055000I0J150000D01*
G01*
G37*
G36*
G01*
X120500000Y-118055000D02*
X120500000Y-117755000D01*
G75*
G02*
X120650000Y-117605000I150000J0D01*
G01*
X122300000Y-117605000D01*
G75*
G02*
X122450000Y-117755000I0J-150000D01*
G01*
X122450000Y-118055000D01*
G75*
G02*
X122300000Y-118205000I-150000J0D01*
G01*
X120650000Y-118205000D01*
G75*
G02*
X120500000Y-118055000I0J150000D01*
G01*
G37*
G36*
G01*
X120500000Y-116785000D02*
X120500000Y-116485000D01*
G75*
G02*
X120650000Y-116335000I150000J0D01*
G01*
X122300000Y-116335000D01*
G75*
G02*
X122450000Y-116485000I0J-150000D01*
G01*
X122450000Y-116785000D01*
G75*
G02*
X122300000Y-116935000I-150000J0D01*
G01*
X120650000Y-116935000D01*
G75*
G02*
X120500000Y-116785000I0J150000D01*
G01*
G37*
G36*
G01*
X120500000Y-115515000D02*
X120500000Y-115215000D01*
G75*
G02*
X120650000Y-115065000I150000J0D01*
G01*
X122300000Y-115065000D01*
G75*
G02*
X122450000Y-115215000I0J-150000D01*
G01*
X122450000Y-115515000D01*
G75*
G02*
X122300000Y-115665000I-150000J0D01*
G01*
X120650000Y-115665000D01*
G75*
G02*
X120500000Y-115515000I0J150000D01*
G01*
G37*
G36*
G01*
X120500000Y-114245000D02*
X120500000Y-113945000D01*
G75*
G02*
X120650000Y-113795000I150000J0D01*
G01*
X122300000Y-113795000D01*
G75*
G02*
X122450000Y-113945000I0J-150000D01*
G01*
X122450000Y-114245000D01*
G75*
G02*
X122300000Y-114395000I-150000J0D01*
G01*
X120650000Y-114395000D01*
G75*
G02*
X120500000Y-114245000I0J150000D01*
G01*
G37*
G04 #@! TD*
G04 #@! TO.C,C220*
G36*
G01*
X49237500Y-142650000D02*
X48762500Y-142650000D01*
G75*
G02*
X48525000Y-142412500I0J237500D01*
G01*
X48525000Y-141812500D01*
G75*
G02*
X48762500Y-141575000I237500J0D01*
G01*
X49237500Y-141575000D01*
G75*
G02*
X49475000Y-141812500I0J-237500D01*
G01*
X49475000Y-142412500D01*
G75*
G02*
X49237500Y-142650000I-237500J0D01*
G01*
G37*
G36*
G01*
X49237500Y-140925000D02*
X48762500Y-140925000D01*
G75*
G02*
X48525000Y-140687500I0J237500D01*
G01*
X48525000Y-140087500D01*
G75*
G02*
X48762500Y-139850000I237500J0D01*
G01*
X49237500Y-139850000D01*
G75*
G02*
X49475000Y-140087500I0J-237500D01*
G01*
X49475000Y-140687500D01*
G75*
G02*
X49237500Y-140925000I-237500J0D01*
G01*
G37*
G04 #@! TD*
D19*
G04 #@! TO.C,J102*
X77075000Y-162480000D03*
D20*
X77075000Y-165020000D03*
X74535000Y-162480000D03*
X74535000Y-165020000D03*
X71995000Y-162480000D03*
X71995000Y-165020000D03*
X69455000Y-162480000D03*
X69455000Y-165020000D03*
X66915000Y-162480000D03*
X66915000Y-165020000D03*
G04 #@! TD*
D42*
G04 #@! TO.C,L202*
X82825000Y-143500000D03*
X77675000Y-143500000D03*
G04 #@! TD*
G04 #@! TO.C,C222*
G36*
G01*
X44737500Y-130900000D02*
X44262500Y-130900000D01*
G75*
G02*
X44025000Y-130662500I0J237500D01*
G01*
X44025000Y-130062500D01*
G75*
G02*
X44262500Y-129825000I237500J0D01*
G01*
X44737500Y-129825000D01*
G75*
G02*
X44975000Y-130062500I0J-237500D01*
G01*
X44975000Y-130662500D01*
G75*
G02*
X44737500Y-130900000I-237500J0D01*
G01*
G37*
G36*
G01*
X44737500Y-129175000D02*
X44262500Y-129175000D01*
G75*
G02*
X44025000Y-128937500I0J237500D01*
G01*
X44025000Y-128337500D01*
G75*
G02*
X44262500Y-128100000I237500J0D01*
G01*
X44737500Y-128100000D01*
G75*
G02*
X44975000Y-128337500I0J-237500D01*
G01*
X44975000Y-128937500D01*
G75*
G02*
X44737500Y-129175000I-237500J0D01*
G01*
G37*
G04 #@! TD*
G04 #@! TO.C,R504*
G36*
G01*
X96900000Y-167262500D02*
X96900000Y-167737500D01*
G75*
G02*
X96662500Y-167975000I-237500J0D01*
G01*
X96162500Y-167975000D01*
G75*
G02*
X95925000Y-167737500I0J237500D01*
G01*
X95925000Y-167262500D01*
G75*
G02*
X96162500Y-167025000I237500J0D01*
G01*
X96662500Y-167025000D01*
G75*
G02*
X96900000Y-167262500I0J-237500D01*
G01*
G37*
G36*
G01*
X95075000Y-167262500D02*
X95075000Y-167737500D01*
G75*
G02*
X94837500Y-167975000I-237500J0D01*
G01*
X94337500Y-167975000D01*
G75*
G02*
X94100000Y-167737500I0J237500D01*
G01*
X94100000Y-167262500D01*
G75*
G02*
X94337500Y-167025000I237500J0D01*
G01*
X94837500Y-167025000D01*
G75*
G02*
X95075000Y-167262500I0J-237500D01*
G01*
G37*
G04 #@! TD*
D25*
G04 #@! TO.C,H102*
X116500000Y-29000000D03*
G04 #@! TD*
G04 #@! TO.C,Q502*
G36*
G01*
X117255000Y-168550000D02*
X117555000Y-168550000D01*
G75*
G02*
X117705000Y-168700000I0J-150000D01*
G01*
X117705000Y-170050000D01*
G75*
G02*
X117555000Y-170200000I-150000J0D01*
G01*
X117255000Y-170200000D01*
G75*
G02*
X117105000Y-170050000I0J150000D01*
G01*
X117105000Y-168700000D01*
G75*
G02*
X117255000Y-168550000I150000J0D01*
G01*
G37*
G36*
G01*
X115985000Y-168550000D02*
X116285000Y-168550000D01*
G75*
G02*
X116435000Y-168700000I0J-150000D01*
G01*
X116435000Y-170050000D01*
G75*
G02*
X116285000Y-170200000I-150000J0D01*
G01*
X115985000Y-170200000D01*
G75*
G02*
X115835000Y-170050000I0J150000D01*
G01*
X115835000Y-168700000D01*
G75*
G02*
X115985000Y-168550000I150000J0D01*
G01*
G37*
G36*
G01*
X114715000Y-168550000D02*
X115015000Y-168550000D01*
G75*
G02*
X115165000Y-168700000I0J-150000D01*
G01*
X115165000Y-170050000D01*
G75*
G02*
X115015000Y-170200000I-150000J0D01*
G01*
X114715000Y-170200000D01*
G75*
G02*
X114565000Y-170050000I0J150000D01*
G01*
X114565000Y-168700000D01*
G75*
G02*
X114715000Y-168550000I150000J0D01*
G01*
G37*
G36*
G01*
X113445000Y-168550000D02*
X113745000Y-168550000D01*
G75*
G02*
X113895000Y-168700000I0J-150000D01*
G01*
X113895000Y-170050000D01*
G75*
G02*
X113745000Y-170200000I-150000J0D01*
G01*
X113445000Y-170200000D01*
G75*
G02*
X113295000Y-170050000I0J150000D01*
G01*
X113295000Y-168700000D01*
G75*
G02*
X113445000Y-168550000I150000J0D01*
G01*
G37*
G36*
G01*
X113445000Y-173800000D02*
X113745000Y-173800000D01*
G75*
G02*
X113895000Y-173950000I0J-150000D01*
G01*
X113895000Y-175300000D01*
G75*
G02*
X113745000Y-175450000I-150000J0D01*
G01*
X113445000Y-175450000D01*
G75*
G02*
X113295000Y-175300000I0J150000D01*
G01*
X113295000Y-173950000D01*
G75*
G02*
X113445000Y-173800000I150000J0D01*
G01*
G37*
G36*
G01*
X114715000Y-173800000D02*
X115015000Y-173800000D01*
G75*
G02*
X115165000Y-173950000I0J-150000D01*
G01*
X115165000Y-175300000D01*
G75*
G02*
X115015000Y-175450000I-150000J0D01*
G01*
X114715000Y-175450000D01*
G75*
G02*
X114565000Y-175300000I0J150000D01*
G01*
X114565000Y-173950000D01*
G75*
G02*
X114715000Y-173800000I150000J0D01*
G01*
G37*
G36*
G01*
X115985000Y-173800000D02*
X116285000Y-173800000D01*
G75*
G02*
X116435000Y-173950000I0J-150000D01*
G01*
X116435000Y-175300000D01*
G75*
G02*
X116285000Y-175450000I-150000J0D01*
G01*
X115985000Y-175450000D01*
G75*
G02*
X115835000Y-175300000I0J150000D01*
G01*
X115835000Y-173950000D01*
G75*
G02*
X115985000Y-173800000I150000J0D01*
G01*
G37*
G36*
G01*
X117255000Y-173800000D02*
X117555000Y-173800000D01*
G75*
G02*
X117705000Y-173950000I0J-150000D01*
G01*
X117705000Y-175300000D01*
G75*
G02*
X117555000Y-175450000I-150000J0D01*
G01*
X117255000Y-175450000D01*
G75*
G02*
X117105000Y-175300000I0J150000D01*
G01*
X117105000Y-173950000D01*
G75*
G02*
X117255000Y-173800000I150000J0D01*
G01*
G37*
G04 #@! TD*
D12*
G04 #@! TO.C,Q406*
X32000000Y-124000000D03*
D13*
X32000000Y-126540000D03*
X32000000Y-129080000D03*
G04 #@! TD*
D22*
G04 #@! TO.C,H106*
X105500000Y-119000000D03*
G04 #@! TD*
D12*
G04 #@! TO.C,Q405*
X32000000Y-102000000D03*
D13*
X32000000Y-104540000D03*
X32000000Y-107080000D03*
G04 #@! TD*
G04 #@! TO.C,C402*
G36*
G01*
X42400000Y-49762500D02*
X42400000Y-50237500D01*
G75*
G02*
X42162500Y-50475000I-237500J0D01*
G01*
X41562500Y-50475000D01*
G75*
G02*
X41325000Y-50237500I0J237500D01*
G01*
X41325000Y-49762500D01*
G75*
G02*
X41562500Y-49525000I237500J0D01*
G01*
X42162500Y-49525000D01*
G75*
G02*
X42400000Y-49762500I0J-237500D01*
G01*
G37*
G36*
G01*
X40675000Y-49762500D02*
X40675000Y-50237500D01*
G75*
G02*
X40437500Y-50475000I-237500J0D01*
G01*
X39837500Y-50475000D01*
G75*
G02*
X39600000Y-50237500I0J237500D01*
G01*
X39600000Y-49762500D01*
G75*
G02*
X39837500Y-49525000I237500J0D01*
G01*
X40437500Y-49525000D01*
G75*
G02*
X40675000Y-49762500I0J-237500D01*
G01*
G37*
G04 #@! TD*
G04 #@! TO.C,R105*
G36*
G01*
X70212500Y-182900000D02*
X69737500Y-182900000D01*
G75*
G02*
X69500000Y-182662500I0J237500D01*
G01*
X69500000Y-182162500D01*
G75*
G02*
X69737500Y-181925000I237500J0D01*
G01*
X70212500Y-181925000D01*
G75*
G02*
X70450000Y-182162500I0J-237500D01*
G01*
X70450000Y-182662500D01*
G75*
G02*
X70212500Y-182900000I-237500J0D01*
G01*
G37*
G36*
G01*
X70212500Y-181075000D02*
X69737500Y-181075000D01*
G75*
G02*
X69500000Y-180837500I0J237500D01*
G01*
X69500000Y-180337500D01*
G75*
G02*
X69737500Y-180100000I237500J0D01*
G01*
X70212500Y-180100000D01*
G75*
G02*
X70450000Y-180337500I0J-237500D01*
G01*
X70450000Y-180837500D01*
G75*
G02*
X70212500Y-181075000I-237500J0D01*
G01*
G37*
G04 #@! TD*
G36*
X26942121Y-25020002D02*
G01*
X26988614Y-25073658D01*
X27000000Y-25126000D01*
X27000000Y-184874000D01*
X26979998Y-184942121D01*
X26926342Y-184988614D01*
X26874000Y-185000000D01*
X25126000Y-185000000D01*
X25057879Y-184979998D01*
X25011386Y-184926342D01*
X25000000Y-184874000D01*
X25000000Y-25126000D01*
X25020002Y-25057879D01*
X25073658Y-25011386D01*
X25126000Y-25000000D01*
X26874000Y-25000000D01*
X26942121Y-25020002D01*
G37*
G36*
X134942121Y-25020002D02*
G01*
X134988614Y-25073658D01*
X135000000Y-25126000D01*
X135000000Y-184874000D01*
X134979998Y-184942121D01*
X134926342Y-184988614D01*
X134874000Y-185000000D01*
X133126000Y-185000000D01*
X133057879Y-184979998D01*
X133011386Y-184926342D01*
X133000000Y-184874000D01*
X133000000Y-25126000D01*
X133020002Y-25057879D01*
X133073658Y-25011386D01*
X133126000Y-25000000D01*
X134874000Y-25000000D01*
X134942121Y-25020002D01*
G37*
G36*
X112942121Y-25020002D02*
G01*
X112988614Y-25073658D01*
X113000000Y-25126000D01*
X113000000Y-127374000D01*
X112979998Y-127442121D01*
X112926342Y-127488614D01*
X112874000Y-127500000D01*
X98126000Y-127500000D01*
X98057879Y-127479998D01*
X98011386Y-127426342D01*
X98000000Y-127374000D01*
X98000000Y-25126000D01*
X98020002Y-25057879D01*
X98073658Y-25011386D01*
X98126000Y-25000000D01*
X112874000Y-25000000D01*
X112942121Y-25020002D01*
G37*
M02*
